SplineFontDB: 3.0
FontName: Asap-Regular
FullName: Asap Regular
FamilyName: Asap
Weight: Regular
Copyright: Copyright (c) 2011-2014, Omnibus-Type (www.omnibus-type.com omnibus.type@gmail.com) with Reserved Font Name 'Asap'
Version: 001.006
ItalicAngle: 0
UnderlinePosition: -50
UnderlineWidth: 50
Ascent: 800
Descent: 200
sfntRevision: 0x00010189
LayerCount: 2
Layer: 0 1 "Back"  1
Layer: 1 1 "Fore"  0
XUID: [1021 191 1600663927 14431797]
FSType: 8
OS2Version: 3
OS2_WeightWidthSlopeOnly: 0
OS2_UseTypoMetrics: 1
CreationTime: 1410960463
ModificationTime: 1410988202
PfmFamily: 17
TTFWeight: 400
TTFWidth: 5
LineGap: 0
VLineGap: 0
Panose: 2 15 5 4 3 1 2 6 2 3
OS2TypoAscent: 999
OS2TypoAOffset: 0
OS2TypoDescent: -236
OS2TypoDOffset: 0
OS2TypoLinegap: 0
OS2WinAscent: 999
OS2WinAOffset: 0
OS2WinDescent: 236
OS2WinDOffset: 0
HheadAscent: 999
HheadAOffset: 0
HheadDescent: -236
HheadDOffset: 0
OS2SubXSize: 650
OS2SubYSize: 600
OS2SubXOff: 0
OS2SubYOff: 75
OS2SupXSize: 650
OS2SupYSize: 600
OS2SupXOff: 0
OS2SupYOff: 350
OS2StrikeYSize: 50
OS2StrikeYPos: 313
OS2Vendor: 'OMNI'
OS2CodePages: 20000193.00000000
OS2UnicodeRanges: 20000007.00000000.00000000.00000000
Lookup: 1 0 0 "'aalt' Access All Alternates lookup 0"  {"'aalt' Access All Alternates lookup 0 subtable"  } ['aalt' ('DFLT' <'dflt' > 'grek' <'dflt' > 'latn' <'AZE ' 'CAT ' 'CRT ' 'ESP ' 'KAZ ' 'MOL ' 'NLD ' 'PLK ' 'ROM ' 'TAT ' 'TRK ' 'dflt' > ) ]
Lookup: 6 0 0 "'locl' Localized Forms in Latin lookup 1"  {"'locl' Localized Forms in Latin lookup 1 contextual 0"  "'locl' Localized Forms in Latin lookup 1 contextual 1"  } ['locl' ('latn' <'AZE ' 'CAT ' 'CRT ' 'ESP ' 'KAZ ' 'MOL ' 'PLK ' 'ROM ' 'TAT ' 'TRK ' 'dflt' > ) ]
Lookup: 1 0 0 "'locl' Localized Forms in Latin lookup 2"  {"'locl' Localized Forms in Latin lookup 2 subtable"  } ['locl' ('latn' <'TRK ' > ) ]
Lookup: 1 0 0 "'locl' Localized Forms in Latin lookup 3"  {"'locl' Localized Forms in Latin lookup 3 subtable"  } ['locl' ('latn' <'AZE ' > ) ]

StartChar: .notdef
Encoding: 65536 -1 0
Width: 514
Flags: MW
HStem: 0 50<87 427 87 507> 650 50<86 426 86 86>
VStem: 7 49<95 95 95 605> 456 51<95 605 605 605>
LayerCount: 2
Fore
SplineSet
7 700 m 1,0,-1
 507 700 l 1,1,-1
 507 0 l 1,2,-1
 7 0 l 1,3,-1
 7 700 l 1,0,-1
426 650 m 1,4,-1
 86 650 l 1,5,-1
 257 395 l 1,6,-1
 426 650 l 1,4,-1
56 95 m 1,7,-1
 227 350 l 1,8,-1
 56 605 l 1,9,-1
 56 95 l 1,7,-1
456 95 m 1,10,-1
 456 605 l 1,11,-1
 287 350 l 1,12,-1
 456 95 l 1,10,-1
427 50 m 1,13,-1
 256 305 l 1,14,-1
 87 50 l 1,15,-1
 427 50 l 1,13,-1
EndSplineSet
EndChar

StartChar: A
Encoding: 65 65 1
Width: 613
GlyphClass: 2
Flags: MW
HStem: 178 76<185 424 185 451 157 424> 610 92<305 307 305 305> 682 20G<292 321 321 331>
VStem: 12 589<10 17 10 17>
AnchorPoint: "Anchor-1" 307 700 basechar 0
AnchorPoint: "Anchor-0" 310 0 basechar 0
LayerCount: 2
Fore
SplineSet
292 702 m 2,0,-1
 321 702 l 2,1,2
 356 702 356 702 361 686 c 2,3,-1
 598 28 l 2,4,5
 601 21 601 21 601 15 c 0,6,7
 601 -2 601 -2 558 -2 c 2,8,-1
 550 -2 l 2,9,10
 515 -2 515 -2 510 14 c 2,11,-1
 451 178 l 1,12,-1
 157 178 l 1,13,-1
 100 14 l 2,14,15
 95 -2 95 -2 60 -2 c 2,16,-1
 55 -2 l 2,17,18
 12 -2 12 -2 12 15 c 0,19,20
 12 20 12 20 15 29 c 2,21,-1
 252 686 l 2,22,23
 257 702 257 702 292 702 c 2,0,-1
307 610 m 1,24,-1
 305 610 l 1,25,26
 297 570 297 570 290 552 c 2,27,-1
 185 254 l 1,28,-1
 424 254 l 1,29,-1
 319 552 l 2,30,31
 314 568 314 568 307 610 c 1,24,-1
EndSplineSet
Substitution2: "Single Substitution lookup 20 subtable" ordfeminine
Substitution2: "'aalt' Access All Alternates lookup 0 subtable" ordfeminine
Position2: "'cpsp' Capital Spacing lookup 0 subtable" dx=5 dy=0 dh=10 dv=0
EndChar

StartChar: Aacute
Encoding: 193 193 2
Width: 613
GlyphClass: 2
Flags: MW
HStem: 178 76<185 424 185 451 157 424> 610 92<305 307 305 305> 682 20G<292 321 321 331>
VStem: 12 589<10 17 10 17>
AnchorPoint: "Anchor-1" 313 877 basechar 0
AnchorPoint: "Anchor-0" 310 0 basechar 0
LayerCount: 2
Fore
SplineSet
325 883 m 0,0,1
 340 909 340 909 387.5 909 c 128,-1,2
 435 909 435 909 435 896 c 0,3,4
 435 889 435 889 425.5 877 c 128,-1,5
 416 865 416 865 386 831 c 2,6,-1
 341 780 l 2,7,8
 324 762 324 762 295.5 762 c 128,-1,9
 267 762 267 762 267 772 c 128,-1,10
 267 782 267 782 325 883 c 0,0,1
292 702 m 2,11,-1
 321 702 l 2,12,13
 356 702 356 702 361 686 c 2,14,-1
 598 28 l 2,15,16
 601 21 601 21 601 15 c 0,17,18
 601 -2 601 -2 558 -2 c 2,19,-1
 550 -2 l 2,20,21
 515 -2 515 -2 510 14 c 2,22,-1
 451 178 l 1,23,-1
 157 178 l 1,24,-1
 100 14 l 2,25,26
 95 -2 95 -2 60 -2 c 2,27,-1
 55 -2 l 2,28,29
 12 -2 12 -2 12 15 c 0,30,31
 12 20 12 20 15 29 c 2,32,-1
 252 686 l 2,33,34
 257 702 257 702 292 702 c 2,11,-1
307 610 m 1,35,-1
 305 610 l 1,36,37
 297 570 297 570 290 552 c 2,38,-1
 185 254 l 1,39,-1
 424 254 l 1,40,-1
 319 552 l 2,41,42
 314 568 314 568 307 610 c 1,35,-1
EndSplineSet
Position2: "'cpsp' Capital Spacing lookup 0 subtable" dx=5 dy=0 dh=10 dv=0
EndChar

StartChar: Abreve
Encoding: 258 258 3
Width: 613
GlyphClass: 2
Flags: MW
HStem: 178 76<185 424 185 451 157 424> 610 92<305 307 305 305> 682 20G<292 321 321 331> 762 66<283.5 332.5 283.5 343.5>
VStem: 12 589<10 17 10 17>
AnchorPoint: "Anchor-1" 308 848 basechar 0
AnchorPoint: "Anchor-0" 310 0 basechar 0
LayerCount: 2
Fore
SplineSet
437 892 m 0,0,1
 452 892 452 892 452 877 c 0,2,3
 452 823 452 823 409 792.5 c 128,-1,4
 366 762 366 762 307.5 762 c 128,-1,5
 249 762 249 762 206 792.5 c 128,-1,6
 163 823 163 823 163 877 c 0,7,8
 163 892 163 892 178 892 c 0,9,10
 189.4 892 189.4 892 191.2 887.5 c 0,11,12
 197 873 197 873 200 867 c 0,13,14
 221 828 221 828 307.5 828 c 0,15,16
 402.666666667 828 402.666666667 828 418.5 875.5 c 0,17,18
 423 889 423 889 427.5 890.5 c 128,-1,19
 432 892 432 892 437 892 c 0,0,1
292 702 m 2,20,-1
 321 702 l 2,21,22
 356 702 356 702 361 686 c 2,23,-1
 598 28 l 2,24,25
 601 21 601 21 601 15 c 0,26,27
 601 -2 601 -2 558 -2 c 2,28,-1
 550 -2 l 2,29,30
 515 -2 515 -2 510 14 c 2,31,-1
 451 178 l 1,32,-1
 157 178 l 1,33,-1
 100 14 l 2,34,35
 95 -2 95 -2 60 -2 c 2,36,-1
 55 -2 l 2,37,38
 12 -2 12 -2 12 15 c 0,39,40
 12 20 12 20 15 29 c 2,41,-1
 252 686 l 2,42,43
 257 702 257 702 292 702 c 2,20,-1
307 610 m 1,44,-1
 305 610 l 1,45,46
 297 570 297 570 290 552 c 2,47,-1
 185 254 l 1,48,-1
 424 254 l 1,49,-1
 319 552 l 2,50,51
 314 568 314 568 307 610 c 1,44,-1
EndSplineSet
Position2: "'cpsp' Capital Spacing lookup 0 subtable" dx=5 dy=0 dh=10 dv=0
EndChar

StartChar: Abreveacute
Encoding: 7854 7854 4
Width: 613
GlyphClass: 2
Flags: MW
HStem: 178 76<185 424 185 451 157 424> 610 92<305 307 305 305> 682 20G<292 321 321 331> 762 52<283.5 332.5 283.5 343.5>
VStem: 12 589<10 17 10 17>
AnchorPoint: "Anchor-1" 308 857 basechar 0
AnchorPoint: "Anchor-0" 310 0 basechar 0
LayerCount: 2
Fore
SplineSet
323 963 m 0,0,1
 338 989 338 989 373 989 c 128,-1,2
 408 989 408 989 408 976 c 0,3,4
 408 965.142857143 408 965.142857143 334 870 c 0,5,6
 320 852 320 852 297.5 852 c 128,-1,7
 275 852 275 852 275 861.5 c 128,-1,8
 275 871 275 871 323 963 c 0,0,1
437 881 m 0,9,10
 452 881 452 881 452 866 c 0,11,12
 452 818 452 818 408.5 790 c 128,-1,13
 365 762 365 762 307.5 762 c 128,-1,14
 250 762 250 762 206.5 790 c 128,-1,15
 163 818 163 818 163 866 c 0,16,17
 163 881 163 881 178 881 c 0,18,19
 186 881 186 881 188.5 878 c 128,-1,20
 191 875 191 875 193 868 c 0,21,22
 198.935656836 847.225201072 198.935656836 847.225201072 236.467828418 830.612600536 c 128,-1,23
 274 814 274 814 308.5 814 c 128,-1,24
 343 814 343 814 373 827 c 128,-1,25
 403 840 403 840 410.5 850.5 c 128,-1,26
 418 861 418 861 420.5 868 c 128,-1,27
 423 875 423 875 426 878 c 128,-1,28
 429 881 429 881 437 881 c 0,9,10
292 702 m 2,29,-1
 321 702 l 2,30,31
 356 702 356 702 361 686 c 2,32,-1
 598 28 l 2,33,34
 601 21 601 21 601 15 c 0,35,36
 601 -2 601 -2 558 -2 c 2,37,-1
 550 -2 l 2,38,39
 515 -2 515 -2 510 14 c 2,40,-1
 451 178 l 1,41,-1
 157 178 l 1,42,-1
 100 14 l 2,43,44
 95 -2 95 -2 60 -2 c 2,45,-1
 55 -2 l 2,46,47
 12 -2 12 -2 12 15 c 0,48,49
 12 20 12 20 15 29 c 2,50,-1
 252 686 l 2,51,52
 257 702 257 702 292 702 c 2,29,-1
307 610 m 1,53,-1
 305 610 l 1,54,55
 297 570 297 570 290 552 c 2,56,-1
 185 254 l 1,57,-1
 424 254 l 1,58,-1
 319 552 l 2,59,60
 314 568 314 568 307 610 c 1,53,-1
EndSplineSet
Position2: "'cpsp' Capital Spacing lookup 0 subtable" dx=5 dy=0 dh=10 dv=0
EndChar

StartChar: Abrevedotbelow
Encoding: 7862 7862 5
Width: 613
GlyphClass: 2
Flags: MW
HStem: -175 95<298 326> 178 76<185 424 185 451 157 424> 610 92<305 307 305 305> 682 20G<292 321 321 331> 762 66<283.5 332.5 283.5 343.5>
VStem: 270 84<-153 -102 -159.5 -95.5>
AnchorPoint: "Anchor-1" 315 -82 basechar 0
AnchorPoint: "Anchor-0" 310 -203 basechar 0
LayerCount: 2
Fore
SplineSet
437 892 m 0,0,1
 452 892 452 892 452 877 c 0,2,3
 452 823 452 823 409 792.5 c 128,-1,4
 366 762 366 762 307.5 762 c 128,-1,5
 249 762 249 762 206 792.5 c 128,-1,6
 163 823 163 823 163 877 c 0,7,8
 163 892 163 892 178 892 c 0,9,10
 189.4 892 189.4 892 191.2 887.5 c 0,11,12
 197 873 197 873 200 867 c 0,13,14
 221 828 221 828 307.5 828 c 0,15,16
 402.666666667 828 402.666666667 828 418.5 875.5 c 0,17,18
 423 889 423 889 427.5 890.5 c 128,-1,19
 432 892 432 892 437 892 c 0,0,1
292 702 m 2,20,-1
 321 702 l 2,21,22
 356 702 356 702 361 686 c 2,23,-1
 598 28 l 2,24,25
 601 21 601 21 601 15 c 0,26,27
 601 -2 601 -2 558 -2 c 2,28,-1
 550 -2 l 2,29,30
 515 -2 515 -2 510 14 c 2,31,-1
 451 178 l 1,32,-1
 157 178 l 1,33,-1
 100 14 l 2,34,35
 95 -2 95 -2 60 -2 c 2,36,-1
 55 -2 l 2,37,38
 12 -2 12 -2 12 15 c 0,39,40
 12 20 12 20 15 29 c 2,41,-1
 252 686 l 2,42,43
 257 702 257 702 292 702 c 2,20,-1
307 610 m 1,44,-1
 305 610 l 1,45,46
 297 570 297 570 290 552 c 2,47,-1
 185 254 l 1,48,-1
 424 254 l 1,49,-1
 319 552 l 2,50,51
 314 568 314 568 307 610 c 1,44,-1
270 -102 m 2,52,53
 270 -80 270 -80 312 -80 c 128,-1,54
 354 -80 354 -80 354 -102 c 2,55,-1
 354 -153 l 2,56,57
 354 -175 354 -175 312 -175 c 128,-1,58
 270 -175 270 -175 270 -153 c 2,59,-1
 270 -102 l 2,52,53
EndSplineSet
Position2: "'cpsp' Capital Spacing lookup 0 subtable" dx=5 dy=0 dh=10 dv=0
EndChar

StartChar: Abrevegrave
Encoding: 7856 7856 6
Width: 613
GlyphClass: 2
Flags: MW
HStem: 178 76<185 424 185 451 157 424> 610 92<305 307 305 305> 682 20G<292 321 321 331> 762 52<283.5 332.5 283.5 343.5>
VStem: 12 589<10 17 10 17>
AnchorPoint: "Anchor-1" 308 857 basechar 0
AnchorPoint: "Anchor-0" 310 0 basechar 0
LayerCount: 2
Fore
SplineSet
228 976 m 0,0,1
 228 989 228 989 265 989 c 128,-1,2
 302 989 302 989 313 963 c 0,3,4
 351 874 351 874 351 862 c 0,5,6
 351 852 351 852 327.5 852 c 128,-1,7
 304 852 304 852 293.5 867.5 c 128,-1,8
 283 883 283 883 275 896 c 128,-1,9
 267 909 267 909 261.5 917.5 c 128,-1,10
 256 926 256 926 250.5 934 c 128,-1,11
 245 942 245 942 242 947 c 128,-1,12
 239 952 239 952 236 956.5 c 128,-1,13
 233 961 233 961 232 963.5 c 128,-1,14
 231 966 231 966 230 968.5 c 0,15,16
 228 973.5 228 973.5 228 976 c 0,0,1
437 881 m 0,17,18
 452 881 452 881 452 866 c 0,19,20
 452 818 452 818 408.5 790 c 128,-1,21
 365 762 365 762 307.5 762 c 128,-1,22
 250 762 250 762 206.5 790 c 128,-1,23
 163 818 163 818 163 866 c 0,24,25
 163 881 163 881 178 881 c 0,26,27
 186 881 186 881 188.5 878 c 128,-1,28
 191 875 191 875 193 868 c 0,29,30
 198.935656836 847.225201072 198.935656836 847.225201072 236.467828418 830.612600536 c 128,-1,31
 274 814 274 814 308.5 814 c 128,-1,32
 343 814 343 814 373 827 c 128,-1,33
 403 840 403 840 410.5 850.5 c 128,-1,34
 418 861 418 861 420.5 868 c 128,-1,35
 423 875 423 875 426 878 c 128,-1,36
 429 881 429 881 437 881 c 0,17,18
292 702 m 2,37,-1
 321 702 l 2,38,39
 356 702 356 702 361 686 c 2,40,-1
 598 28 l 2,41,42
 601 21 601 21 601 15 c 0,43,44
 601 -2 601 -2 558 -2 c 2,45,-1
 550 -2 l 2,46,47
 515 -2 515 -2 510 14 c 2,48,-1
 451 178 l 1,49,-1
 157 178 l 1,50,-1
 100 14 l 2,51,52
 95 -2 95 -2 60 -2 c 2,53,-1
 55 -2 l 2,54,55
 12 -2 12 -2 12 15 c 0,56,57
 12 20 12 20 15 29 c 2,58,-1
 252 686 l 2,59,60
 257 702 257 702 292 702 c 2,37,-1
307 610 m 1,61,-1
 305 610 l 1,62,63
 297 570 297 570 290 552 c 2,64,-1
 185 254 l 1,65,-1
 424 254 l 1,66,-1
 319 552 l 2,67,68
 314 568 314 568 307 610 c 1,61,-1
EndSplineSet
Position2: "'cpsp' Capital Spacing lookup 0 subtable" dx=5 dy=0 dh=10 dv=0
EndChar

StartChar: Abrevehookabove
Encoding: 7858 7858 7
Width: 613
GlyphClass: 2
Flags: MW
HStem: 178 76<185 424 185 451 157 424> 610 92<305 307 305 305> 682 20G<292 321 321 331> 762 52<283.5 332.5 283.5 343.5> 959 48<284.5 304>
VStem: 331 57<925 941>
AnchorPoint: "Anchor-1" 308 857 basechar 0
AnchorPoint: "Anchor-0" 310 0 basechar 0
LayerCount: 2
Fore
SplineSet
331 932 m 0,0,1
 331 959 331 959 294 959 c 0,2,3
 272.833333333 959 272.833333333 959 260.916666667 952.5 c 128,-1,4
 249 946 249 946 248 946 c 0,5,6
 242 946 242 946 233 958.5 c 128,-1,7
 224 971 224 971 224 980 c 128,-1,8
 224 989 224 989 250 998 c 128,-1,9
 276 1007 276 1007 305 1007 c 128,-1,10
 334 1007 334 1007 361 990.5 c 128,-1,11
 388 974 388 974 388 939 c 128,-1,12
 388 904 388 904 357.5 878.5 c 128,-1,13
 327 853 327 853 312 853 c 128,-1,14
 297 853 297 853 286 859.5 c 128,-1,15
 275 866 275 866 275 873.5 c 128,-1,16
 275 881 275 881 303 896.5 c 128,-1,17
 331 912 331 912 331 932 c 0,0,1
437 881 m 0,18,19
 452 881 452 881 452 866 c 0,20,21
 452 818 452 818 408.5 790 c 128,-1,22
 365 762 365 762 307.5 762 c 128,-1,23
 250 762 250 762 206.5 790 c 128,-1,24
 163 818 163 818 163 866 c 0,25,26
 163 881 163 881 178 881 c 0,27,28
 186 881 186 881 188.5 878 c 128,-1,29
 191 875 191 875 193 868 c 0,30,31
 198.935656836 847.225201072 198.935656836 847.225201072 236.467828418 830.612600536 c 128,-1,32
 274 814 274 814 308.5 814 c 128,-1,33
 343 814 343 814 373 827 c 128,-1,34
 403 840 403 840 410.5 850.5 c 128,-1,35
 418 861 418 861 420.5 868 c 128,-1,36
 423 875 423 875 426 878 c 128,-1,37
 429 881 429 881 437 881 c 0,18,19
292 702 m 2,38,-1
 321 702 l 2,39,40
 356 702 356 702 361 686 c 2,41,-1
 598 28 l 2,42,43
 601 21 601 21 601 15 c 0,44,45
 601 -2 601 -2 558 -2 c 2,46,-1
 550 -2 l 2,47,48
 515 -2 515 -2 510 14 c 2,49,-1
 451 178 l 1,50,-1
 157 178 l 1,51,-1
 100 14 l 2,52,53
 95 -2 95 -2 60 -2 c 2,54,-1
 55 -2 l 2,55,56
 12 -2 12 -2 12 15 c 0,57,58
 12 20 12 20 15 29 c 2,59,-1
 252 686 l 2,60,61
 257 702 257 702 292 702 c 2,38,-1
307 610 m 1,62,-1
 305 610 l 1,63,64
 297 570 297 570 290 552 c 2,65,-1
 185 254 l 1,66,-1
 424 254 l 1,67,-1
 319 552 l 2,68,69
 314 568 314 568 307 610 c 1,62,-1
EndSplineSet
Position2: "'cpsp' Capital Spacing lookup 0 subtable" dx=5 dy=0 dh=10 dv=0
EndChar

StartChar: Abrevetilde
Encoding: 7860 7860 8
Width: 613
GlyphClass: 2
Flags: MW
HStem: 178 76<185 424 185 451 157 424> 610 92<305 307 305 305> 682 20G<292 321 321 331> 762 52<283.5 332.5 283.5 343.5> 903 64<354 370.5> 933 64<235.5 252>
VStem: 12 589<10 17 10 17>
AnchorPoint: "Anchor-1" 308 857 basechar 0
AnchorPoint: "Anchor-0" 310 0 basechar 0
LayerCount: 2
Fore
SplineSet
416 990 m 0,0,1
 434 1003 434 1003 449.5 983.5 c 128,-1,2
 465 964 465 964 445 944 c 0,3,4
 395 903 395 903 356 903 c 128,-1,5
 317 903 317 903 288 918 c 128,-1,6
 259 933 259 933 239 933 c 128,-1,7
 219 933 219 933 195 915.5 c 128,-1,8
 171 898 171 898 156.5 920 c 128,-1,9
 142 942 142 942 160 957 c 0,10,11
 212 997 212 997 247 997 c 128,-1,12
 282 997 282 997 310 982 c 128,-1,13
 338 967 338 967 361.5 967 c 128,-1,14
 385 967 385 967 416 990 c 0,0,1
437 881 m 0,15,16
 452 881 452 881 452 866 c 0,17,18
 452 818 452 818 408.5 790 c 128,-1,19
 365 762 365 762 307.5 762 c 128,-1,20
 250 762 250 762 206.5 790 c 128,-1,21
 163 818 163 818 163 866 c 0,22,23
 163 881 163 881 178 881 c 0,24,25
 186 881 186 881 188.5 878 c 128,-1,26
 191 875 191 875 193 868 c 0,27,28
 198.935656836 847.225201072 198.935656836 847.225201072 236.467828418 830.612600536 c 128,-1,29
 274 814 274 814 308.5 814 c 128,-1,30
 343 814 343 814 373 827 c 128,-1,31
 403 840 403 840 410.5 850.5 c 128,-1,32
 418 861 418 861 420.5 868 c 128,-1,33
 423 875 423 875 426 878 c 128,-1,34
 429 881 429 881 437 881 c 0,15,16
292 702 m 2,35,-1
 321 702 l 2,36,37
 356 702 356 702 361 686 c 2,38,-1
 598 28 l 2,39,40
 601 21 601 21 601 15 c 0,41,42
 601 -2 601 -2 558 -2 c 2,43,-1
 550 -2 l 2,44,45
 515 -2 515 -2 510 14 c 2,46,-1
 451 178 l 1,47,-1
 157 178 l 1,48,-1
 100 14 l 2,49,50
 95 -2 95 -2 60 -2 c 2,51,-1
 55 -2 l 2,52,53
 12 -2 12 -2 12 15 c 0,54,55
 12 20 12 20 15 29 c 2,56,-1
 252 686 l 2,57,58
 257 702 257 702 292 702 c 2,35,-1
307 610 m 1,59,-1
 305 610 l 1,60,61
 297 570 297 570 290 552 c 2,62,-1
 185 254 l 1,63,-1
 424 254 l 1,64,-1
 319 552 l 2,65,66
 314 568 314 568 307 610 c 1,59,-1
EndSplineSet
Position2: "'cpsp' Capital Spacing lookup 0 subtable" dx=5 dy=0 dh=10 dv=0
EndChar

StartChar: Acircumflex
Encoding: 194 194 9
Width: 613
GlyphClass: 2
Flags: MW
HStem: 178 76<185 424 185 451 157 424> 610 92<305 307 305 305> 682 20G<292 321 321 331> 753 142<201.5 319 209 319 294 402 294 404>
VStem: 12 589<10 17 10 17>
AnchorPoint: "Anchor-1" 466 793 basechar 0
AnchorPoint: "Anchor-0" 310 0 basechar 0
LayerCount: 2
Fore
SplineSet
294 895 m 2,0,-1
 319 895 l 2,1,2
 350 895 350 895 365 873 c 2,3,-1
 422 785 l 2,4,5
 428 776 428 776 428 768 c 0,6,7
 428 753 428 753 404 753 c 2,8,-1
 402 753 l 2,9,10
 383 753 383 753 369 766 c 1,11,-1
 306 840 l 1,12,-1
 245 766 l 1,13,14
 231 753 231 753 211 753 c 2,15,-1
 209 753 l 2,16,17
 186 753 186 753 186 767 c 0,18,19
 186 774.5 186 774.5 192 785 c 2,20,-1
 248 873 l 2,21,22
 263 895 263 895 294 895 c 2,0,-1
292 702 m 2,23,-1
 321 702 l 2,24,25
 356 702 356 702 361 686 c 2,26,-1
 598 28 l 2,27,28
 601 21 601 21 601 15 c 0,29,30
 601 -2 601 -2 558 -2 c 2,31,-1
 550 -2 l 2,32,33
 515 -2 515 -2 510 14 c 2,34,-1
 451 178 l 1,35,-1
 157 178 l 1,36,-1
 100 14 l 2,37,38
 95 -2 95 -2 60 -2 c 2,39,-1
 55 -2 l 2,40,41
 12 -2 12 -2 12 15 c 0,42,43
 12 20 12 20 15 29 c 2,44,-1
 252 686 l 2,45,46
 257 702 257 702 292 702 c 2,23,-1
307 610 m 1,47,-1
 305 610 l 1,48,49
 297 570 297 570 290 552 c 2,50,-1
 185 254 l 1,51,-1
 424 254 l 1,52,-1
 319 552 l 2,53,54
 314 568 314 568 307 610 c 1,47,-1
EndSplineSet
Position2: "'cpsp' Capital Spacing lookup 0 subtable" dx=5 dy=0 dh=10 dv=0
EndChar

StartChar: Acircumflexacute
Encoding: 7844 7844 10
Width: 613
GlyphClass: 2
Flags: MW
HStem: 178 76<185 424 185 451 157 424> 610 92<305 307 305 305> 682 20G<292 321 321 331> 753 142<205.5 323 213 323 298 391 298 393>
VStem: 12 589<10 17 10 17>
AnchorPoint: "Anchor-1" 448 829 basechar 0
AnchorPoint: "Anchor-0" 310 0 basechar 0
LayerCount: 2
Fore
SplineSet
463 935 m 0,0,1
 478 961 478 961 513 961 c 128,-1,2
 548 961 548 961 548 948 c 0,3,4
 548 937.142857143 548 937.142857143 474 842 c 0,5,6
 460 824 460 824 437.5 824 c 128,-1,7
 415 824 415 824 415 833.5 c 128,-1,8
 415 843 415 843 463 935 c 0,0,1
298 895 m 2,9,-1
 323 895 l 2,10,11
 345 895 345 895 359 873 c 2,12,-1
 411 785 l 2,13,14
 417 776 417 776 417 768 c 0,15,16
 417 753 417 753 393 753 c 2,17,-1
 391 753 l 2,18,19
 367 753 367 753 358 766 c 2,20,-1
 310 840 l 1,21,-1
 249 766 l 1,22,23
 235 753 235 753 215 753 c 2,24,-1
 213 753 l 2,25,26
 190 753 190 753 190 767 c 0,27,28
 190 774.5 190 774.5 196 785 c 2,29,-1
 252 873 l 2,30,31
 267 895 267 895 298 895 c 2,9,-1
292 702 m 2,32,-1
 321 702 l 2,33,34
 356 702 356 702 361 686 c 2,35,-1
 598 28 l 2,36,37
 601 21 601 21 601 15 c 0,38,39
 601 -2 601 -2 558 -2 c 2,40,-1
 550 -2 l 2,41,42
 515 -2 515 -2 510 14 c 2,43,-1
 451 178 l 1,44,-1
 157 178 l 1,45,-1
 100 14 l 2,46,47
 95 -2 95 -2 60 -2 c 2,48,-1
 55 -2 l 2,49,50
 12 -2 12 -2 12 15 c 0,51,52
 12 20 12 20 15 29 c 2,53,-1
 252 686 l 2,54,55
 257 702 257 702 292 702 c 2,32,-1
307 610 m 1,56,-1
 305 610 l 1,57,58
 297 570 297 570 290 552 c 2,59,-1
 185 254 l 1,60,-1
 424 254 l 1,61,-1
 319 552 l 2,62,63
 314 568 314 568 307 610 c 1,56,-1
EndSplineSet
Position2: "'cpsp' Capital Spacing lookup 0 subtable" dx=5 dy=0 dh=10 dv=0
EndChar

StartChar: Acircumflexdotbelow
Encoding: 7852 7852 11
Width: 613
GlyphClass: 2
Flags: MW
HStem: -175 95<298 326> 178 76<185 424 185 451 157 424> 610 92<305 307 305 305> 682 20G<292 321 321 331> 753 142<201.5 319 209 319 294 402 294 404>
VStem: 270 84<-153 -102 -159.5 -95.5>
AnchorPoint: "Anchor-1" 315 -82 basechar 0
AnchorPoint: "Anchor-0" 310 -203 basechar 0
LayerCount: 2
Fore
SplineSet
294 895 m 2,0,-1
 319 895 l 2,1,2
 350 895 350 895 365 873 c 2,3,-1
 422 785 l 2,4,5
 428 776 428 776 428 768 c 0,6,7
 428 753 428 753 404 753 c 2,8,-1
 402 753 l 2,9,10
 383 753 383 753 369 766 c 1,11,-1
 306 840 l 1,12,-1
 245 766 l 1,13,14
 231 753 231 753 211 753 c 2,15,-1
 209 753 l 2,16,17
 186 753 186 753 186 767 c 0,18,19
 186 774.5 186 774.5 192 785 c 2,20,-1
 248 873 l 2,21,22
 263 895 263 895 294 895 c 2,0,-1
292 702 m 2,23,-1
 321 702 l 2,24,25
 356 702 356 702 361 686 c 2,26,-1
 598 28 l 2,27,28
 601 21 601 21 601 15 c 0,29,30
 601 -2 601 -2 558 -2 c 2,31,-1
 550 -2 l 2,32,33
 515 -2 515 -2 510 14 c 2,34,-1
 451 178 l 1,35,-1
 157 178 l 1,36,-1
 100 14 l 2,37,38
 95 -2 95 -2 60 -2 c 2,39,-1
 55 -2 l 2,40,41
 12 -2 12 -2 12 15 c 0,42,43
 12 20 12 20 15 29 c 2,44,-1
 252 686 l 2,45,46
 257 702 257 702 292 702 c 2,23,-1
307 610 m 1,47,-1
 305 610 l 1,48,49
 297 570 297 570 290 552 c 2,50,-1
 185 254 l 1,51,-1
 424 254 l 1,52,-1
 319 552 l 2,53,54
 314 568 314 568 307 610 c 1,47,-1
270 -102 m 2,55,56
 270 -80 270 -80 312 -80 c 128,-1,57
 354 -80 354 -80 354 -102 c 2,58,-1
 354 -153 l 2,59,60
 354 -175 354 -175 312 -175 c 128,-1,61
 270 -175 270 -175 270 -153 c 2,62,-1
 270 -102 l 2,55,56
EndSplineSet
Position2: "'cpsp' Capital Spacing lookup 0 subtable" dx=5 dy=0 dh=10 dv=0
EndChar

StartChar: Acircumflexgrave
Encoding: 7846 7846 12
Width: 613
GlyphClass: 2
Flags: MW
HStem: 178 76<185 424 185 451 157 424> 610 92<305 307 305 305> 682 20G<292 321 321 331> 753 142<205.5 323 213 323 298 391 298 393>
VStem: 12 589<10 17 10 17>
AnchorPoint: "Anchor-1" 448 829 basechar 0
AnchorPoint: "Anchor-0" 310 0 basechar 0
LayerCount: 2
Fore
SplineSet
368 948 m 0,0,1
 368 961 368 961 405 961 c 128,-1,2
 442 961 442 961 453 935 c 0,3,4
 491 846 491 846 491 834 c 0,5,6
 491 824 491 824 467.5 824 c 128,-1,7
 444 824 444 824 433.5 839.5 c 128,-1,8
 423 855 423 855 415 868 c 128,-1,9
 407 881 407 881 401.5 889.5 c 128,-1,10
 396 898 396 898 390.5 906 c 128,-1,11
 385 914 385 914 382 919 c 128,-1,12
 379 924 379 924 376 928.5 c 128,-1,13
 373 933 373 933 372 935.5 c 128,-1,14
 371 938 371 938 370 940.5 c 0,15,16
 368 945.5 368 945.5 368 948 c 0,0,1
298 895 m 2,17,-1
 323 895 l 2,18,19
 345 895 345 895 359 873 c 2,20,-1
 411 785 l 2,21,22
 417 776 417 776 417 768 c 0,23,24
 417 753 417 753 393 753 c 2,25,-1
 391 753 l 2,26,27
 367 753 367 753 358 766 c 2,28,-1
 310 840 l 1,29,-1
 249 766 l 1,30,31
 235 753 235 753 215 753 c 2,32,-1
 213 753 l 2,33,34
 190 753 190 753 190 767 c 0,35,36
 190 774.5 190 774.5 196 785 c 2,37,-1
 252 873 l 2,38,39
 267 895 267 895 298 895 c 2,17,-1
292 702 m 2,40,-1
 321 702 l 2,41,42
 356 702 356 702 361 686 c 2,43,-1
 598 28 l 2,44,45
 601 21 601 21 601 15 c 0,46,47
 601 -2 601 -2 558 -2 c 2,48,-1
 550 -2 l 2,49,50
 515 -2 515 -2 510 14 c 2,51,-1
 451 178 l 1,52,-1
 157 178 l 1,53,-1
 100 14 l 2,54,55
 95 -2 95 -2 60 -2 c 2,56,-1
 55 -2 l 2,57,58
 12 -2 12 -2 12 15 c 0,59,60
 12 20 12 20 15 29 c 2,61,-1
 252 686 l 2,62,63
 257 702 257 702 292 702 c 2,40,-1
307 610 m 1,64,-1
 305 610 l 1,65,66
 297 570 297 570 290 552 c 2,67,-1
 185 254 l 1,68,-1
 424 254 l 1,69,-1
 319 552 l 2,70,71
 314 568 314 568 307 610 c 1,64,-1
EndSplineSet
Position2: "'cpsp' Capital Spacing lookup 0 subtable" dx=5 dy=0 dh=10 dv=0
EndChar

StartChar: Acircumflexhookabove
Encoding: 7848 7848 13
Width: 613
GlyphClass: 2
Flags: MW
HStem: 178 76<185 424 185 451 157 424> 610 92<305 307 305 305> 682 20G<292 321 321 331> 753 142<205.5 323 213 323 298 391 298 393> 931 48<424.5 444>
VStem: 471 57<897 913>
AnchorPoint: "Anchor-1" 448 829 basechar 0
AnchorPoint: "Anchor-0" 310 0 basechar 0
LayerCount: 2
Fore
SplineSet
471 904 m 0,0,1
 471 931 471 931 434 931 c 0,2,3
 412.833333333 931 412.833333333 931 400.916666667 924.5 c 128,-1,4
 389 918 389 918 388 918 c 0,5,6
 382 918 382 918 373 930.5 c 128,-1,7
 364 943 364 943 364 952 c 128,-1,8
 364 961 364 961 390 970 c 128,-1,9
 416 979 416 979 445 979 c 128,-1,10
 474 979 474 979 501 962.5 c 128,-1,11
 528 946 528 946 528 911 c 128,-1,12
 528 876 528 876 497.5 850.5 c 128,-1,13
 467 825 467 825 452 825 c 128,-1,14
 437 825 437 825 426 831.5 c 128,-1,15
 415 838 415 838 415 845.5 c 128,-1,16
 415 853 415 853 443 868.5 c 128,-1,17
 471 884 471 884 471 904 c 0,0,1
298 895 m 2,18,-1
 323 895 l 2,19,20
 345 895 345 895 359 873 c 2,21,-1
 411 785 l 2,22,23
 417 776 417 776 417 768 c 0,24,25
 417 753 417 753 393 753 c 2,26,-1
 391 753 l 2,27,28
 367 753 367 753 358 766 c 2,29,-1
 310 840 l 1,30,-1
 249 766 l 1,31,32
 235 753 235 753 215 753 c 2,33,-1
 213 753 l 2,34,35
 190 753 190 753 190 767 c 0,36,37
 190 774.5 190 774.5 196 785 c 2,38,-1
 252 873 l 2,39,40
 267 895 267 895 298 895 c 2,18,-1
292 702 m 2,41,-1
 321 702 l 2,42,43
 356 702 356 702 361 686 c 2,44,-1
 598 28 l 2,45,46
 601 21 601 21 601 15 c 0,47,48
 601 -2 601 -2 558 -2 c 2,49,-1
 550 -2 l 2,50,51
 515 -2 515 -2 510 14 c 2,52,-1
 451 178 l 1,53,-1
 157 178 l 1,54,-1
 100 14 l 2,55,56
 95 -2 95 -2 60 -2 c 2,57,-1
 55 -2 l 2,58,59
 12 -2 12 -2 12 15 c 0,60,61
 12 20 12 20 15 29 c 2,62,-1
 252 686 l 2,63,64
 257 702 257 702 292 702 c 2,41,-1
307 610 m 1,65,-1
 305 610 l 1,66,67
 297 570 297 570 290 552 c 2,68,-1
 185 254 l 1,69,-1
 424 254 l 1,70,-1
 319 552 l 2,71,72
 314 568 314 568 307 610 c 1,65,-1
EndSplineSet
Position2: "'cpsp' Capital Spacing lookup 0 subtable" dx=5 dy=0 dh=10 dv=0
EndChar

StartChar: Acircumflextilde
Encoding: 7850 7850 14
Width: 613
GlyphClass: 2
Flags: MW
HStem: 178 76<185 424 185 451 157 424> 610 92<305 307 305 305> 682 20G<292 321 321 331> 753 118<201.5 319 209 319 294 402 294 404> 903 64<355 371.5> 933 64<236.5 253>
VStem: 12 589<10 17 10 17>
AnchorPoint: "Anchor-1" 427 837 basechar 0
AnchorPoint: "Anchor-0" 310 0 basechar 0
LayerCount: 2
Fore
SplineSet
417 990 m 0,0,1
 435 1003 435 1003 450.5 983.5 c 0,2,3
 466 964 466 964 446 944 c 0,4,5
 396 903 396 903 357 903 c 0,6,7
 318 903 318 903 289 918 c 0,8,9
 260 933 260 933 240 933 c 0,10,11
 220 933 220 933 196 915.5 c 0,12,13
 172 898 172 898 157.5 920 c 0,14,15
 143 942 143 942 161 957 c 0,16,17
 213 997 213 997 248 997 c 0,18,19
 283 997 283 997 311 982 c 0,20,21
 339 967 339 967 362.5 967 c 0,22,23
 386 967 386 967 417 990 c 0,0,1
294 871 m 2,24,-1
 319 871 l 2,25,26
 343 871 343 871 365 849 c 1,27,-1
 422 785 l 1,28,29
 428 776 428 776 428 768 c 0,30,31
 428 753 428 753 404 753 c 2,32,-1
 402 753 l 2,33,34
 389 753 389 753 369 766 c 1,35,-1
 306 816 l 1,36,-1
 245 766 l 1,37,38
 226 753 226 753 211 753 c 2,39,-1
 209 753 l 2,40,41
 186 753 186 753 186 767 c 0,42,43
 186 774.5 186 774.5 192 785 c 1,44,-1
 248 849 l 1,45,46
 272 871 272 871 294 871 c 2,24,-1
292 702 m 2,47,-1
 321 702 l 2,48,49
 356 702 356 702 361 686 c 2,50,-1
 598 28 l 2,51,52
 601 21 601 21 601 15 c 0,53,54
 601 -2 601 -2 558 -2 c 2,55,-1
 550 -2 l 2,56,57
 515 -2 515 -2 510 14 c 2,58,-1
 451 178 l 1,59,-1
 157 178 l 1,60,-1
 100 14 l 2,61,62
 95 -2 95 -2 60 -2 c 2,63,-1
 55 -2 l 2,64,65
 12 -2 12 -2 12 15 c 0,66,67
 12 20 12 20 15 29 c 2,68,-1
 252 686 l 2,69,70
 257 702 257 702 292 702 c 2,47,-1
307 610 m 1,71,-1
 305 610 l 1,72,73
 297 570 297 570 290 552 c 2,74,-1
 185 254 l 1,75,-1
 424 254 l 1,76,-1
 319 552 l 2,77,78
 314 568 314 568 307 610 c 1,71,-1
EndSplineSet
Position2: "'cpsp' Capital Spacing lookup 0 subtable" dx=5 dy=0 dh=10 dv=0
EndChar

StartChar: Adieresis
Encoding: 196 196 15
Width: 613
GlyphClass: 2
Flags: MW
HStem: 178 76<185 424 185 451 157 424> 610 92<305 307 305 305> 682 20G<292 321 321 331> 784 95<221 249 365 393>
VStem: 193 84<806 857 799.5 863.5> 337 84<806 857 799.5 863.5>
AnchorPoint: "Anchor-1" 304 877 basechar 0
AnchorPoint: "Anchor-0" 310 0 basechar 0
LayerCount: 2
Fore
SplineSet
193 857 m 2,0,1
 193 879 193 879 235 879 c 128,-1,2
 277 879 277 879 277 857 c 2,3,-1
 277 806 l 2,4,5
 277 784 277 784 235 784 c 128,-1,6
 193 784 193 784 193 806 c 2,7,-1
 193 857 l 2,0,1
337 857 m 2,8,9
 337 879 337 879 379 879 c 128,-1,10
 421 879 421 879 421 857 c 2,11,-1
 421 806 l 2,12,13
 421 784 421 784 379 784 c 128,-1,14
 337 784 337 784 337 806 c 2,15,-1
 337 857 l 2,8,9
292 702 m 2,16,-1
 321 702 l 2,17,18
 356 702 356 702 361 686 c 2,19,-1
 598 28 l 2,20,21
 601 21 601 21 601 15 c 0,22,23
 601 -2 601 -2 558 -2 c 2,24,-1
 550 -2 l 2,25,26
 515 -2 515 -2 510 14 c 2,27,-1
 451 178 l 1,28,-1
 157 178 l 1,29,-1
 100 14 l 2,30,31
 95 -2 95 -2 60 -2 c 2,32,-1
 55 -2 l 2,33,34
 12 -2 12 -2 12 15 c 0,35,36
 12 20 12 20 15 29 c 2,37,-1
 252 686 l 2,38,39
 257 702 257 702 292 702 c 2,16,-1
307 610 m 1,40,-1
 305 610 l 1,41,42
 297 570 297 570 290 552 c 2,43,-1
 185 254 l 1,44,-1
 424 254 l 1,45,-1
 319 552 l 2,46,47
 314 568 314 568 307 610 c 1,40,-1
EndSplineSet
Position2: "'cpsp' Capital Spacing lookup 0 subtable" dx=5 dy=0 dh=10 dv=0
EndChar

StartChar: Adotbelow
Encoding: 7840 7840 16
Width: 613
GlyphClass: 2
Flags: MW
HStem: -175 95<298 326> 178 76<185 424 185 451 157 424> 610 92<305 307 305 305> 682 20G<292 321 321 331>
VStem: 270 84<-153 -102 -159.5 -95.5>
AnchorPoint: "Anchor-1" 315 -82 basechar 0
AnchorPoint: "Anchor-0" 310 -203 basechar 0
LayerCount: 2
Fore
SplineSet
292 702 m 2,0,-1
 321 702 l 2,1,2
 356 702 356 702 361 686 c 2,3,-1
 598 28 l 2,4,5
 601 21 601 21 601 15 c 0,6,7
 601 -2 601 -2 558 -2 c 2,8,-1
 550 -2 l 2,9,10
 515 -2 515 -2 510 14 c 2,11,-1
 451 178 l 1,12,-1
 157 178 l 1,13,-1
 100 14 l 2,14,15
 95 -2 95 -2 60 -2 c 2,16,-1
 55 -2 l 2,17,18
 12 -2 12 -2 12 15 c 0,19,20
 12 20 12 20 15 29 c 2,21,-1
 252 686 l 2,22,23
 257 702 257 702 292 702 c 2,0,-1
307 610 m 1,24,-1
 305 610 l 1,25,26
 297 570 297 570 290 552 c 2,27,-1
 185 254 l 1,28,-1
 424 254 l 1,29,-1
 319 552 l 2,30,31
 314 568 314 568 307 610 c 1,24,-1
270 -102 m 2,32,33
 270 -80 270 -80 312 -80 c 128,-1,34
 354 -80 354 -80 354 -102 c 2,35,-1
 354 -153 l 2,36,37
 354 -175 354 -175 312 -175 c 128,-1,38
 270 -175 270 -175 270 -153 c 2,39,-1
 270 -102 l 2,32,33
EndSplineSet
Position2: "'cpsp' Capital Spacing lookup 0 subtable" dx=5 dy=0 dh=10 dv=0
EndChar

StartChar: Agrave
Encoding: 192 192 17
Width: 613
GlyphClass: 2
Flags: MW
HStem: 178 76<185 424 185 451 157 424> 610 92<305 307 305 305> 682 20G<292 321 321 331>
VStem: 12 589<10 17 10 17>
AnchorPoint: "Anchor-1" 302 877 basechar 0
AnchorPoint: "Anchor-0" 310 0 basechar 0
LayerCount: 2
Fore
SplineSet
189 896 m 0,0,1
 189 909 189 909 236.5 909 c 128,-1,2
 284 909 284 909 299 883 c 0,3,4
 357 782 357 782 357 772 c 128,-1,5
 357 762 357 762 328.5 762 c 128,-1,6
 300 762 300 762 283 780 c 0,7,8
 194.917556813 880.665649357 194.917556813 880.665649357 191.958778406 886.46367756 c 128,-1,9
 189 892.261705764 189 892.261705764 189 896 c 0,0,1
292 702 m 2,10,-1
 321 702 l 2,11,12
 356 702 356 702 361 686 c 2,13,-1
 598 28 l 2,14,15
 601 21 601 21 601 15 c 0,16,17
 601 -2 601 -2 558 -2 c 2,18,-1
 550 -2 l 2,19,20
 515 -2 515 -2 510 14 c 2,21,-1
 451 178 l 1,22,-1
 157 178 l 1,23,-1
 100 14 l 2,24,25
 95 -2 95 -2 60 -2 c 2,26,-1
 55 -2 l 2,27,28
 12 -2 12 -2 12 15 c 0,29,30
 12 20 12 20 15 29 c 2,31,-1
 252 686 l 2,32,33
 257 702 257 702 292 702 c 2,10,-1
307 610 m 1,34,-1
 305 610 l 1,35,36
 297 570 297 570 290 552 c 2,37,-1
 185 254 l 1,38,-1
 424 254 l 1,39,-1
 319 552 l 2,40,41
 314 568 314 568 307 610 c 1,34,-1
EndSplineSet
Position2: "'cpsp' Capital Spacing lookup 0 subtable" dx=5 dy=0 dh=10 dv=0
EndChar

StartChar: Ahookabove
Encoding: 7842 7842 18
Width: 613
GlyphClass: 2
Flags: MW
HStem: 178 76<185 424 185 451 157 424> 610 92<305 307 305 305> 682 20G<292 321 321 331> 876 51<296.5 316>
VStem: 343 62<824 858>
AnchorPoint: "Anchor-1" 308 877 basechar 0
AnchorPoint: "Anchor-0" 310 0 basechar 0
LayerCount: 2
Fore
SplineSet
343 849 m 0,0,1
 343 876 343 876 306 876 c 0,2,3
 281.428571429 876 281.428571429 876 271.214285714 869.5 c 128,-1,4
 261 863 261 863 260 863 c 0,5,6
 254 863 254 863 245 875.5 c 128,-1,7
 236 888 236 888 236 897 c 128,-1,8
 236 906 236 906 262 916.5 c 128,-1,9
 288 927 288 927 317.5 927 c 128,-1,10
 347 927 347 927 376 910 c 128,-1,11
 405 893 405 893 405 853 c 128,-1,12
 405 813 405 813 367.5 776.5 c 128,-1,13
 330 740 330 740 314 740 c 0,14,15
 306 740 306 740 293.5 745.5 c 128,-1,16
 281 751 281 751 281 759.5 c 128,-1,17
 281 768 281 768 296.5 781 c 128,-1,18
 312 794 312 794 327.5 811 c 128,-1,19
 343 828 343 828 343 849 c 0,0,1
292 702 m 2,20,-1
 321 702 l 2,21,22
 356 702 356 702 361 686 c 2,23,-1
 598 28 l 2,24,25
 601 21 601 21 601 15 c 0,26,27
 601 -2 601 -2 558 -2 c 2,28,-1
 550 -2 l 2,29,30
 515 -2 515 -2 510 14 c 2,31,-1
 451 178 l 1,32,-1
 157 178 l 1,33,-1
 100 14 l 2,34,35
 95 -2 95 -2 60 -2 c 2,36,-1
 55 -2 l 2,37,38
 12 -2 12 -2 12 15 c 0,39,40
 12 20 12 20 15 29 c 2,41,-1
 252 686 l 2,42,43
 257 702 257 702 292 702 c 2,20,-1
307 610 m 1,44,-1
 305 610 l 1,45,46
 297 570 297 570 290 552 c 2,47,-1
 185 254 l 1,48,-1
 424 254 l 1,49,-1
 319 552 l 2,50,51
 314 568 314 568 307 610 c 1,44,-1
EndSplineSet
Position2: "'cpsp' Capital Spacing lookup 0 subtable" dx=5 dy=0 dh=10 dv=0
EndChar

StartChar: Amacron
Encoding: 256 256 19
Width: 613
GlyphClass: 2
Flags: MW
HStem: 178 76<185 424 185 451 157 424> 610 92<305 307 305 305> 682 20G<292 321 321 331> 789 70<189 419 196 419>
VStem: 12 589<10 17 10 17>
AnchorPoint: "Anchor-1" 306 877 basechar 0
AnchorPoint: "Anchor-0" 310 0 basechar 0
LayerCount: 2
Fore
SplineSet
196 859 m 2,0,-1
 419 859 l 2,1,2
 439 859 439 859 439 829 c 2,3,-1
 439 819 l 2,4,5
 439 789 439 789 419 789 c 2,6,-1
 196 789 l 2,7,8
 176 789 176 789 176 819 c 2,9,-1
 176 829 l 2,10,11
 176 859 176 859 196 859 c 2,0,-1
292 702 m 2,12,-1
 321 702 l 2,13,14
 356 702 356 702 361 686 c 2,15,-1
 598 28 l 2,16,17
 601 21 601 21 601 15 c 0,18,19
 601 -2 601 -2 558 -2 c 2,20,-1
 550 -2 l 2,21,22
 515 -2 515 -2 510 14 c 2,23,-1
 451 178 l 1,24,-1
 157 178 l 1,25,-1
 100 14 l 2,26,27
 95 -2 95 -2 60 -2 c 2,28,-1
 55 -2 l 2,29,30
 12 -2 12 -2 12 15 c 0,31,32
 12 20 12 20 15 29 c 2,33,-1
 252 686 l 2,34,35
 257 702 257 702 292 702 c 2,12,-1
307 610 m 1,36,-1
 305 610 l 1,37,38
 297 570 297 570 290 552 c 2,39,-1
 185 254 l 1,40,-1
 424 254 l 1,41,-1
 319 552 l 2,42,43
 314 568 314 568 307 610 c 1,36,-1
EndSplineSet
Position2: "'cpsp' Capital Spacing lookup 0 subtable" dx=5 dy=0 dh=10 dv=0
EndChar

StartChar: Aogonek
Encoding: 260 260 20
Width: 613
GlyphClass: 2
Flags: MW
HStem: -183 70<622.5 641.5 622.5 648> 178 76<185 424 185 451 157 424> 610 92<305 307 305 305> 682 20G<292 321 321 331>
VStem: 505 67<-86 -71>
AnchorPoint: "Anchor-1" 307 700 basechar 0
AnchorPoint: "Anchor-0" 497 -203 basechar 0
LayerCount: 2
Fore
SplineSet
634 -113 m 1,0,-1
 686 -103 l 1,1,2
 705 -103 705 -103 705 -131.5 c 128,-1,3
 705 -160 705 -160 684.5 -171.5 c 128,-1,4
 664 -183 664 -183 625 -183 c 128,-1,5
 586 -183 586 -183 560 -171.5 c 128,-1,6
 534 -160 534 -160 523.5 -142 c 0,7,8
 505 -110.285714286 505 -110.285714286 505 -81 c 0,9,10
 505 -24 505 -24 530 0 c 1,11,12
 514 3 514 3 510 14 c 2,13,-1
 451 178 l 1,14,-1
 157 178 l 1,15,-1
 100 14 l 2,16,17
 95 -2 95 -2 60 -2 c 2,18,-1
 55 -2 l 2,19,20
 12 -2 12 -2 12 15 c 0,21,22
 12 20 12 20 15 29 c 2,23,-1
 252 686 l 2,24,25
 257 702 257 702 292 702 c 2,26,-1
 321 702 l 2,27,28
 356 702 356 702 361 686 c 2,29,-1
 598 28 l 2,30,31
 601 21 601 21 601 15 c 0,32,33
 601 4 601 4 584 1 c 1,34,-1
 584 -1 l 2,35,36
 584 -7 584 -7 578 -28 c 128,-1,37
 572 -49 572 -49 572 -62 c 0,38,39
 572 -113 572 -113 634 -113 c 1,0,-1
424 254 m 1,40,-1
 319 552 l 2,41,42
 314 568 314 568 307 610 c 1,43,-1
 305 610 l 1,44,45
 297 570 297 570 290 552 c 2,46,-1
 185 254 l 1,47,-1
 424 254 l 1,40,-1
EndSplineSet
Position2: "'cpsp' Capital Spacing lookup 0 subtable" dx=5 dy=0 dh=10 dv=0
EndChar

StartChar: Aring
Encoding: 197 197 21
Width: 613
GlyphClass: 2
Flags: MW
HStem: 178 76<185 424 185 451 157 424> 610 92<305 307 305 305> 682 20G<292 321 321 331> 741 35<293 321 293 330.5> 875 35<293 321>
VStem: 223 35<811 839 811 848.5> 357 35<811 839>
AnchorPoint: "Anchor-1" 307 877 basechar 0
AnchorPoint: "Anchor-0" 310 0 basechar 0
LayerCount: 2
Fore
SplineSet
307 910 m 128,-1,1
 342 910 342 910 367 885 c 128,-1,2
 392 860 392 860 392 825 c 128,-1,3
 392 790 392 790 367 765.5 c 128,-1,4
 342 741 342 741 307 741 c 128,-1,5
 272 741 272 741 247.5 765.5 c 128,-1,6
 223 790 223 790 223 825 c 128,-1,7
 223 860 223 860 247.5 885 c 128,-1,0
 272 910 272 910 307 910 c 128,-1,1
307 875 m 128,-1,9
 286 875 286 875 272 860.5 c 128,-1,10
 258 846 258 846 258 825 c 128,-1,11
 258 804 258 804 272 790 c 128,-1,12
 286 776 286 776 307 776 c 128,-1,13
 328 776 328 776 342.5 790 c 128,-1,14
 357 804 357 804 357 825 c 128,-1,15
 357 846 357 846 342.5 860.5 c 128,-1,8
 328 875 328 875 307 875 c 128,-1,9
292 702 m 2,16,-1
 321 702 l 2,17,18
 356 702 356 702 361 686 c 2,19,-1
 598 28 l 2,20,21
 601 21 601 21 601 15 c 0,22,23
 601 -2 601 -2 558 -2 c 2,24,-1
 550 -2 l 2,25,26
 515 -2 515 -2 510 14 c 2,27,-1
 451 178 l 1,28,-1
 157 178 l 1,29,-1
 100 14 l 2,30,31
 95 -2 95 -2 60 -2 c 2,32,-1
 55 -2 l 2,33,34
 12 -2 12 -2 12 15 c 0,35,36
 12 20 12 20 15 29 c 2,37,-1
 252 686 l 2,38,39
 257 702 257 702 292 702 c 2,16,-1
307 610 m 1,40,-1
 305 610 l 1,41,42
 297 570 297 570 290 552 c 2,43,-1
 185 254 l 1,44,-1
 424 254 l 1,45,-1
 319 552 l 2,46,47
 314 568 314 568 307 610 c 1,40,-1
EndSplineSet
Position2: "'cpsp' Capital Spacing lookup 0 subtable" dx=5 dy=0 dh=10 dv=0
EndChar

StartChar: Aringacute
Encoding: 506 506 22
Width: 613
GlyphClass: 2
Flags: MW
HStem: 178 76<185 424 185 451 157 424> 610 49<305 307 305 305> 758 35<293 321> 822 107<282 382>
VStem: 223 35<698 722 694 731.5> 357 35<697.5 722>
AnchorPoint: "Anchor-1" 307 760 basechar 0
AnchorPoint: "Anchor-0" 0 0 basechar 0
LayerCount: 2
Fore
SplineSet
360.5 859.5 m 2,0,1
 351 850 351 850 337.5 836 c 128,-1,2
 324 822 324 822 295.5 822 c 128,-1,3
 267 822 267 822 267 832 c 1,4,5
 286 870 286 870 302 899.5 c 128,-1,6
 318 929 318 929 366 929 c 128,-1,7
 414 929 414 929 414 916 c 0,8,9
 414 912 414 912 407.5 905.5 c 2,10,-1
 397.5 895.5 l 2,11,12
 394 892 394 892 388 886.5 c 128,-1,13
 382 881 382 881 376 875 c 2,14,15
 360.5 859.5 l 2,0,1
372 654 m 1,16,-1
 598 28 l 2,17,18
 601 21 601 21 601 15 c 0,19,20
 601 -2 601 -2 558 -2 c 2,21,-1
 550 -2 l 2,22,23
 515 -2 515 -2 510 14 c 2,24,-1
 451 178 l 1,25,-1
 157 178 l 1,26,-1
 100 14 l 2,27,28
 95 -2 95 -2 60 -2 c 2,29,-1
 55 -2 l 2,30,31
 12 -2 12 -2 12 15 c 0,32,33
 12 20 12 20 15 29 c 2,34,-1
 241 656 l 1,35,36
 223 679 223 679 223 711 c 128,-1,37
 223 743 223 743 247.5 768 c 128,-1,38
 272 793 272 793 307 793 c 128,-1,39
 342 793 342 793 367 768 c 128,-1,40
 392 743 392 743 392 710 c 128,-1,41
 392 677 392 677 372 654 c 1,16,-1
307 758 m 128,-1,43
 286 758 286 758 272 743.5 c 128,-1,44
 258 729 258 729 258 708 c 128,-1,45
 258 687 258 687 272 673 c 128,-1,46
 286 659 286 659 307 659 c 128,-1,47
 328 659 328 659 342.5 673 c 128,-1,48
 357 687 357 687 357 708 c 128,-1,49
 357 729 357 729 342.5 743.5 c 128,-1,42
 328 758 328 758 307 758 c 128,-1,43
424 254 m 1,50,-1
 319 552 l 2,51,52
 314 568 314 568 307 610 c 1,53,-1
 305 610 l 1,54,55
 297 570 297 570 290 552 c 2,56,-1
 185 254 l 1,57,-1
 424 254 l 1,50,-1
EndSplineSet
Position2: "'cpsp' Capital Spacing lookup 0 subtable" dx=5 dy=0 dh=10 dv=0
EndChar

StartChar: Atilde
Encoding: 195 195 23
Width: 613
GlyphClass: 2
Flags: MW
HStem: 178 76<185 424 185 451 157 424> 610 92<305 307 305 305> 682 20G<292 321 321 331> 762 64<364 381.5> 792 64<233.5 251.5>
VStem: 12 589<10 17 10 17>
AnchorPoint: "Anchor-1" 317 877 basechar 0
AnchorPoint: "Anchor-0" 310 0 basechar 0
LayerCount: 2
Fore
SplineSet
432 849 m 0,0,1
 451 862 451 862 468 842 c 0,2,3
 485 822 485 822 464 803 c 0,4,5
 408 762 408 762 365 762 c 0,6,7
 322 762 322 762 290 777 c 0,8,9
 258 792 258 792 237 792 c 0,10,11
 216 792 216 792 189.5 774.5 c 0,12,13
 163 757 163 757 146.5 779.5 c 0,14,15
 130 802 130 802 150 816 c 0,16,17
 208 856 208 856 247 856 c 0,18,19
 286 856 286 856 316 841 c 0,20,21
 346 826 346 826 372 826 c 0,22,23
 398 826 398 826 432 849 c 0,0,1
292 702 m 2,24,-1
 321 702 l 2,25,26
 356 702 356 702 361 686 c 2,27,-1
 598 28 l 2,28,29
 601 21 601 21 601 15 c 0,30,31
 601 -2 601 -2 558 -2 c 2,32,-1
 550 -2 l 2,33,34
 515 -2 515 -2 510 14 c 2,35,-1
 451 178 l 1,36,-1
 157 178 l 1,37,-1
 100 14 l 2,38,39
 95 -2 95 -2 60 -2 c 2,40,-1
 55 -2 l 2,41,42
 12 -2 12 -2 12 15 c 0,43,44
 12 20 12 20 15 29 c 2,45,-1
 252 686 l 2,46,47
 257 702 257 702 292 702 c 2,24,-1
307 610 m 1,48,-1
 305 610 l 1,49,50
 297 570 297 570 290 552 c 2,51,-1
 185 254 l 1,52,-1
 424 254 l 1,53,-1
 319 552 l 2,54,55
 314 568 314 568 307 610 c 1,48,-1
EndSplineSet
Position2: "'cpsp' Capital Spacing lookup 0 subtable" dx=5 dy=0 dh=10 dv=0
EndChar

StartChar: AE
Encoding: 198 198 24
Width: 915
GlyphClass: 2
Flags: MW
HStem: 0 76<505.5 803 559 803 559 803> 178 75<192 431 192 448 153 431> 320 76<506 772 506 506> 624 76<440 802 440 440>
VStem: -11 834<9.5 30>
AnchorPoint: "Anchor-1" 458 700 basechar 0
AnchorPoint: "Anchor-0" 0 0 basechar 0
LayerCount: 2
Fore
SplineSet
357 700 m 2,0,-1
 802 700 l 2,1,2
 822 700 822 700 822 670 c 2,3,-1
 822 654 l 2,4,5
 822 624 822 624 802 624 c 2,6,-1
 440 624 l 1,7,-1
 490 396 l 1,8,-1
 772 396 l 2,9,10
 792 396 792 396 792 366 c 2,11,-1
 792 350 l 2,12,13
 792 320 792 320 772 320 c 2,14,-1
 506 320 l 1,15,-1
 559 76 l 1,16,-1
 803 76 l 2,17,18
 823 76 823 76 823 46 c 2,19,-1
 823 30 l 2,20,21
 823 0 823 0 803 0 c 2,22,-1
 516 0 l 2,23,24
 486 0 486 0 480 29 c 2,25,-1
 448 178 l 1,26,-1
 153 178 l 1,27,-1
 73 14 l 1,28,29
 64 -2 64 -2 33 -2 c 2,30,-1
 28 -2 l 2,31,32
 -11 -2 -11 -2 -11 15 c 0,33,34
 -11 23 -11 23 -7 31 c 2,35,-1
 314 673 l 2,36,37
 327 700 327 700 357 700 c 2,0,-1
361 610 m 1,38,-1
 340 552 l 1,39,-1
 192 253 l 1,40,-1
 431 253 l 1,41,-1
 367 552 l 1,42,-1
 363 610 l 1,43,-1
 361 610 l 1,38,-1
EndSplineSet
Position2: "'cpsp' Capital Spacing lookup 0 subtable" dx=5 dy=0 dh=10 dv=0
EndChar

StartChar: AEacute
Encoding: 508 508 25
Width: 915
GlyphClass: 2
Flags: MW
HStem: 0 76<505.5 803 559 803 559 803> 178 75<192 431 192 448 153 431> 320 76<506 772 506 506> 624 76<440 802 440 440>
VStem: -11 834<9.5 30>
AnchorPoint: "Anchor-1" 464 877 basechar 0
AnchorPoint: "Anchor-0" 0 0 basechar 0
LayerCount: 2
Fore
SplineSet
476 883 m 0,0,1
 491 909 491 909 538.5 909 c 128,-1,2
 586 909 586 909 586 896 c 0,3,4
 586 889 586 889 576.5 877 c 128,-1,5
 567 865 567 865 537 831 c 2,6,-1
 492 780 l 2,7,8
 475 762 475 762 446.5 762 c 128,-1,9
 418 762 418 762 418 772 c 128,-1,10
 418 782 418 782 476 883 c 0,0,1
357 700 m 2,11,-1
 802 700 l 2,12,13
 822 700 822 700 822 670 c 2,14,-1
 822 654 l 2,15,16
 822 624 822 624 802 624 c 2,17,-1
 440 624 l 1,18,-1
 490 396 l 1,19,-1
 772 396 l 2,20,21
 792 396 792 396 792 366 c 2,22,-1
 792 350 l 2,23,24
 792 320 792 320 772 320 c 2,25,-1
 506 320 l 1,26,-1
 559 76 l 1,27,-1
 803 76 l 2,28,29
 823 76 823 76 823 46 c 2,30,-1
 823 30 l 2,31,32
 823 0 823 0 803 0 c 2,33,-1
 516 0 l 2,34,35
 486 0 486 0 480 29 c 2,36,-1
 448 178 l 1,37,-1
 153 178 l 1,38,-1
 73 14 l 1,39,40
 64 -2 64 -2 33 -2 c 2,41,-1
 28 -2 l 2,42,43
 -11 -2 -11 -2 -11 15 c 0,44,45
 -11 23 -11 23 -7 31 c 2,46,-1
 314 673 l 2,47,48
 327 700 327 700 357 700 c 2,11,-1
361 610 m 1,49,-1
 340 552 l 1,50,-1
 192 253 l 1,51,-1
 431 253 l 1,52,-1
 367 552 l 1,53,-1
 363 610 l 1,54,-1
 361 610 l 1,49,-1
EndSplineSet
Position2: "'cpsp' Capital Spacing lookup 0 subtable" dx=5 dy=0 dh=10 dv=0
EndChar

StartChar: B
Encoding: 66 66 26
Width: 593
GlyphClass: 2
Flags: MW
HStem: 0 76<116.5 331 185 299> 322 76<185 301 185 301 301 314> 624 76<185 185 185 297>
VStem: 97 88<76 322 398 624> 439 91<489.5 552> 469 91<165.5 241.5>
LayerCount: 2
Fore
SplineSet
127 700 m 2,0,-1
 306 700 l 2,1,2
 415 700 415 700 472.5 652 c 128,-1,3
 530 604 530 604 530 523 c 0,4,5
 530 473 530 473 497 428 c 128,-1,6
 464 383 464 383 420 371 c 1,7,-1
 420 367 l 1,8,9
 434.777777778 364.537037037 434.777777778 364.537037037 463.888888889 348.768518519 c 128,-1,10
 493 333 493 333 511.5 316.5 c 128,-1,11
 530 300 530 300 545 269 c 128,-1,12
 560 238 560 238 560 201 c 0,13,14
 560 0 560 0 299 0 c 2,15,-1
 127 0 l 2,16,17
 97 0 97 0 97 30 c 2,18,-1
 97 670 l 2,19,20
 97 700 97 700 127 700 c 2,0,-1
185 624 m 1,21,-1
 185 398 l 1,22,-1
 301 398 l 2,23,24
 361 398 361 398 400 432 c 128,-1,25
 439 466 439 466 439 518.5 c 128,-1,26
 439 571 439 571 405 597.5 c 128,-1,27
 371 624 371 624 297 624 c 2,28,-1
 185 624 l 1,21,-1
185 322 m 1,29,-1
 185 76 l 1,30,-1
 331 76 l 2,31,32
 397 76 397 76 433 110.5 c 128,-1,33
 469 145 469 145 469 203 c 128,-1,34
 469 261 469 261 429.5 291.5 c 128,-1,35
 390 322 390 322 314 322 c 2,36,-1
 185 322 l 1,29,-1
EndSplineSet
Position2: "'cpsp' Capital Spacing lookup 0 subtable" dx=5 dy=0 dh=10 dv=0
EndChar

StartChar: C
Encoding: 67 67 27
Width: 619
GlyphClass: 2
Flags: MW
HStem: -6 76<300.5 430.5 300.5 437.5> 630 76<303 430.5 274 431>
VStem: 57 91<253 447.5 253 469.5>
AnchorPoint: "Anchor-1" 355 700 basechar 0
AnchorPoint: "Anchor-0" 361 0 basechar 0
LayerCount: 2
Fore
SplineSet
381 706 m 0,0,1
 453 706 453 706 512.5 685.5 c 128,-1,2
 572 665 572 665 572 644 c 0,3,4
 572 630 572 630 559.5 608 c 128,-1,5
 547 586 547 586 538 586 c 0,6,7
 536 586 536 586 516.5 597 c 128,-1,8
 497 608 497 608 461 619 c 128,-1,9
 425 630 425 630 383 630 c 0,10,11
 262 630 262 630 205 563 c 128,-1,12
 148 496 148 496 148 350.5 c 0,13,14
 148 205 148 205 204.5 137.5 c 128,-1,15
 261 70 261 70 379 70 c 0,16,17
 424 70 424 70 464 82.5 c 128,-1,18
 504 95 504 95 526 107.5 c 128,-1,19
 548 120 548 120 551 120 c 0,20,21
 560 120 560 120 573 98 c 128,-1,22
 586 76 586 76 586 66 c 0,23,24
 586 43 586 43 523.5 18.5 c 128,-1,25
 461 -6 461 -6 379 -6 c 0,26,27
 214 -6 214 -6 135.5 80.5 c 128,-1,28
 57 167 57 167 57 350 c 0,29,30
 57 706 57 706 381 706 c 0,0,1
EndSplineSet
Position2: "'cpsp' Capital Spacing lookup 0 subtable" dx=5 dy=0 dh=10 dv=0
EndChar

StartChar: Cacute
Encoding: 262 262 28
Width: 619
GlyphClass: 2
Flags: MW
HStem: -6 76<300.5 430.5 300.5 437.5> 630 76<303 430.5 274 431>
VStem: 57 91<253 447.5 253 469.5>
AnchorPoint: "Anchor-1" 361 877 basechar 0
AnchorPoint: "Anchor-0" 361 0 basechar 0
LayerCount: 2
Fore
SplineSet
373 883 m 0,0,1
 388 909 388 909 435.5 909 c 128,-1,2
 483 909 483 909 483 896 c 0,3,4
 483 889 483 889 473.5 877 c 128,-1,5
 464 865 464 865 434 831 c 2,6,-1
 389 780 l 2,7,8
 372 762 372 762 343.5 762 c 128,-1,9
 315 762 315 762 315 772 c 128,-1,10
 315 782 315 782 373 883 c 0,0,1
381 706 m 0,11,12
 453 706 453 706 512.5 685.5 c 128,-1,13
 572 665 572 665 572 644 c 0,14,15
 572 630 572 630 559.5 608 c 128,-1,16
 547 586 547 586 538 586 c 0,17,18
 536 586 536 586 516.5 597 c 128,-1,19
 497 608 497 608 461 619 c 128,-1,20
 425 630 425 630 383 630 c 0,21,22
 262 630 262 630 205 563 c 128,-1,23
 148 496 148 496 148 350.5 c 128,-1,24
 148 205 148 205 204.5 137.5 c 128,-1,25
 261 70 261 70 379 70 c 0,26,27
 424 70 424 70 464 82.5 c 128,-1,28
 504 95 504 95 526 107.5 c 128,-1,29
 548 120 548 120 551 120 c 0,30,31
 560 120 560 120 573 98 c 128,-1,32
 586 76 586 76 586 66 c 0,33,34
 586 43 586 43 523.5 18.5 c 128,-1,35
 461 -6 461 -6 379 -6 c 0,36,37
 214 -6 214 -6 135.5 80.5 c 128,-1,38
 57 167 57 167 57 350 c 0,39,40
 57 706 57 706 381 706 c 0,11,12
EndSplineSet
Substitution2: "'locl' Localized Forms in Latin lookup 11 subtable" Cacute.loclPLK
Substitution2: "'aalt' Access All Alternates lookup 0 subtable" Cacute.loclPLK
Position2: "'cpsp' Capital Spacing lookup 0 subtable" dx=5 dy=0 dh=10 dv=0
EndChar

StartChar: Ccaron
Encoding: 268 268 29
Width: 619
GlyphClass: 2
Flags: MW
HStem: -6 76<300.5 430.5 300.5 437.5> 630 76<303 430.5 274 431> 759 142<257 342 257 367>
VStem: 57 91<253 447.5 253 469.5>
AnchorPoint: "Anchor-1" 356 877 basechar 0
AnchorPoint: "Anchor-0" 361 0 basechar 0
LayerCount: 2
Fore
SplineSet
450 901 m 2,0,-1
 452 901 l 2,1,2
 476 901 476 901 476 886 c 0,3,4
 476 878 476 878 470 869 c 2,5,-1
 413 781 l 2,6,7
 398 759 398 759 367 759 c 2,8,-1
 342 759 l 2,9,10
 311 759 311 759 296 781 c 2,11,-1
 240 869 l 2,12,13
 234 879.5 234 879.5 234 887 c 0,14,15
 234 901 234 901 257 901 c 2,16,-1
 259 901 l 2,17,18
 279 901 279 901 293 888 c 1,19,-1
 354 814 l 1,20,-1
 417 888 l 1,21,22
 431 901 431 901 450 901 c 2,0,-1
381 706 m 0,23,24
 453 706 453 706 512.5 685.5 c 128,-1,25
 572 665 572 665 572 644 c 0,26,27
 572 630 572 630 559.5 608 c 128,-1,28
 547 586 547 586 538 586 c 0,29,30
 536 586 536 586 516.5 597 c 128,-1,31
 497 608 497 608 461 619 c 128,-1,32
 425 630 425 630 383 630 c 0,33,34
 262 630 262 630 205 563 c 128,-1,35
 148 496 148 496 148 350.5 c 0,36,37
 148 205 148 205 204.5 137.5 c 128,-1,38
 261 70 261 70 379 70 c 0,39,40
 424 70 424 70 464 82.5 c 128,-1,41
 504 95 504 95 526 107.5 c 128,-1,42
 548 120 548 120 551 120 c 0,43,44
 560 120 560 120 573 98 c 128,-1,45
 586 76 586 76 586 66 c 0,46,47
 586 43 586 43 523.5 18.5 c 128,-1,48
 461 -6 461 -6 379 -6 c 0,49,50
 214 -6 214 -6 135.5 80.5 c 128,-1,51
 57 167 57 167 57 350 c 0,52,53
 57 706 57 706 381 706 c 0,23,24
EndSplineSet
Position2: "'cpsp' Capital Spacing lookup 0 subtable" dx=5 dy=0 dh=10 dv=0
EndChar

StartChar: Ccedilla
Encoding: 199 199 30
Width: 619
GlyphClass: 2
Flags: MW
HStem: -210 49<322.5 344 313 370> -6 76<383 383> 630 76<303 430.5 274 431>
VStem: 57 91<253 447.5 253 469.5> 389 71<-141.5 -103.5>
AnchorPoint: "Anchor-1" 355 700 basechar 0
AnchorPoint: "Anchor-0" 341 -203 basechar 0
LayerCount: 2
Fore
SplineSet
586 66 m 0,0,1
 586 44 586 44 525 19.5 c 128,-1,2
 464 -5 464 -5 383 -6 c 1,3,-1
 371 -49 l 1,4,-1
 375 -49 l 2,5,6
 391 -49 391 -49 407.5 -52.5 c 128,-1,7
 424 -56 424 -56 442 -73.5 c 128,-1,8
 460 -91 460 -91 460 -121 c 0,9,10
 460 -210 460 -210 345 -210 c 0,11,12
 306 -210 306 -210 268 -198 c 128,-1,13
 230 -186 230 -186 230 -167 c 0,14,15
 230 -141 230 -141 249 -141 c 0,16,17
 254 -141 254 -141 282 -151 c 128,-1,18
 310 -161 310 -161 332 -161 c 0,19,20
 389 -161 389 -161 389 -126 c 0,21,22
 389 -107 389 -107 372.5 -98 c 128,-1,23
 356 -89 356 -89 339.5 -84 c 128,-1,24
 323 -79 323 -79 323 -69 c 0,25,26
 323 -59 323 -59 340 -5 c 1,27,28
 196 5 196 5 126.5 91.5 c 128,-1,29
 57 178 57 178 57 350 c 0,30,31
 57 706 57 706 381 706 c 0,32,33
 453 706 453 706 512.5 685.5 c 128,-1,34
 572 665 572 665 572 644 c 0,35,36
 572 630 572 630 559.5 608 c 128,-1,37
 547 586 547 586 538 586 c 0,38,39
 536 586 536 586 516.5 597 c 128,-1,40
 497 608 497 608 461 619 c 128,-1,41
 425 630 425 630 383 630 c 0,42,43
 262 630 262 630 205 563 c 128,-1,44
 148 496 148 496 148 350.5 c 0,45,46
 148 205 148 205 204.5 137.5 c 128,-1,47
 261 70 261 70 379 70 c 0,48,49
 424 70 424 70 464 82.5 c 128,-1,50
 504 95 504 95 526 107.5 c 128,-1,51
 548 120 548 120 551 120 c 0,52,53
 560 120 560 120 573 98 c 128,-1,54
 586 76 586 76 586 66 c 0,0,1
EndSplineSet
Position2: "'cpsp' Capital Spacing lookup 0 subtable" dx=5 dy=0 dh=10 dv=0
EndChar

StartChar: Ccircumflex
Encoding: 264 264 31
Width: 619
GlyphClass: 2
Flags: MW
HStem: -6 76<300.5 430.5 300.5 437.5> 630 76<303 430.5 274 431> 753 142<249.5 367 257 367 342 450 342 452>
VStem: 57 91<253 447.5 253 469.5>
AnchorPoint: "Anchor-1" 514 793 basechar 0
AnchorPoint: "Anchor-0" 361 0 basechar 0
LayerCount: 2
Fore
SplineSet
342 895 m 2,0,-1
 367 895 l 2,1,2
 398 895 398 895 413 873 c 2,3,-1
 470 785 l 2,4,5
 476 776 476 776 476 768 c 0,6,7
 476 753 476 753 452 753 c 2,8,-1
 450 753 l 2,9,10
 431 753 431 753 417 766 c 1,11,-1
 354 840 l 1,12,-1
 293 766 l 1,13,14
 279 753 279 753 259 753 c 2,15,-1
 257 753 l 2,16,17
 234 753 234 753 234 767 c 0,18,19
 234 774.5 234 774.5 240 785 c 2,20,-1
 296 873 l 2,21,22
 311 895 311 895 342 895 c 2,0,-1
381 706 m 0,23,24
 453 706 453 706 512.5 685.5 c 128,-1,25
 572 665 572 665 572 644 c 0,26,27
 572 630 572 630 559.5 608 c 128,-1,28
 547 586 547 586 538 586 c 0,29,30
 536 586 536 586 516.5 597 c 128,-1,31
 497 608 497 608 461 619 c 128,-1,32
 425 630 425 630 383 630 c 0,33,34
 262 630 262 630 205 563 c 128,-1,35
 148 496 148 496 148 350.5 c 0,36,37
 148 205 148 205 204.5 137.5 c 128,-1,38
 261 70 261 70 379 70 c 0,39,40
 424 70 424 70 464 82.5 c 128,-1,41
 504 95 504 95 526 107.5 c 128,-1,42
 548 120 548 120 551 120 c 0,43,44
 560 120 560 120 573 98 c 128,-1,45
 586 76 586 76 586 66 c 0,46,47
 586 43 586 43 523.5 18.5 c 128,-1,48
 461 -6 461 -6 379 -6 c 0,49,50
 214 -6 214 -6 135.5 80.5 c 128,-1,51
 57 167 57 167 57 350 c 0,52,53
 57 706 57 706 381 706 c 0,23,24
EndSplineSet
Position2: "'cpsp' Capital Spacing lookup 0 subtable" dx=5 dy=0 dh=10 dv=0
EndChar

StartChar: Cdotaccent
Encoding: 266 266 32
Width: 619
GlyphClass: 2
Flags: MW
HStem: -6 76<300.5 430.5 300.5 437.5> 630 76<303 430.5 274 431> 784 95<341 369>
VStem: 57 91<253 447.5 253 469.5> 313 84<806 857 799.5 863.5>
AnchorPoint: "Anchor-1" 358 877 basechar 0
AnchorPoint: "Anchor-0" 361 0 basechar 0
LayerCount: 2
Fore
SplineSet
313 857 m 2,0,1
 313 879 313 879 355 879 c 128,-1,2
 397 879 397 879 397 857 c 2,3,-1
 397 806 l 2,4,5
 397 784 397 784 355 784 c 128,-1,6
 313 784 313 784 313 806 c 2,7,-1
 313 857 l 2,0,1
381 706 m 0,8,9
 453 706 453 706 512.5 685.5 c 128,-1,10
 572 665 572 665 572 644 c 0,11,12
 572 630 572 630 559.5 608 c 128,-1,13
 547 586 547 586 538 586 c 0,14,15
 536 586 536 586 516.5 597 c 128,-1,16
 497 608 497 608 461 619 c 128,-1,17
 425 630 425 630 383 630 c 0,18,19
 262 630 262 630 205 563 c 128,-1,20
 148 496 148 496 148 350.5 c 128,-1,21
 148 205 148 205 204.5 137.5 c 128,-1,22
 261 70 261 70 379 70 c 0,23,24
 424 70 424 70 464 82.5 c 128,-1,25
 504 95 504 95 526 107.5 c 128,-1,26
 548 120 548 120 551 120 c 0,27,28
 560 120 560 120 573 98 c 128,-1,29
 586 76 586 76 586 66 c 0,30,31
 586 43 586 43 523.5 18.5 c 128,-1,32
 461 -6 461 -6 379 -6 c 0,33,34
 214 -6 214 -6 135.5 80.5 c 128,-1,35
 57 167 57 167 57 350 c 0,36,37
 57 706 57 706 381 706 c 0,8,9
EndSplineSet
Position2: "'cpsp' Capital Spacing lookup 0 subtable" dx=5 dy=0 dh=10 dv=0
EndChar

StartChar: D
Encoding: 68 68 33
Width: 695
GlyphClass: 2
Flags: MW
HStem: 0 76<116.5 322 185 322 322 329> 624 76<185 185 185 322>
VStem: 97 88<76 624 76 670 76 680.5> 547 91<250 449.5>
AnchorPoint: "Anchor-1" 312 700 basechar 0
AnchorPoint: "Anchor-0" 327 0 basechar 0
LayerCount: 2
Fore
SplineSet
127 700 m 2,0,-1
 329 700 l 2,1,2
 469 700 469 700 553.5 616.5 c 128,-1,3
 638 533 638 533 638 349.5 c 0,4,5
 638 166 638 166 553.5 83 c 128,-1,6
 469 0 469 0 329 0 c 2,7,-1
 127 0 l 2,8,9
 97 0 97 0 97 30 c 2,10,-1
 97 670 l 2,11,12
 97 700 97 700 127 700 c 2,0,-1
185 624 m 1,13,-1
 185 76 l 1,14,-1
 322 76 l 2,15,16
 423 76 423 76 485 142 c 128,-1,17
 547 208 547 208 547 349.5 c 0,18,19
 547 491 547 491 485 557.5 c 128,-1,20
 423 624 423 624 322 624 c 2,21,-1
 185 624 l 1,13,-1
EndSplineSet
Position2: "'cpsp' Capital Spacing lookup 0 subtable" dx=5 dy=0 dh=10 dv=0
EndChar

StartChar: DZ
Encoding: 497 497 34
Width: 1311
GlyphClass: 2
Flags: MW
HStem: 0 76<116.5 322 185 322 322 329 853 1244> 624 76<185 185 185 322 786 1146>
VStem: 97 88<76 624 76 670 76 680.5> 547 91<250 449.5>
AnchorPoint: "Anchor-1" 1003 700 basechar 0
AnchorPoint: "Anchor-0" 1013 0 basechar 0
LayerCount: 2
Fore
SplineSet
127 700 m 2,0,-1
 329 700 l 2,1,2
 469 700 469 700 553.5 616.5 c 128,-1,3
 638 533 638 533 638 349.5 c 0,4,5
 638 166 638 166 553.5 83 c 128,-1,6
 469 0 469 0 329 0 c 2,7,-1
 127 0 l 2,8,9
 97 0 97 0 97 30 c 2,10,-1
 97 670 l 2,11,12
 97 700 97 700 127 700 c 2,0,-1
786 700 m 2,13,-1
 1244 700 l 2,14,15
 1250 700 1250 700 1258 681 c 128,-1,16
 1266 662 1266 662 1266 650.75 c 0,17,18
 1266 639.5 1266 639.5 1263 635 c 2,19,-1
 853 76 l 1,20,-1
 1244 76 l 2,21,22
 1264 76 1264 76 1264 42 c 2,23,-1
 1264 34 l 2,24,25
 1264 0 1264 0 1244 0 c 2,26,-1
 757 0 l 2,27,28
 750 0 750 0 741.5 19 c 128,-1,29
 733 38 733 38 733 49.25 c 0,30,31
 733 60.5 733 60.5 736 65 c 2,32,-1
 1146 624 l 1,33,-1
 786 624 l 2,34,35
 766 624 766 624 766 658 c 2,36,-1
 766 666 l 2,37,38
 766 700 766 700 786 700 c 2,13,-1
185 624 m 1,39,-1
 185 76 l 1,40,-1
 322 76 l 2,41,42
 423 76 423 76 485 142 c 128,-1,43
 547 208 547 208 547 349.5 c 0,44,45
 547 491 547 491 485 557.5 c 128,-1,46
 423 624 423 624 322 624 c 2,47,-1
 185 624 l 1,39,-1
EndSplineSet
Position2: "'cpsp' Capital Spacing lookup 0 subtable" dx=5 dy=0 dh=10 dv=0
EndChar

StartChar: DZcaron
Encoding: 452 452 35
Width: 1311
GlyphClass: 2
Flags: MW
HStem: 0 76<116.5 322 185 322 322 329 853 1244> 624 76<185 185 185 322 786 1146> 759 142<905 990 905 1015>
VStem: 97 88<76 624 76 670 76 680.5> 547 91<250 449.5>
AnchorPoint: "Anchor-1" 1004 877 basechar 0
AnchorPoint: "Anchor-0" 1013 0 basechar 0
LayerCount: 2
Fore
SplineSet
1098 901 m 2,0,-1
 1100 901 l 2,1,2
 1124 901 1124 901 1124 886 c 0,3,4
 1124 878 1124 878 1118 869 c 2,5,-1
 1061 781 l 2,6,7
 1046 759 1046 759 1015 759 c 2,8,-1
 990 759 l 2,9,10
 959 759 959 759 944 781 c 2,11,-1
 888 869 l 2,12,13
 882 879.5 882 879.5 882 887 c 0,14,15
 882 901 882 901 905 901 c 2,16,-1
 907 901 l 2,17,18
 927 901 927 901 941 888 c 1,19,-1
 1002 814 l 1,20,-1
 1065 888 l 1,21,22
 1079 901 1079 901 1098 901 c 2,0,-1
127 700 m 2,23,-1
 329 700 l 2,24,25
 469 700 469 700 553.5 616.5 c 128,-1,26
 638 533 638 533 638 349.5 c 0,27,28
 638 166 638 166 553.5 83 c 128,-1,29
 469 0 469 0 329 0 c 2,30,-1
 127 0 l 2,31,32
 97 0 97 0 97 30 c 2,33,-1
 97 670 l 2,34,35
 97 700 97 700 127 700 c 2,23,-1
786 700 m 2,36,-1
 1244 700 l 2,37,38
 1250 700 1250 700 1258 681 c 128,-1,39
 1266 662 1266 662 1266 650.75 c 0,40,41
 1266 639.5 1266 639.5 1263 635 c 2,42,-1
 853 76 l 1,43,-1
 1244 76 l 2,44,45
 1264 76 1264 76 1264 42 c 2,46,-1
 1264 34 l 2,47,48
 1264 0 1264 0 1244 0 c 2,49,-1
 757 0 l 2,50,51
 750 0 750 0 741.5 19 c 128,-1,52
 733 38 733 38 733 49.25 c 0,53,54
 733 60.5 733 60.5 736 65 c 2,55,-1
 1146 624 l 1,56,-1
 786 624 l 2,57,58
 766 624 766 624 766 658 c 2,59,-1
 766 666 l 2,60,61
 766 700 766 700 786 700 c 2,36,-1
185 624 m 1,62,-1
 185 76 l 1,63,-1
 322 76 l 2,64,65
 423 76 423 76 485 142 c 128,-1,66
 547 208 547 208 547 349.5 c 0,67,68
 547 491 547 491 485 557.5 c 128,-1,69
 423 624 423 624 322 624 c 2,70,-1
 185 624 l 1,62,-1
EndSplineSet
Position2: "'cpsp' Capital Spacing lookup 0 subtable" dx=5 dy=0 dh=10 dv=0
EndChar

StartChar: Eth
Encoding: 208 208 36
Width: 696
GlyphClass: 2
Flags: MW
HStem: 0 76<104.5 323 173 323 323 330> 320 76<13 85 20 85 173 283> 624 76<173 173 173 323>
VStem: 85 88<76 320 76 320 76 320 396 624> 550 91<250 449.5>
LayerCount: 2
Fore
SplineSet
115 700 m 2,0,-1
 330 700 l 2,1,2
 464.151898734 700 464.151898734 700 549.5 622.5 c 0,3,4
 641 539.413793103 641 539.413793103 641 350 c 0,5,6
 641 82.8256880734 641 82.8256880734 451.5 18.5 c 0,7,8
 397 0 397 0 330 0 c 2,9,-1
 115 0 l 2,10,11
 85 0 85 0 85 30 c 2,12,-1
 85 320 l 1,13,-1
 20 320 l 2,14,15
 0 320 0 320 0 350 c 2,16,-1
 0 366 l 2,17,18
 0 396 0 396 20 396 c 2,19,-1
 85 396 l 1,20,-1
 85 670 l 2,21,22
 85 700 85 700 115 700 c 2,0,-1
173 624 m 1,23,-1
 173 396 l 1,24,-1
 283 396 l 2,25,26
 303 396 303 396 303 366 c 2,27,-1
 303 350 l 2,28,29
 303 320 303 320 283 320 c 2,30,-1
 173 320 l 1,31,-1
 173 76 l 1,32,-1
 323 76 l 2,33,34
 425 76 425 76 487.5 142 c 128,-1,35
 550 208 550 208 550 349.5 c 128,-1,36
 550 491 550 491 487.5 557.5 c 128,-1,37
 425 624 425 624 323 624 c 2,38,-1
 173 624 l 1,23,-1
EndSplineSet
Position2: "'cpsp' Capital Spacing lookup 0 subtable" dx=5 dy=0 dh=10 dv=0
EndChar

StartChar: Dcaron
Encoding: 270 270 37
Width: 695
GlyphClass: 2
Flags: MW
HStem: 0 76<116.5 322 185 322 322 329> 624 76<185 185 185 322> 759 142<214 299 214 324>
VStem: 97 88<76 624 76 670 76 680.5> 547 91<250 449.5>
AnchorPoint: "Anchor-1" 313 877 basechar 0
AnchorPoint: "Anchor-0" 327 0 basechar 0
LayerCount: 2
Fore
SplineSet
407 901 m 2,0,-1
 409 901 l 2,1,2
 433 901 433 901 433 886 c 0,3,4
 433 878 433 878 427 869 c 2,5,-1
 370 781 l 2,6,7
 355 759 355 759 324 759 c 2,8,-1
 299 759 l 2,9,10
 268 759 268 759 253 781 c 2,11,-1
 197 869 l 2,12,13
 191 879.5 191 879.5 191 887 c 0,14,15
 191 901 191 901 214 901 c 2,16,-1
 216 901 l 2,17,18
 236 901 236 901 250 888 c 1,19,-1
 311 814 l 1,20,-1
 374 888 l 1,21,22
 388 901 388 901 407 901 c 2,0,-1
127 700 m 2,23,-1
 329 700 l 2,24,25
 469 700 469 700 553.5 616.5 c 128,-1,26
 638 533 638 533 638 349.5 c 0,27,28
 638 166 638 166 553.5 83 c 128,-1,29
 469 0 469 0 329 0 c 2,30,-1
 127 0 l 2,31,32
 97 0 97 0 97 30 c 2,33,-1
 97 670 l 2,34,35
 97 700 97 700 127 700 c 2,23,-1
185 624 m 1,36,-1
 185 76 l 1,37,-1
 322 76 l 2,38,39
 423 76 423 76 485 142 c 128,-1,40
 547 208 547 208 547 349.5 c 0,41,42
 547 491 547 491 485 557.5 c 128,-1,43
 423 624 423 624 322 624 c 2,44,-1
 185 624 l 1,36,-1
EndSplineSet
Position2: "'cpsp' Capital Spacing lookup 0 subtable" dx=5 dy=0 dh=10 dv=0
EndChar

StartChar: Dcroat
Encoding: 272 272 38
Width: 696
GlyphClass: 2
Flags: MW
HStem: 0 76<104.5 323 173 323 323 330> 320 76<13 85 20 85 173 283> 624 76<173 173 173 323>
VStem: 85 88<76 320 76 320 76 320 396 624> 550 91<250 449.5>
LayerCount: 2
Fore
SplineSet
115 700 m 2,0,-1
 330 700 l 2,1,2
 464.151898734 700 464.151898734 700 549.5 622.5 c 0,3,4
 641 539.413793103 641 539.413793103 641 350 c 0,5,6
 641 82.8256880734 641 82.8256880734 451.5 18.5 c 0,7,8
 397 0 397 0 330 0 c 2,9,-1
 115 0 l 2,10,11
 85 0 85 0 85 30 c 2,12,-1
 85 320 l 1,13,-1
 20 320 l 2,14,15
 0 320 0 320 0 350 c 2,16,-1
 0 366 l 2,17,18
 0 396 0 396 20 396 c 2,19,-1
 85 396 l 1,20,-1
 85 670 l 2,21,22
 85 700 85 700 115 700 c 2,0,-1
173 624 m 1,23,-1
 173 396 l 1,24,-1
 283 396 l 2,25,26
 303 396 303 396 303 366 c 2,27,-1
 303 350 l 2,28,29
 303 320 303 320 283 320 c 2,30,-1
 173 320 l 1,31,-1
 173 76 l 1,32,-1
 323 76 l 2,33,34
 425 76 425 76 487.5 142 c 128,-1,35
 550 208 550 208 550 349.5 c 128,-1,36
 550 491 550 491 487.5 557.5 c 128,-1,37
 425 624 425 624 323 624 c 2,38,-1
 173 624 l 1,23,-1
EndSplineSet
Position2: "'cpsp' Capital Spacing lookup 0 subtable" dx=5 dy=0 dh=10 dv=0
EndChar

StartChar: Ddotbelow
Encoding: 7692 7692 39
Width: 695
GlyphClass: 2
Flags: MW
HStem: -175 95<315 343> 0 76<116.5 322 185 322 322 329> 624 76<185 185 185 322>
VStem: 97 88<76 624 76 670 76 680.5> 287 84<-153 -102 -159.5 -95.5> 547 91<250 449.5>
AnchorPoint: "Anchor-1" 332 -82 basechar 0
AnchorPoint: "Anchor-0" 327 -203 basechar 0
LayerCount: 2
Fore
SplineSet
127 700 m 2,0,-1
 329 700 l 2,1,2
 469 700 469 700 553.5 616.5 c 128,-1,3
 638 533 638 533 638 349.5 c 128,-1,4
 638 166 638 166 553.5 83 c 128,-1,5
 469 0 469 0 329 0 c 2,6,-1
 127 0 l 2,7,8
 97 0 97 0 97 30 c 2,9,-1
 97 670 l 2,10,11
 97 700 97 700 127 700 c 2,0,-1
185 624 m 1,12,-1
 185 76 l 1,13,-1
 322 76 l 2,14,15
 423 76 423 76 485 142 c 128,-1,16
 547 208 547 208 547 349.5 c 128,-1,17
 547 491 547 491 485 557.5 c 128,-1,18
 423 624 423 624 322 624 c 2,19,-1
 185 624 l 1,12,-1
287 -102 m 2,20,21
 287 -80 287 -80 329 -80 c 128,-1,22
 371 -80 371 -80 371 -102 c 2,23,-1
 371 -153 l 2,24,25
 371 -175 371 -175 329 -175 c 128,-1,26
 287 -175 287 -175 287 -153 c 2,27,-1
 287 -102 l 2,20,21
EndSplineSet
Position2: "'cpsp' Capital Spacing lookup 0 subtable" dx=5 dy=0 dh=10 dv=0
EndChar

StartChar: Dz
Encoding: 498 498 40
Width: 1184
GlyphClass: 2
Flags: MW
HStem: 0 72<849 1124 849 1124> 451 72<765 1123 772 1028> 624 76<185 185 185 322>
VStem: 97 88<76 624 76 670 76 680.5> 547 91<250 449.5>
AnchorPoint: "Anchor-1" 940 523 basechar 0
AnchorPoint: "Anchor-0" 933 0 basechar 0
LayerCount: 2
Fore
SplineSet
127 700 m 2,0,-1
 329 700 l 2,1,2
 469 700 469 700 553.5 616.5 c 128,-1,3
 638 533 638 533 638 349.5 c 0,4,5
 638 166 638 166 553.5 83 c 128,-1,6
 469 0 469 0 329 0 c 2,7,-1
 127 0 l 2,8,9
 97 0 97 0 97 30 c 2,10,-1
 97 670 l 2,11,12
 97 700 97 700 127 700 c 2,0,-1
185 624 m 1,13,-1
 185 76 l 1,14,-1
 322 76 l 2,15,16
 423 76 423 76 485 142 c 128,-1,17
 547 208 547 208 547 349.5 c 0,18,19
 547 491 547 491 485 557.5 c 128,-1,20
 423 624 423 624 322 624 c 2,21,-1
 185 624 l 1,13,-1
772 523 m 2,22,-1
 1123 523 l 2,23,24
 1130 523 1130 523 1136.5 504.5 c 128,-1,25
 1143 486 1143 486 1143 475.5 c 0,26,27
 1143 465 1143 465 1141 461 c 2,28,-1
 849 72 l 1,29,-1
 1124 72 l 2,30,31
 1144 72 1144 72 1144 42 c 2,32,-1
 1144 30 l 2,33,34
 1144 0 1144 0 1124 0 c 2,35,-1
 754 0 l 2,36,37
 748 0 748 0 740 18 c 128,-1,38
 732 36 732 36 732 46.5 c 0,39,40
 732 57 732 57 735 62 c 2,41,-1
 1028 451 l 1,42,-1
 772 451 l 2,43,44
 752 451 752 451 752 481 c 2,45,-1
 752 493 l 2,46,47
 752 523 752 523 772 523 c 2,22,-1
EndSplineSet
Position2: "'cpsp' Capital Spacing lookup 0 subtable" dx=5 dy=0 dh=10 dv=0
EndChar

StartChar: Dzcaron
Encoding: 453 453 41
Width: 1184
GlyphClass: 2
Flags: MW
HStem: 0 72<849 1124 849 1124> 451 72<765 1123 772 1028> 624 76<185 185 185 322>
VStem: 97 88<76 624 76 670 76 680.5> 547 91<250 449.5>
AnchorPoint: "Anchor-1" 941 700 basechar 0
AnchorPoint: "Anchor-0" 933 0 basechar 0
LayerCount: 2
Fore
SplineSet
1035 724 m 2,0,-1
 1037 724 l 2,1,2
 1061 724 1061 724 1061 709 c 0,3,4
 1061 701 1061 701 1055 692 c 2,5,-1
 998 604 l 2,6,7
 983 582 983 582 952 582 c 2,8,-1
 927 582 l 2,9,10
 896 582 896 582 881 604 c 2,11,-1
 825 692 l 2,12,13
 819 702.5 819 702.5 819 710 c 0,14,15
 819 724 819 724 842 724 c 2,16,-1
 844 724 l 2,17,18
 864 724 864 724 878 711 c 1,19,-1
 939 637 l 1,20,-1
 1002 711 l 1,21,22
 1016 724 1016 724 1035 724 c 2,0,-1
127 700 m 2,23,-1
 329 700 l 2,24,25
 469 700 469 700 553.5 616.5 c 128,-1,26
 638 533 638 533 638 349.5 c 0,27,28
 638 166 638 166 553.5 83 c 128,-1,29
 469 0 469 0 329 0 c 2,30,-1
 127 0 l 2,31,32
 97 0 97 0 97 30 c 2,33,-1
 97 670 l 2,34,35
 97 700 97 700 127 700 c 2,23,-1
185 624 m 1,36,-1
 185 76 l 1,37,-1
 322 76 l 2,38,39
 423 76 423 76 485 142 c 128,-1,40
 547 208 547 208 547 349.5 c 0,41,42
 547 491 547 491 485 557.5 c 128,-1,43
 423 624 423 624 322 624 c 2,44,-1
 185 624 l 1,36,-1
772 523 m 2,45,-1
 1123 523 l 2,46,47
 1130 523 1130 523 1136.5 504.5 c 128,-1,48
 1143 486 1143 486 1143 475.5 c 0,49,50
 1143 465 1143 465 1141 461 c 2,51,-1
 849 72 l 1,52,-1
 1124 72 l 2,53,54
 1144 72 1144 72 1144 42 c 2,55,-1
 1144 30 l 2,56,57
 1144 0 1144 0 1124 0 c 2,58,-1
 754 0 l 2,59,60
 748 0 748 0 740 18 c 128,-1,61
 732 36 732 36 732 46.5 c 0,62,63
 732 57 732 57 735 62 c 2,64,-1
 1028 451 l 1,65,-1
 772 451 l 2,66,67
 752 451 752 451 752 481 c 2,68,-1
 752 493 l 2,69,70
 752 523 752 523 772 523 c 2,45,-1
EndSplineSet
Position2: "'cpsp' Capital Spacing lookup 0 subtable" dx=5 dy=0 dh=10 dv=0
EndChar

StartChar: E
Encoding: 69 69 42
Width: 546
GlyphClass: 2
Flags: MW
HStem: 0 76<116.5 477 185 477 185 477> 320 76<185 446 185 446> 624 76<185 476 185 185>
VStem: 97 88<76 320 396 624>
AnchorPoint: "Anchor-1" 296 700 basechar 0
AnchorPoint: "Anchor-0" 300 0 basechar 0
LayerCount: 2
Fore
SplineSet
127 700 m 2,0,-1
 476 700 l 2,1,2
 496 700 496 700 496 670 c 2,3,-1
 496 654 l 2,4,5
 496 624 496 624 476 624 c 2,6,-1
 185 624 l 1,7,-1
 185 396 l 1,8,-1
 446 396 l 2,9,10
 466 396 466 396 466 366 c 2,11,-1
 466 350 l 2,12,13
 466 320 466 320 446 320 c 2,14,-1
 185 320 l 1,15,-1
 185 76 l 1,16,-1
 477 76 l 2,17,18
 497 76 497 76 497 46 c 2,19,-1
 497 30 l 2,20,21
 497 0 497 0 477 0 c 2,22,-1
 127 0 l 2,23,24
 97 0 97 0 97 30 c 2,25,-1
 97 670 l 2,26,27
 97 700 97 700 127 700 c 2,0,-1
EndSplineSet
Position2: "'cpsp' Capital Spacing lookup 0 subtable" dx=5 dy=0 dh=10 dv=0
EndChar

StartChar: Eacute
Encoding: 201 201 43
Width: 546
GlyphClass: 2
Flags: MW
HStem: 0 76<116.5 477 185 477 185 477> 320 76<185 446 185 446> 624 76<185 476 185 185>
VStem: 97 88<76 320 396 624>
AnchorPoint: "Anchor-1" 302 877 basechar 0
AnchorPoint: "Anchor-0" 300 0 basechar 0
LayerCount: 2
Fore
SplineSet
314 883 m 0,0,1
 329 909 329 909 376.5 909 c 128,-1,2
 424 909 424 909 424 896 c 0,3,4
 424 889 424 889 414.5 877 c 128,-1,5
 405 865 405 865 375 831 c 2,6,-1
 330 780 l 2,7,8
 314 762 314 762 285 762 c 128,-1,9
 256 762 256 762 256 772 c 128,-1,10
 256 782 256 782 314 883 c 0,0,1
127 700 m 2,11,-1
 476 700 l 2,12,13
 496 700 496 700 496 670 c 2,14,-1
 496 654 l 2,15,16
 496 624 496 624 476 624 c 2,17,-1
 185 624 l 1,18,-1
 185 396 l 1,19,-1
 446 396 l 2,20,21
 466 396 466 396 466 366 c 2,22,-1
 466 350 l 2,23,24
 466 320 466 320 446 320 c 2,25,-1
 185 320 l 1,26,-1
 185 76 l 1,27,-1
 477 76 l 2,28,29
 497 76 497 76 497 46 c 2,30,-1
 497 30 l 2,31,32
 497 0 497 0 477 0 c 2,33,-1
 127 0 l 2,34,35
 97 0 97 0 97 30 c 2,36,-1
 97 670 l 2,37,38
 97 700 97 700 127 700 c 2,11,-1
EndSplineSet
Position2: "'cpsp' Capital Spacing lookup 0 subtable" dx=5 dy=0 dh=10 dv=0
EndChar

StartChar: Ebreve
Encoding: 276 276 44
Width: 546
GlyphClass: 2
Flags: MW
HStem: 0 76<116.5 477 185 477 185 477> 320 76<185 446 185 446> 624 76<185 476 185 185> 762 66<272.5 321.5 272.5 332.5>
VStem: 97 88<76 320 396 624>
AnchorPoint: "Anchor-1" 297 848 basechar 0
AnchorPoint: "Anchor-0" 300 0 basechar 0
LayerCount: 2
Fore
SplineSet
426 892 m 0,0,1
 441 892 441 892 441 877 c 0,2,3
 441 823 441 823 398 792.5 c 128,-1,4
 355 762 355 762 296.5 762 c 128,-1,5
 238 762 238 762 195 792.5 c 128,-1,6
 152 823 152 823 152 877 c 0,7,8
 152 892 152 892 167 892 c 0,9,10
 178.4 892 178.4 892 180.2 887.5 c 0,11,12
 186 873 186 873 189 867 c 0,13,14
 210 828 210 828 296.5 828 c 0,15,16
 391.666666667 828 391.666666667 828 407.5 875.5 c 0,17,18
 412 889 412 889 416.5 890.5 c 128,-1,19
 421 892 421 892 426 892 c 0,0,1
127 700 m 2,20,-1
 476 700 l 2,21,22
 496 700 496 700 496 670 c 2,23,-1
 496 654 l 2,24,25
 496 624 496 624 476 624 c 2,26,-1
 185 624 l 1,27,-1
 185 396 l 1,28,-1
 446 396 l 2,29,30
 466 396 466 396 466 366 c 2,31,-1
 466 350 l 2,32,33
 466 320 466 320 446 320 c 2,34,-1
 185 320 l 1,35,-1
 185 76 l 1,36,-1
 477 76 l 2,37,38
 497 76 497 76 497 46 c 2,39,-1
 497 30 l 2,40,41
 497 0 497 0 477 0 c 2,42,-1
 127 0 l 2,43,44
 97 0 97 0 97 30 c 2,45,-1
 97 670 l 2,46,47
 97 700 97 700 127 700 c 2,20,-1
EndSplineSet
Position2: "'cpsp' Capital Spacing lookup 0 subtable" dx=5 dy=0 dh=10 dv=0
EndChar

StartChar: Ecaron
Encoding: 282 282 45
Width: 546
GlyphClass: 2
Flags: MW
HStem: 0 76<116.5 477 185 477 185 477> 320 76<185 446 185 446> 624 76<185 476 185 185> 759 142<198 283 198 308>
VStem: 97 88<76 320 396 624>
AnchorPoint: "Anchor-1" 297 877 basechar 0
AnchorPoint: "Anchor-0" 300 0 basechar 0
LayerCount: 2
Fore
SplineSet
391 901 m 2,0,-1
 393 901 l 2,1,2
 417 901 417 901 417 886 c 0,3,4
 417 878 417 878 411 869 c 2,5,-1
 354 781 l 2,6,7
 339 759 339 759 308 759 c 2,8,-1
 283 759 l 2,9,10
 252 759 252 759 237 781 c 2,11,-1
 181 869 l 2,12,13
 175 879.5 175 879.5 175 887 c 0,14,15
 175 901 175 901 198 901 c 2,16,-1
 200 901 l 2,17,18
 220 901 220 901 234 888 c 1,19,-1
 295 814 l 1,20,-1
 358 888 l 1,21,22
 372 901 372 901 391 901 c 2,0,-1
127 700 m 2,23,-1
 476 700 l 2,24,25
 496 700 496 700 496 670 c 2,26,-1
 496 654 l 2,27,28
 496 624 496 624 476 624 c 2,29,-1
 185 624 l 1,30,-1
 185 396 l 1,31,-1
 446 396 l 2,32,33
 466 396 466 396 466 366 c 2,34,-1
 466 350 l 2,35,36
 466 320 466 320 446 320 c 2,37,-1
 185 320 l 1,38,-1
 185 76 l 1,39,-1
 477 76 l 2,40,41
 497 76 497 76 497 46 c 2,42,-1
 497 30 l 2,43,44
 497 0 497 0 477 0 c 2,45,-1
 127 0 l 2,46,47
 97 0 97 0 97 30 c 2,48,-1
 97 670 l 2,49,50
 97 700 97 700 127 700 c 2,23,-1
EndSplineSet
Position2: "'cpsp' Capital Spacing lookup 0 subtable" dx=5 dy=0 dh=10 dv=0
EndChar

StartChar: Ecircumflex
Encoding: 202 202 46
Width: 546
GlyphClass: 2
Flags: MW
HStem: 0 76<116.5 477 185 477 185 477> 320 76<185 446 185 446> 624 76<185 476 185 185> 753 142<190.5 308 198 308 283 391 283 393>
VStem: 97 88<76 320 396 624>
AnchorPoint: "Anchor-1" 455 793 basechar 0
AnchorPoint: "Anchor-0" 300 0 basechar 0
LayerCount: 2
Fore
SplineSet
283 895 m 2,0,-1
 308 895 l 2,1,2
 339 895 339 895 354 873 c 2,3,-1
 411 785 l 2,4,5
 417 776 417 776 417 768 c 0,6,7
 417 753 417 753 393 753 c 2,8,-1
 391 753 l 2,9,10
 372 753 372 753 358 766 c 1,11,-1
 295 840 l 1,12,-1
 234 766 l 1,13,14
 220 753 220 753 200 753 c 2,15,-1
 198 753 l 2,16,17
 175 753 175 753 175 767 c 0,18,19
 175 774.5 175 774.5 181 785 c 2,20,-1
 237 873 l 2,21,22
 252 895 252 895 283 895 c 2,0,-1
127 700 m 2,23,-1
 476 700 l 2,24,25
 496 700 496 700 496 670 c 2,26,-1
 496 654 l 2,27,28
 496 624 496 624 476 624 c 2,29,-1
 185 624 l 1,30,-1
 185 396 l 1,31,-1
 446 396 l 2,32,33
 466 396 466 396 466 366 c 2,34,-1
 466 350 l 2,35,36
 466 320 466 320 446 320 c 2,37,-1
 185 320 l 1,38,-1
 185 76 l 1,39,-1
 477 76 l 2,40,41
 497 76 497 76 497 46 c 2,42,-1
 497 30 l 2,43,44
 497 0 497 0 477 0 c 2,45,-1
 127 0 l 2,46,47
 97 0 97 0 97 30 c 2,48,-1
 97 670 l 2,49,50
 97 700 97 700 127 700 c 2,23,-1
EndSplineSet
Position2: "'cpsp' Capital Spacing lookup 0 subtable" dx=5 dy=0 dh=10 dv=0
EndChar

StartChar: Ecircumflexacute
Encoding: 7870 7870 47
Width: 546
GlyphClass: 2
Flags: MW
HStem: 0 76<116.5 477 185 477 185 477> 320 76<185 446 185 446> 624 76<185 476 185 185> 753 142<194.5 312 202 312 287 380 287 382>
VStem: 97 88<76 320 396 624>
AnchorPoint: "Anchor-1" 437 829 basechar 0
AnchorPoint: "Anchor-0" 300 0 basechar 0
LayerCount: 2
Fore
SplineSet
452 935 m 0,0,1
 467 961 467 961 502 961 c 128,-1,2
 537 961 537 961 537 948 c 0,3,4
 537 937.142857143 537 937.142857143 463 842 c 0,5,6
 449 824 449 824 426.5 824 c 128,-1,7
 404 824 404 824 404 833.5 c 128,-1,8
 404 843 404 843 452 935 c 0,0,1
287 895 m 2,9,-1
 312 895 l 2,10,11
 334 895 334 895 348 873 c 2,12,-1
 400 785 l 2,13,14
 406 776 406 776 406 768 c 0,15,16
 406 753 406 753 382 753 c 2,17,-1
 380 753 l 2,18,19
 356 753 356 753 347 766 c 2,20,-1
 299 840 l 1,21,-1
 238 766 l 1,22,23
 224 753 224 753 204 753 c 2,24,-1
 202 753 l 2,25,26
 179 753 179 753 179 767 c 0,27,28
 179 774.5 179 774.5 185 785 c 2,29,-1
 241 873 l 2,30,31
 256 895 256 895 287 895 c 2,9,-1
127 700 m 2,32,-1
 476 700 l 2,33,34
 496 700 496 700 496 670 c 2,35,-1
 496 654 l 2,36,37
 496 624 496 624 476 624 c 2,38,-1
 185 624 l 1,39,-1
 185 396 l 1,40,-1
 446 396 l 2,41,42
 466 396 466 396 466 366 c 2,43,-1
 466 350 l 2,44,45
 466 320 466 320 446 320 c 2,46,-1
 185 320 l 1,47,-1
 185 76 l 1,48,-1
 477 76 l 2,49,50
 497 76 497 76 497 46 c 2,51,-1
 497 30 l 2,52,53
 497 0 497 0 477 0 c 2,54,-1
 127 0 l 2,55,56
 97 0 97 0 97 30 c 2,57,-1
 97 670 l 2,58,59
 97 700 97 700 127 700 c 2,32,-1
EndSplineSet
Position2: "'cpsp' Capital Spacing lookup 0 subtable" dx=5 dy=0 dh=10 dv=0
EndChar

StartChar: Ecircumflexdotbelow
Encoding: 7878 7878 48
Width: 546
GlyphClass: 2
Flags: MW
HStem: -175 95<288 316> 0 76<116.5 477 185 477 185 477> 320 76<185 446 185 446> 624 76<185 476 185 185> 753 142<190.5 308 198 308 283 391 283 393>
VStem: 97 88<76 320 396 624> 260 84<-153 -102 -159.5 -95.5>
AnchorPoint: "Anchor-1" 305 -82 basechar 0
AnchorPoint: "Anchor-0" 300 -203 basechar 0
LayerCount: 2
Fore
SplineSet
283 895 m 2,0,-1
 308 895 l 2,1,2
 339 895 339 895 354 873 c 2,3,-1
 411 785 l 2,4,5
 417 776 417 776 417 768 c 0,6,7
 417 753 417 753 393 753 c 2,8,-1
 391 753 l 2,9,10
 372 753 372 753 358 766 c 1,11,-1
 295 840 l 1,12,-1
 234 766 l 1,13,14
 220 753 220 753 200 753 c 2,15,-1
 198 753 l 2,16,17
 175 753 175 753 175 767 c 0,18,19
 175 774.5 175 774.5 181 785 c 2,20,-1
 237 873 l 2,21,22
 252 895 252 895 283 895 c 2,0,-1
127 700 m 2,23,-1
 476 700 l 2,24,25
 496 700 496 700 496 670 c 2,26,-1
 496 654 l 2,27,28
 496 624 496 624 476 624 c 2,29,-1
 185 624 l 1,30,-1
 185 396 l 1,31,-1
 446 396 l 2,32,33
 466 396 466 396 466 366 c 2,34,-1
 466 350 l 2,35,36
 466 320 466 320 446 320 c 2,37,-1
 185 320 l 1,38,-1
 185 76 l 1,39,-1
 477 76 l 2,40,41
 497 76 497 76 497 46 c 2,42,-1
 497 30 l 2,43,44
 497 0 497 0 477 0 c 2,45,-1
 127 0 l 2,46,47
 97 0 97 0 97 30 c 2,48,-1
 97 670 l 2,49,50
 97 700 97 700 127 700 c 2,23,-1
260 -102 m 2,51,52
 260 -80 260 -80 302 -80 c 128,-1,53
 344 -80 344 -80 344 -102 c 2,54,-1
 344 -153 l 2,55,56
 344 -175 344 -175 302 -175 c 128,-1,57
 260 -175 260 -175 260 -153 c 2,58,-1
 260 -102 l 2,51,52
EndSplineSet
Position2: "'cpsp' Capital Spacing lookup 0 subtable" dx=5 dy=0 dh=10 dv=0
EndChar

StartChar: Ecircumflexgrave
Encoding: 7872 7872 49
Width: 546
GlyphClass: 2
Flags: MW
HStem: 0 76<116.5 477 185 477 185 477> 320 76<185 446 185 446> 624 76<185 476 185 185> 753 142<194.5 312 202 312 287 380 287 382>
VStem: 97 88<76 320 396 624>
AnchorPoint: "Anchor-1" 437 829 basechar 0
AnchorPoint: "Anchor-0" 300 0 basechar 0
LayerCount: 2
Fore
SplineSet
357 948 m 0,0,1
 357 961 357 961 394 961 c 128,-1,2
 431 961 431 961 442 935 c 0,3,4
 480 846 480 846 480 834 c 0,5,6
 480 824 480 824 456.5 824 c 128,-1,7
 433 824 433 824 422.5 839.5 c 128,-1,8
 412 855 412 855 404 868 c 128,-1,9
 396 881 396 881 390.5 889.5 c 128,-1,10
 385 898 385 898 379.5 906 c 128,-1,11
 374 914 374 914 371 919 c 128,-1,12
 368 924 368 924 365 928.5 c 128,-1,13
 362 933 362 933 361 935.5 c 128,-1,14
 360 938 360 938 359 940.5 c 0,15,16
 357 945.5 357 945.5 357 948 c 0,0,1
287 895 m 2,17,-1
 312 895 l 2,18,19
 334 895 334 895 348 873 c 2,20,-1
 400 785 l 2,21,22
 406 776 406 776 406 768 c 0,23,24
 406 753 406 753 382 753 c 2,25,-1
 380 753 l 2,26,27
 356 753 356 753 347 766 c 2,28,-1
 299 840 l 1,29,-1
 238 766 l 1,30,31
 224 753 224 753 204 753 c 2,32,-1
 202 753 l 2,33,34
 179 753 179 753 179 767 c 0,35,36
 179 774.5 179 774.5 185 785 c 2,37,-1
 241 873 l 2,38,39
 256 895 256 895 287 895 c 2,17,-1
127 700 m 2,40,-1
 476 700 l 2,41,42
 496 700 496 700 496 670 c 2,43,-1
 496 654 l 2,44,45
 496 624 496 624 476 624 c 2,46,-1
 185 624 l 1,47,-1
 185 396 l 1,48,-1
 446 396 l 2,49,50
 466 396 466 396 466 366 c 2,51,-1
 466 350 l 2,52,53
 466 320 466 320 446 320 c 2,54,-1
 185 320 l 1,55,-1
 185 76 l 1,56,-1
 477 76 l 2,57,58
 497 76 497 76 497 46 c 2,59,-1
 497 30 l 2,60,61
 497 0 497 0 477 0 c 2,62,-1
 127 0 l 2,63,64
 97 0 97 0 97 30 c 2,65,-1
 97 670 l 2,66,67
 97 700 97 700 127 700 c 2,40,-1
EndSplineSet
Position2: "'cpsp' Capital Spacing lookup 0 subtable" dx=5 dy=0 dh=10 dv=0
EndChar

StartChar: Ecircumflexhookabove
Encoding: 7874 7874 50
Width: 546
GlyphClass: 2
Flags: MW
HStem: 0 76<116.5 477 185 477 185 477> 320 76<185 446 185 446> 624 76<185 476 185 185> 753 142<194.5 312 202 312 287 380 287 382> 931 48<413.5 433>
VStem: 97 88<76 320 396 624> 460 57<897 913>
AnchorPoint: "Anchor-1" 437 829 basechar 0
AnchorPoint: "Anchor-0" 300 0 basechar 0
LayerCount: 2
Fore
SplineSet
460 904 m 0,0,1
 460 931 460 931 423 931 c 0,2,3
 401.833333333 931 401.833333333 931 389.916666667 924.5 c 128,-1,4
 378 918 378 918 377 918 c 0,5,6
 371 918 371 918 362 930.5 c 128,-1,7
 353 943 353 943 353 952 c 128,-1,8
 353 961 353 961 379 970 c 128,-1,9
 405 979 405 979 434 979 c 128,-1,10
 463 979 463 979 490 962.5 c 128,-1,11
 517 946 517 946 517 911 c 128,-1,12
 517 876 517 876 486.5 850.5 c 128,-1,13
 456 825 456 825 441 825 c 128,-1,14
 426 825 426 825 415 831.5 c 128,-1,15
 404 838 404 838 404 845.5 c 128,-1,16
 404 853 404 853 432 868.5 c 128,-1,17
 460 884 460 884 460 904 c 0,0,1
287 895 m 2,18,-1
 312 895 l 2,19,20
 334 895 334 895 348 873 c 2,21,-1
 400 785 l 2,22,23
 406 776 406 776 406 768 c 0,24,25
 406 753 406 753 382 753 c 2,26,-1
 380 753 l 2,27,28
 356 753 356 753 347 766 c 2,29,-1
 299 840 l 1,30,-1
 238 766 l 1,31,32
 224 753 224 753 204 753 c 2,33,-1
 202 753 l 2,34,35
 179 753 179 753 179 767 c 0,36,37
 179 774.5 179 774.5 185 785 c 2,38,-1
 241 873 l 2,39,40
 256 895 256 895 287 895 c 2,18,-1
127 700 m 2,41,-1
 476 700 l 2,42,43
 496 700 496 700 496 670 c 2,44,-1
 496 654 l 2,45,46
 496 624 496 624 476 624 c 2,47,-1
 185 624 l 1,48,-1
 185 396 l 1,49,-1
 446 396 l 2,50,51
 466 396 466 396 466 366 c 2,52,-1
 466 350 l 2,53,54
 466 320 466 320 446 320 c 2,55,-1
 185 320 l 1,56,-1
 185 76 l 1,57,-1
 477 76 l 2,58,59
 497 76 497 76 497 46 c 2,60,-1
 497 30 l 2,61,62
 497 0 497 0 477 0 c 2,63,-1
 127 0 l 2,64,65
 97 0 97 0 97 30 c 2,66,-1
 97 670 l 2,67,68
 97 700 97 700 127 700 c 2,41,-1
EndSplineSet
Position2: "'cpsp' Capital Spacing lookup 0 subtable" dx=5 dy=0 dh=10 dv=0
EndChar

StartChar: Ecircumflextilde
Encoding: 7876 7876 51
Width: 546
GlyphClass: 2
Flags: MW
HStem: 0 76<116.5 477 185 477 185 477> 320 76<185 446 185 446> 624 76<185 476 185 185> 753 118<190.5 308 198 308 283 391 283 393> 903 64<344 360.5> 933 64<225.5 242>
VStem: 97 88<76 320 396 624>
AnchorPoint: "Anchor-1" 416 837 basechar 0
AnchorPoint: "Anchor-0" 300 0 basechar 0
LayerCount: 2
Fore
SplineSet
406 990 m 0,0,1
 424 1003 424 1003 439.5 983.5 c 0,2,3
 455 964 455 964 435 944 c 0,4,5
 385 903 385 903 346 903 c 0,6,7
 307 903 307 903 278 918 c 0,8,9
 249 933 249 933 229 933 c 0,10,11
 209 933 209 933 185 915.5 c 0,12,13
 161 898 161 898 146.5 920 c 0,14,15
 132 942 132 942 150 957 c 0,16,17
 202 997 202 997 237 997 c 0,18,19
 272 997 272 997 300 982 c 0,20,21
 328 967 328 967 351.5 967 c 0,22,23
 375 967 375 967 406 990 c 0,0,1
283 871 m 2,24,-1
 308 871 l 2,25,26
 332 871 332 871 354 849 c 1,27,-1
 411 785 l 1,28,29
 417 776 417 776 417 768 c 0,30,31
 417 753 417 753 393 753 c 2,32,-1
 391 753 l 2,33,34
 378 753 378 753 358 766 c 1,35,-1
 295 816 l 1,36,-1
 234 766 l 1,37,38
 215 753 215 753 200 753 c 2,39,-1
 198 753 l 2,40,41
 175 753 175 753 175 767 c 0,42,43
 175 774.5 175 774.5 181 785 c 1,44,-1
 237 849 l 1,45,46
 261 871 261 871 283 871 c 2,24,-1
127 700 m 2,47,-1
 476 700 l 2,48,49
 496 700 496 700 496 670 c 2,50,-1
 496 654 l 2,51,52
 496 624 496 624 476 624 c 2,53,-1
 185 624 l 1,54,-1
 185 396 l 1,55,-1
 446 396 l 2,56,57
 466 396 466 396 466 366 c 2,58,-1
 466 350 l 2,59,60
 466 320 466 320 446 320 c 2,61,-1
 185 320 l 1,62,-1
 185 76 l 1,63,-1
 477 76 l 2,64,65
 497 76 497 76 497 46 c 2,66,-1
 497 30 l 2,67,68
 497 0 497 0 477 0 c 2,69,-1
 127 0 l 2,70,71
 97 0 97 0 97 30 c 2,72,-1
 97 670 l 2,73,74
 97 700 97 700 127 700 c 2,47,-1
EndSplineSet
Position2: "'cpsp' Capital Spacing lookup 0 subtable" dx=5 dy=0 dh=10 dv=0
EndChar

StartChar: Edieresis
Encoding: 203 203 52
Width: 546
GlyphClass: 2
Flags: MW
HStem: 0 76<116.5 477 185 477 185 477> 320 76<185 446 185 446> 624 76<185 476 185 185> 784 95<210 238 354 382>
VStem: 97 88<76 320 396 624> 182 84<806 857 799.5 863.5> 326 84<806 857 799.5 863.5>
AnchorPoint: "Anchor-1" 293 877 basechar 0
AnchorPoint: "Anchor-0" 300 0 basechar 0
LayerCount: 2
Fore
SplineSet
182 857 m 2,0,1
 182 879 182 879 224 879 c 128,-1,2
 266 879 266 879 266 857 c 2,3,-1
 266 806 l 2,4,5
 266 784 266 784 224 784 c 128,-1,6
 182 784 182 784 182 806 c 2,7,-1
 182 857 l 2,0,1
326 857 m 2,8,9
 326 879 326 879 368 879 c 128,-1,10
 410 879 410 879 410 857 c 2,11,-1
 410 806 l 2,12,13
 410 784 410 784 368 784 c 128,-1,14
 326 784 326 784 326 806 c 2,15,-1
 326 857 l 2,8,9
127 700 m 2,16,-1
 476 700 l 2,17,18
 496 700 496 700 496 670 c 2,19,-1
 496 654 l 2,20,21
 496 624 496 624 476 624 c 2,22,-1
 185 624 l 1,23,-1
 185 396 l 1,24,-1
 446 396 l 2,25,26
 466 396 466 396 466 366 c 2,27,-1
 466 350 l 2,28,29
 466 320 466 320 446 320 c 2,30,-1
 185 320 l 1,31,-1
 185 76 l 1,32,-1
 477 76 l 2,33,34
 497 76 497 76 497 46 c 2,35,-1
 497 30 l 2,36,37
 497 0 497 0 477 0 c 2,38,-1
 127 0 l 2,39,40
 97 0 97 0 97 30 c 2,41,-1
 97 670 l 2,42,43
 97 700 97 700 127 700 c 2,16,-1
EndSplineSet
Position2: "'cpsp' Capital Spacing lookup 0 subtable" dx=5 dy=0 dh=10 dv=0
EndChar

StartChar: Edotaccent
Encoding: 278 278 53
Width: 546
GlyphClass: 2
Flags: MW
HStem: 0 76<116.5 477 185 477 185 477> 320 76<185 446 185 446> 624 76<185 476 185 185> 784 95<282 310>
VStem: 97 88<76 320 396 624> 254 84<806 857 799.5 863.5>
AnchorPoint: "Anchor-1" 299 877 basechar 0
AnchorPoint: "Anchor-0" 300 0 basechar 0
LayerCount: 2
Fore
SplineSet
254 857 m 2,0,1
 254 879 254 879 296 879 c 128,-1,2
 338 879 338 879 338 857 c 2,3,-1
 338 806 l 2,4,5
 338 784 338 784 296 784 c 128,-1,6
 254 784 254 784 254 806 c 2,7,-1
 254 857 l 2,0,1
127 700 m 2,8,-1
 476 700 l 2,9,10
 496 700 496 700 496 670 c 2,11,-1
 496 654 l 2,12,13
 496 624 496 624 476 624 c 2,14,-1
 185 624 l 1,15,-1
 185 396 l 1,16,-1
 446 396 l 2,17,18
 466 396 466 396 466 366 c 2,19,-1
 466 350 l 2,20,21
 466 320 466 320 446 320 c 2,22,-1
 185 320 l 1,23,-1
 185 76 l 1,24,-1
 477 76 l 2,25,26
 497 76 497 76 497 46 c 2,27,-1
 497 30 l 2,28,29
 497 0 497 0 477 0 c 2,30,-1
 127 0 l 2,31,32
 97 0 97 0 97 30 c 2,33,-1
 97 670 l 2,34,35
 97 700 97 700 127 700 c 2,8,-1
EndSplineSet
Position2: "'cpsp' Capital Spacing lookup 0 subtable" dx=5 dy=0 dh=10 dv=0
EndChar

StartChar: Edotbelow
Encoding: 7864 7864 54
Width: 546
GlyphClass: 2
Flags: MW
HStem: -175 95<288 316> 0 76<116.5 477 185 477 185 477> 320 76<185 446 185 446> 624 76<185 476 185 185>
VStem: 97 88<76 320 396 624> 260 84<-153 -102 -159.5 -95.5>
AnchorPoint: "Anchor-1" 305 -82 basechar 0
AnchorPoint: "Anchor-0" 300 -203 basechar 0
LayerCount: 2
Fore
SplineSet
127 700 m 2,0,-1
 476 700 l 2,1,2
 496 700 496 700 496 670 c 2,3,-1
 496 654 l 2,4,5
 496 624 496 624 476 624 c 2,6,-1
 185 624 l 1,7,-1
 185 396 l 1,8,-1
 446 396 l 2,9,10
 466 396 466 396 466 366 c 2,11,-1
 466 350 l 2,12,13
 466 320 466 320 446 320 c 2,14,-1
 185 320 l 1,15,-1
 185 76 l 1,16,-1
 477 76 l 2,17,18
 497 76 497 76 497 46 c 2,19,-1
 497 30 l 2,20,21
 497 0 497 0 477 0 c 2,22,-1
 127 0 l 2,23,24
 97 0 97 0 97 30 c 2,25,-1
 97 670 l 2,26,27
 97 700 97 700 127 700 c 2,0,-1
260 -102 m 2,28,29
 260 -80 260 -80 302 -80 c 128,-1,30
 344 -80 344 -80 344 -102 c 2,31,-1
 344 -153 l 2,32,33
 344 -175 344 -175 302 -175 c 128,-1,34
 260 -175 260 -175 260 -153 c 2,35,-1
 260 -102 l 2,28,29
EndSplineSet
Position2: "'cpsp' Capital Spacing lookup 0 subtable" dx=5 dy=0 dh=10 dv=0
EndChar

StartChar: Egrave
Encoding: 200 200 55
Width: 546
GlyphClass: 2
Flags: MW
HStem: 0 76<116.5 477 185 477 185 477> 320 76<185 446 185 446> 624 76<185 476 185 185>
VStem: 97 88<76 320 396 624>
AnchorPoint: "Anchor-1" 291 877 basechar 0
AnchorPoint: "Anchor-0" 300 0 basechar 0
LayerCount: 2
Fore
SplineSet
178 896 m 0,0,1
 178 909 178 909 225.5 909 c 128,-1,2
 273 909 273 909 288 883 c 0,3,4
 346 782 346 782 346 772 c 128,-1,5
 346 762 346 762 317 762 c 128,-1,6
 288 762 288 762 272 780 c 0,7,8
 183.917556813 880.665649357 183.917556813 880.665649357 180.958778406 886.46367756 c 128,-1,9
 178 892.261705764 178 892.261705764 178 896 c 0,0,1
127 700 m 2,10,-1
 476 700 l 2,11,12
 496 700 496 700 496 670 c 2,13,-1
 496 654 l 2,14,15
 496 624 496 624 476 624 c 2,16,-1
 185 624 l 1,17,-1
 185 396 l 1,18,-1
 446 396 l 2,19,20
 466 396 466 396 466 366 c 2,21,-1
 466 350 l 2,22,23
 466 320 466 320 446 320 c 2,24,-1
 185 320 l 1,25,-1
 185 76 l 1,26,-1
 477 76 l 2,27,28
 497 76 497 76 497 46 c 2,29,-1
 497 30 l 2,30,31
 497 0 497 0 477 0 c 2,32,-1
 127 0 l 2,33,34
 97 0 97 0 97 30 c 2,35,-1
 97 670 l 2,36,37
 97 700 97 700 127 700 c 2,10,-1
EndSplineSet
Position2: "'cpsp' Capital Spacing lookup 0 subtable" dx=5 dy=0 dh=10 dv=0
EndChar

StartChar: Ehookabove
Encoding: 7866 7866 56
Width: 546
GlyphClass: 2
Flags: MW
HStem: 0 76<116.5 477 185 477 185 477> 320 76<185 446 185 446> 624 76<185 476 185 185> 876 51<285.5 305>
VStem: 97 88<76 320 396 624> 332 62<824 858>
AnchorPoint: "Anchor-1" 297 877 basechar 0
AnchorPoint: "Anchor-0" 300 0 basechar 0
LayerCount: 2
Fore
SplineSet
332 849 m 0,0,1
 332 876 332 876 295 876 c 0,2,3
 270.428571429 876 270.428571429 876 260.214285714 869.5 c 128,-1,4
 250 863 250 863 249 863 c 0,5,6
 243 863 243 863 234 875.5 c 128,-1,7
 225 888 225 888 225 897 c 128,-1,8
 225 906 225 906 251 916.5 c 128,-1,9
 277 927 277 927 306.5 927 c 128,-1,10
 336 927 336 927 365 910 c 128,-1,11
 394 893 394 893 394 853 c 128,-1,12
 394 813 394 813 356.5 776.5 c 128,-1,13
 319 740 319 740 303 740 c 0,14,15
 295 740 295 740 282.5 745.5 c 128,-1,16
 270 751 270 751 270 759.5 c 128,-1,17
 270 768 270 768 285.5 781 c 128,-1,18
 301 794 301 794 316.5 811 c 128,-1,19
 332 828 332 828 332 849 c 0,0,1
127 700 m 2,20,-1
 476 700 l 2,21,22
 496 700 496 700 496 670 c 2,23,-1
 496 654 l 2,24,25
 496 624 496 624 476 624 c 2,26,-1
 185 624 l 1,27,-1
 185 396 l 1,28,-1
 446 396 l 2,29,30
 466 396 466 396 466 366 c 2,31,-1
 466 350 l 2,32,33
 466 320 466 320 446 320 c 2,34,-1
 185 320 l 1,35,-1
 185 76 l 1,36,-1
 477 76 l 2,37,38
 497 76 497 76 497 46 c 2,39,-1
 497 30 l 2,40,41
 497 0 497 0 477 0 c 2,42,-1
 127 0 l 2,43,44
 97 0 97 0 97 30 c 2,45,-1
 97 670 l 2,46,47
 97 700 97 700 127 700 c 2,20,-1
EndSplineSet
Position2: "'cpsp' Capital Spacing lookup 0 subtable" dx=5 dy=0 dh=10 dv=0
EndChar

StartChar: Emacron
Encoding: 274 274 57
Width: 546
GlyphClass: 2
Flags: MW
HStem: 0 76<116.5 477 185 477 185 477> 320 76<185 446 185 446> 624 76<185 476 185 185> 789 70<178 408 185 408>
VStem: 97 88<76 320 396 624>
AnchorPoint: "Anchor-1" 295 877 basechar 0
AnchorPoint: "Anchor-0" 300 0 basechar 0
LayerCount: 2
Fore
SplineSet
185 859 m 2,0,-1
 408 859 l 2,1,2
 428 859 428 859 428 829 c 2,3,-1
 428 819 l 2,4,5
 428 789 428 789 408 789 c 2,6,-1
 185 789 l 2,7,8
 165 789 165 789 165 819 c 2,9,-1
 165 829 l 2,10,11
 165 859 165 859 185 859 c 2,0,-1
127 700 m 2,12,-1
 476 700 l 2,13,14
 496 700 496 700 496 670 c 2,15,-1
 496 654 l 2,16,17
 496 624 496 624 476 624 c 2,18,-1
 185 624 l 1,19,-1
 185 396 l 1,20,-1
 446 396 l 2,21,22
 466 396 466 396 466 366 c 2,23,-1
 466 350 l 2,24,25
 466 320 466 320 446 320 c 2,26,-1
 185 320 l 1,27,-1
 185 76 l 1,28,-1
 477 76 l 2,29,30
 497 76 497 76 497 46 c 2,31,-1
 497 30 l 2,32,33
 497 0 497 0 477 0 c 2,34,-1
 127 0 l 2,35,36
 97 0 97 0 97 30 c 2,37,-1
 97 670 l 2,38,39
 97 700 97 700 127 700 c 2,12,-1
EndSplineSet
Position2: "'cpsp' Capital Spacing lookup 0 subtable" dx=5 dy=0 dh=10 dv=0
EndChar

StartChar: Eogonek
Encoding: 280 280 58
Width: 546
GlyphClass: 2
Flags: MW
HStem: -183 70<515.5 534.5 515.5 541> 0 76<116.5 477 185 423 477 484> 320 76<185 446 185 446> 624 76<185 476 185 185>
VStem: 97 88<76 320 396 624> 398 67<-86 -71>
AnchorPoint: "Anchor-1" 296 700 basechar 0
AnchorPoint: "Anchor-0" 390 -203 basechar 0
LayerCount: 2
Fore
SplineSet
527 -113 m 1,0,-1
 579 -103 l 1,1,2
 598 -103 598 -103 598 -131.5 c 128,-1,3
 598 -160 598 -160 577.5 -171.5 c 128,-1,4
 557 -183 557 -183 518 -183 c 128,-1,5
 479 -183 479 -183 453 -171.5 c 128,-1,6
 427 -160 427 -160 416.5 -142 c 0,7,8
 398 -110.285714286 398 -110.285714286 398 -81 c 0,9,10
 398 -24 398 -24 423 0 c 1,11,-1
 127 0 l 2,12,13
 97 0 97 0 97 30 c 2,14,-1
 97 670 l 2,15,16
 97 700 97 700 127 700 c 2,17,-1
 476 700 l 2,18,19
 496 700 496 700 496 670 c 2,20,-1
 496 654 l 2,21,22
 496 624 496 624 476 624 c 2,23,-1
 185 624 l 1,24,-1
 185 396 l 1,25,-1
 446 396 l 2,26,27
 466 396 466 396 466 366 c 2,28,-1
 466 350 l 2,29,30
 466 320 466 320 446 320 c 2,31,-1
 185 320 l 1,32,-1
 185 76 l 1,33,-1
 477 76 l 2,34,35
 497 76 497 76 497 46 c 2,36,-1
 497 30 l 2,37,38
 497 0 497 0 477 0 c 1,39,-1
 477 -1 l 2,40,41
 477 -7 477 -7 471 -28 c 128,-1,42
 465 -49 465 -49 465 -62 c 0,43,44
 465 -113 465 -113 527 -113 c 1,0,-1
EndSplineSet
Position2: "'cpsp' Capital Spacing lookup 0 subtable" dx=5 dy=0 dh=10 dv=0
EndChar

StartChar: Etilde
Encoding: 7868 7868 59
Width: 546
GlyphClass: 2
Flags: MW
HStem: 0 76<116.5 477 185 477 185 477> 320 76<185 446 185 446> 624 76<185 476 185 185> 762 64<353 370.5> 792 64<222.5 240.5>
VStem: 97 88<76 320 396 624>
AnchorPoint: "Anchor-1" 306 877 basechar 0
AnchorPoint: "Anchor-0" 300 0 basechar 0
LayerCount: 2
Fore
SplineSet
421 849 m 0,0,1
 440 862 440 862 457 842 c 0,2,3
 474 822 474 822 453 803 c 0,4,5
 397 762 397 762 354 762 c 0,6,7
 311 762 311 762 279 777 c 0,8,9
 247 792 247 792 225.5 792 c 0,10,11
 204 792 204 792 178 774.5 c 0,12,13
 152 757 152 757 135.5 779.5 c 0,14,15
 119 802 119 802 139 816 c 0,16,17
 197 856 197 856 236 856 c 0,18,19
 275 856 275 856 305 841 c 0,20,21
 335 826 335 826 360.5 826 c 0,22,23
 386 826 386 826 421 849 c 0,0,1
127 700 m 2,24,-1
 476 700 l 2,25,26
 496 700 496 700 496 670 c 2,27,-1
 496 654 l 2,28,29
 496 624 496 624 476 624 c 2,30,-1
 185 624 l 1,31,-1
 185 396 l 1,32,-1
 446 396 l 2,33,34
 466 396 466 396 466 366 c 2,35,-1
 466 350 l 2,36,37
 466 320 466 320 446 320 c 2,38,-1
 185 320 l 1,39,-1
 185 76 l 1,40,-1
 477 76 l 2,41,42
 497 76 497 76 497 46 c 2,43,-1
 497 30 l 2,44,45
 497 0 497 0 477 0 c 2,46,-1
 127 0 l 2,47,48
 97 0 97 0 97 30 c 2,49,-1
 97 670 l 2,50,51
 97 700 97 700 127 700 c 2,24,-1
EndSplineSet
Position2: "'cpsp' Capital Spacing lookup 0 subtable" dx=5 dy=0 dh=10 dv=0
EndChar

StartChar: F
Encoding: 70 70 60
Width: 503
GlyphClass: 2
Flags: MW
HStem: 320 76<185 424 185 424> 624 76<185 442 185 185>
VStem: 97 88<20 320 396 624>
LayerCount: 2
Fore
SplineSet
127 700 m 2,0,-1
 442 700 l 2,1,2
 462 700 462 700 462 670 c 2,3,-1
 462 654 l 2,4,5
 462 624 462 624 442 624 c 2,6,-1
 185 624 l 1,7,-1
 185 396 l 1,8,-1
 424 396 l 2,9,10
 444 396 444 396 444 366 c 2,11,-1
 444 350 l 2,12,13
 444 320 444 320 424 320 c 2,14,-1
 185 320 l 1,15,-1
 185 20 l 2,16,17
 185 -2 185 -2 145 -2 c 2,18,-1
 137 -2 l 2,19,20
 97 -2 97 -2 97 20 c 2,21,-1
 97 670 l 2,22,23
 97 700 97 700 127 700 c 2,0,-1
EndSplineSet
Position2: "'cpsp' Capital Spacing lookup 0 subtable" dx=5 dy=0 dh=10 dv=0
EndChar

StartChar: G
Encoding: 71 71 61
Width: 672
GlyphClass: 2
Flags: MW
HStem: -6 76<283 398 283 423> 285 76<377 559 384 501> 630 76<294.5 430.5 276.5 431>
VStem: 57 91<276.5 440 276.5 468.5> 501 88<83 285 285 285>
AnchorPoint: "Anchor-1" 336 700 basechar 0
AnchorPoint: "Anchor-0" 387 0 basechar 0
LayerCount: 2
Fore
SplineSet
381 706 m 0,0,1
 453 706 453 706 512.5 685.5 c 128,-1,2
 572 665 572 665 572 644 c 0,3,4
 572 630 572 630 559.5 608 c 128,-1,5
 547 586 547 586 538 586 c 0,6,7
 536 586 536 586 516.5 597 c 128,-1,8
 497 608 497 608 461 619 c 128,-1,9
 425 630 425 630 383 630 c 0,10,11
 256 630 256 630 202 560 c 128,-1,12
 148 490 148 490 148 353 c 0,13,14
 148 70 148 70 372 70 c 0,15,16
 451 70 451 70 501 83 c 1,17,-1
 501 285 l 1,18,-1
 384 285 l 2,19,20
 364 285 364 285 364 315 c 2,21,-1
 364 331 l 2,22,23
 364 361 364 361 384 361 c 2,24,-1
 559 361 l 2,25,26
 589 361 589 361 589 331 c 2,27,-1
 589 66 l 2,28,29
 589 -6 589 -6 366 -6 c 0,30,31
 57 -6 57 -6 57 344 c 0,32,33
 57 706 57 706 381 706 c 0,0,1
EndSplineSet
Position2: "'cpsp' Capital Spacing lookup 0 subtable" dx=5 dy=0 dh=10 dv=0
EndChar

StartChar: Gbreve
Encoding: 286 286 62
Width: 672
GlyphClass: 2
Flags: MW
HStem: -6 76<283 398 283 423> 285 76<377 559 384 501> 630 76<294.5 430.5 276.5 431> 762 66<312.5 361.5 312.5 372.5>
VStem: 57 91<276.5 440 276.5 468.5> 501 88<83 285 285 285>
AnchorPoint: "Anchor-1" 337 848 basechar 0
AnchorPoint: "Anchor-0" 387 0 basechar 0
LayerCount: 2
Fore
SplineSet
466 892 m 0,0,1
 481 892 481 892 481 877 c 0,2,3
 481 823 481 823 438 792.5 c 128,-1,4
 395 762 395 762 336.5 762 c 128,-1,5
 278 762 278 762 235 792.5 c 128,-1,6
 192 823 192 823 192 877 c 0,7,8
 192 892 192 892 207 892 c 0,9,10
 218.4 892 218.4 892 220.2 887.5 c 0,11,12
 226 873 226 873 229 867 c 0,13,14
 250 828 250 828 336.5 828 c 0,15,16
 431.666666667 828 431.666666667 828 447.5 875.5 c 0,17,18
 452 889 452 889 456.5 890.5 c 128,-1,19
 461 892 461 892 466 892 c 0,0,1
381 706 m 0,20,21
 453 706 453 706 512.5 685.5 c 128,-1,22
 572 665 572 665 572 644 c 0,23,24
 572 630 572 630 559.5 608 c 128,-1,25
 547 586 547 586 538 586 c 0,26,27
 536 586 536 586 516.5 597 c 128,-1,28
 497 608 497 608 461 619 c 128,-1,29
 425 630 425 630 383 630 c 0,30,31
 256 630 256 630 202 560 c 128,-1,32
 148 490 148 490 148 353 c 0,33,34
 148 70 148 70 372 70 c 0,35,36
 451 70 451 70 501 83 c 1,37,-1
 501 285 l 1,38,-1
 384 285 l 2,39,40
 364 285 364 285 364 315 c 2,41,-1
 364 331 l 2,42,43
 364 361 364 361 384 361 c 2,44,-1
 559 361 l 2,45,46
 589 361 589 361 589 331 c 2,47,-1
 589 66 l 2,48,49
 589 -6 589 -6 366 -6 c 0,50,51
 57 -6 57 -6 57 344 c 0,52,53
 57 706 57 706 381 706 c 0,20,21
EndSplineSet
Position2: "'cpsp' Capital Spacing lookup 0 subtable" dx=5 dy=0 dh=10 dv=0
EndChar

StartChar: Gcircumflex
Encoding: 284 284 63
Width: 672
GlyphClass: 2
Flags: MW
HStem: -6 76<283 398 283 423> 285 76<377 559 384 501> 630 76<294.5 430.5 276.5 431> 753 142<230.5 348 238 348 323 431 323 433>
VStem: 57 91<276.5 440 276.5 468.5> 501 88<83 285 285 285>
AnchorPoint: "Anchor-1" 495 793 basechar 0
AnchorPoint: "Anchor-0" 387 0 basechar 0
LayerCount: 2
Fore
SplineSet
323 895 m 2,0,-1
 348 895 l 2,1,2
 379 895 379 895 394 873 c 2,3,-1
 451 785 l 2,4,5
 457 776 457 776 457 768 c 0,6,7
 457 753 457 753 433 753 c 2,8,-1
 431 753 l 2,9,10
 412 753 412 753 398 766 c 1,11,-1
 335 840 l 1,12,-1
 274 766 l 1,13,14
 260 753 260 753 240 753 c 2,15,-1
 238 753 l 2,16,17
 215 753 215 753 215 767 c 0,18,19
 215 774.5 215 774.5 221 785 c 2,20,-1
 277 873 l 2,21,22
 292 895 292 895 323 895 c 2,0,-1
381 706 m 0,23,24
 453 706 453 706 512.5 685.5 c 128,-1,25
 572 665 572 665 572 644 c 0,26,27
 572 630 572 630 559.5 608 c 128,-1,28
 547 586 547 586 538 586 c 0,29,30
 536 586 536 586 516.5 597 c 128,-1,31
 497 608 497 608 461 619 c 128,-1,32
 425 630 425 630 383 630 c 0,33,34
 256 630 256 630 202 560 c 128,-1,35
 148 490 148 490 148 353 c 0,36,37
 148 70 148 70 372 70 c 0,38,39
 451 70 451 70 501 83 c 1,40,-1
 501 285 l 1,41,-1
 384 285 l 2,42,43
 364 285 364 285 364 315 c 2,44,-1
 364 331 l 2,45,46
 364 361 364 361 384 361 c 2,47,-1
 559 361 l 2,48,49
 589 361 589 361 589 331 c 2,50,-1
 589 66 l 2,51,52
 589 -6 589 -6 366 -6 c 0,53,54
 57 -6 57 -6 57 344 c 0,55,56
 57 706 57 706 381 706 c 0,23,24
EndSplineSet
Position2: "'cpsp' Capital Spacing lookup 0 subtable" dx=5 dy=0 dh=10 dv=0
EndChar

StartChar: Gcommaaccent
Encoding: 290 290 64
Width: 672
GlyphClass: 2
Flags: MW
HStem: -6 76<283 398 283 423> 285 76<377 559 384 501> 630 76<294.5 430.5 276.5 431>
VStem: 57 91<276.5 440 276.5 468.5> 342 89<-121 -73.5> 501 88<83 285 285 285>
AnchorPoint: "Anchor-1" 336 700 basechar 0
AnchorPoint: "Anchor-0" 383 -203 basechar 0
LayerCount: 2
Fore
SplineSet
381 706 m 0,0,1
 453 706 453 706 512.5 685.5 c 128,-1,2
 572 665 572 665 572 644 c 0,3,4
 572 630 572 630 559.5 608 c 128,-1,5
 547 586 547 586 538 586 c 0,6,7
 536 586 536 586 516.5 597 c 128,-1,8
 497 608 497 608 461 619 c 128,-1,9
 425 630 425 630 383 630 c 0,10,11
 256 630 256 630 202 560 c 128,-1,12
 148 490 148 490 148 353 c 0,13,14
 148 70 148 70 372 70 c 0,15,16
 451 70 451 70 501 83 c 1,17,-1
 501 285 l 1,18,-1
 384 285 l 2,19,20
 364 285 364 285 364 315 c 2,21,-1
 364 331 l 2,22,23
 364 361 364 361 384 361 c 2,24,-1
 559 361 l 2,25,26
 589 361 589 361 589 331 c 2,27,-1
 589 66 l 2,28,29
 589 -6 589 -6 366 -6 c 0,30,31
 57 -6 57 -6 57 344 c 0,32,33
 57 706 57 706 381 706 c 0,0,1
382 -51 m 2,34,-1
 391 -51 l 2,35,36
 431 -51 431 -51 431 -79 c 0,37,38
 431 -144 431 -144 394.5 -189.5 c 128,-1,39
 358 -235 358 -235 328.5 -235 c 0,40,41
 299 -235 299 -235 299 -220 c 0,42,43
 299 -215 299 -215 320.5 -171.5 c 128,-1,44
 342 -128 342 -128 342 -83 c 0,45,46
 342 -51 342 -51 382 -51 c 2,34,-1
EndSplineSet
Position2: "'cpsp' Capital Spacing lookup 0 subtable" dx=5 dy=0 dh=10 dv=0
EndChar

StartChar: Gdotaccent
Encoding: 288 288 65
Width: 672
GlyphClass: 2
Flags: MW
HStem: -6 76<283 398 283 423> 285 76<377 559 384 501> 630 76<294.5 430.5 276.5 431> 784 95<322 350>
VStem: 57 91<276.5 440 276.5 468.5> 294 84<806 857 799.5 863.5> 501 88<83 285 285 285>
AnchorPoint: "Anchor-1" 339 877 basechar 0
AnchorPoint: "Anchor-0" 387 0 basechar 0
LayerCount: 2
Fore
SplineSet
294 857 m 2,0,1
 294 879 294 879 336 879 c 128,-1,2
 378 879 378 879 378 857 c 2,3,-1
 378 806 l 2,4,5
 378 784 378 784 336 784 c 128,-1,6
 294 784 294 784 294 806 c 2,7,-1
 294 857 l 2,0,1
381 706 m 0,8,9
 453 706 453 706 512.5 685.5 c 128,-1,10
 572 665 572 665 572 644 c 0,11,12
 572 630 572 630 559.5 608 c 128,-1,13
 547 586 547 586 538 586 c 0,14,15
 536 586 536 586 516.5 597 c 128,-1,16
 497 608 497 608 461 619 c 128,-1,17
 425 630 425 630 383 630 c 0,18,19
 256 630 256 630 202 560 c 128,-1,20
 148 490 148 490 148 353 c 0,21,22
 148 70 148 70 372 70 c 0,23,24
 451 70 451 70 501 83 c 1,25,-1
 501 285 l 1,26,-1
 384 285 l 2,27,28
 364 285 364 285 364 315 c 2,29,-1
 364 331 l 2,30,31
 364 361 364 361 384 361 c 2,32,-1
 559 361 l 2,33,34
 589 361 589 361 589 331 c 2,35,-1
 589 66 l 2,36,37
 589 -6 589 -6 366 -6 c 0,38,39
 57 -6 57 -6 57 344 c 0,40,41
 57 706 57 706 381 706 c 0,8,9
EndSplineSet
Position2: "'cpsp' Capital Spacing lookup 0 subtable" dx=5 dy=0 dh=10 dv=0
EndChar

StartChar: H
Encoding: 72 72 66
Width: 733
GlyphClass: 2
Flags: MW
HStem: 321 76<185 547 185 547> 682 20G<137 145 145 159 587 595 595 609>
VStem: 97 88<20 321 397 680> 547 88<20 321 321 321 397 680>
AnchorPoint: "Anchor-1" 367 700 basechar 0
AnchorPoint: "Anchor-0" 376 0 basechar 0
LayerCount: 2
Fore
SplineSet
587 702 m 2,0,-1
 595 702 l 2,1,2
 635 702 635 702 635 680 c 2,3,-1
 635 20 l 2,4,5
 635 -2 635 -2 595 -2 c 2,6,-1
 587 -2 l 2,7,8
 547 -2 547 -2 547 20 c 2,9,-1
 547 321 l 1,10,-1
 185 321 l 1,11,-1
 185 20 l 2,12,13
 185 -2 185 -2 145 -2 c 2,14,-1
 137 -2 l 2,15,16
 97 -2 97 -2 97 20 c 2,17,-1
 97 680 l 2,18,19
 97 702 97 702 137 702 c 2,20,-1
 145 702 l 2,21,22
 185 702 185 702 185 680 c 2,23,-1
 185 397 l 1,24,-1
 547 397 l 1,25,-1
 547 680 l 2,26,27
 547 702 547 702 587 702 c 2,0,-1
EndSplineSet
Position2: "'cpsp' Capital Spacing lookup 0 subtable" dx=5 dy=0 dh=10 dv=0
EndChar

StartChar: Hbar
Encoding: 294 294 67
Width: 733
GlyphClass: 2
Flags: MW
HStem: 321 76<185 547 185 547> 491 70<66 97 73 97 185 547 635 656> 682 20G<137 145 145 159 587 595 595 609>
VStem: 97 88<20 321 397 491 561 680> 547 88<20 321 321 321 397 491 561 680>
AnchorPoint: "Anchor-1" 367 700 basechar 0
AnchorPoint: "Anchor-0" 376 0 basechar 0
LayerCount: 2
Fore
SplineSet
635 561 m 1,0,-1
 656 561 l 2,1,2
 676 561 676 561 676 531 c 2,3,-1
 676 521 l 2,4,5
 676 491 676 491 656 491 c 2,6,-1
 635 491 l 1,7,-1
 635 20 l 2,8,9
 635 -2 635 -2 595 -2 c 2,10,-1
 587 -2 l 2,11,12
 547 -2 547 -2 547 20 c 2,13,-1
 547 321 l 1,14,-1
 185 321 l 1,15,-1
 185 20 l 2,16,17
 185 -2 185 -2 145 -2 c 2,18,-1
 137 -2 l 2,19,20
 97 -2 97 -2 97 20 c 2,21,-1
 97 491 l 1,22,-1
 73 491 l 2,23,24
 53 491 53 491 53 521 c 2,25,-1
 53 531 l 2,26,27
 53 561 53 561 73 561 c 2,28,-1
 97 561 l 1,29,-1
 97 680 l 2,30,31
 97 702 97 702 137 702 c 2,32,-1
 145 702 l 2,33,34
 185 702 185 702 185 680 c 2,35,-1
 185 561 l 1,36,-1
 547 561 l 1,37,-1
 547 680 l 2,38,39
 547 702 547 702 587 702 c 2,40,-1
 595 702 l 2,41,42
 635 702 635 702 635 680 c 2,43,-1
 635 561 l 1,0,-1
547 491 m 1,44,-1
 185 491 l 1,45,-1
 185 397 l 1,46,-1
 547 397 l 1,47,-1
 547 491 l 1,44,-1
EndSplineSet
Position2: "'cpsp' Capital Spacing lookup 0 subtable" dx=5 dy=0 dh=10 dv=0
EndChar

StartChar: Hcircumflex
Encoding: 292 292 68
Width: 733
GlyphClass: 2
Flags: MW
HStem: 321 76<185 547 185 547> 682 20G<137 145 145 159 587 595 595 609> 753 142<261.5 379 269 379 354 462 354 464>
VStem: 97 88<20 321 397 680> 547 88<20 321 321 321 397 680>
AnchorPoint: "Anchor-1" 526 793 basechar 0
AnchorPoint: "Anchor-0" 376 0 basechar 0
LayerCount: 2
Fore
SplineSet
354 895 m 2,0,-1
 379 895 l 2,1,2
 410 895 410 895 425 873 c 2,3,-1
 482 785 l 2,4,5
 488 776 488 776 488 768 c 0,6,7
 488 753 488 753 464 753 c 2,8,-1
 462 753 l 2,9,10
 443 753 443 753 429 766 c 1,11,-1
 366 840 l 1,12,-1
 305 766 l 1,13,14
 291 753 291 753 271 753 c 2,15,-1
 269 753 l 2,16,17
 246 753 246 753 246 767 c 0,18,19
 246 774.5 246 774.5 252 785 c 2,20,-1
 308 873 l 2,21,22
 323 895 323 895 354 895 c 2,0,-1
587 702 m 2,23,-1
 595 702 l 2,24,25
 635 702 635 702 635 680 c 2,26,-1
 635 20 l 2,27,28
 635 -2 635 -2 595 -2 c 2,29,-1
 587 -2 l 2,30,31
 547 -2 547 -2 547 20 c 2,32,-1
 547 321 l 1,33,-1
 185 321 l 1,34,-1
 185 20 l 2,35,36
 185 -2 185 -2 145 -2 c 2,37,-1
 137 -2 l 2,38,39
 97 -2 97 -2 97 20 c 2,40,-1
 97 680 l 2,41,42
 97 702 97 702 137 702 c 2,43,-1
 145 702 l 2,44,45
 185 702 185 702 185 680 c 2,46,-1
 185 397 l 1,47,-1
 547 397 l 1,48,-1
 547 680 l 2,49,50
 547 702 547 702 587 702 c 2,23,-1
EndSplineSet
Position2: "'cpsp' Capital Spacing lookup 0 subtable" dx=5 dy=0 dh=10 dv=0
EndChar

StartChar: Hdotbelow
Encoding: 7716 7716 69
Width: 733
GlyphClass: 2
Flags: MW
HStem: -175 95<364 392> 321 76<185 547 185 547> 682 20G<137 145 145 159 587 595 595 609>
VStem: 97 88<20 321 397 680> 336 84<-153 -102 -159.5 -95.5> 547 88<20 321 321 321 397 680>
AnchorPoint: "Anchor-1" 381 -82 basechar 0
AnchorPoint: "Anchor-0" 376 -203 basechar 0
LayerCount: 2
Fore
SplineSet
587 702 m 2,0,-1
 595 702 l 2,1,2
 635 702 635 702 635 680 c 2,3,-1
 635 20 l 2,4,5
 635 -2 635 -2 595 -2 c 2,6,-1
 587 -2 l 2,7,8
 547 -2 547 -2 547 20 c 2,9,-1
 547 321 l 1,10,-1
 185 321 l 1,11,-1
 185 20 l 2,12,13
 185 -2 185 -2 145 -2 c 2,14,-1
 137 -2 l 2,15,16
 97 -2 97 -2 97 20 c 2,17,-1
 97 680 l 2,18,19
 97 702 97 702 137 702 c 2,20,-1
 145 702 l 2,21,22
 185 702 185 702 185 680 c 2,23,-1
 185 397 l 1,24,-1
 547 397 l 1,25,-1
 547 680 l 2,26,27
 547 702 547 702 587 702 c 2,0,-1
336 -102 m 2,28,29
 336 -80 336 -80 378 -80 c 128,-1,30
 420 -80 420 -80 420 -102 c 2,31,-1
 420 -153 l 2,32,33
 420 -175 420 -175 378 -175 c 128,-1,34
 336 -175 336 -175 336 -153 c 2,35,-1
 336 -102 l 2,28,29
EndSplineSet
Position2: "'cpsp' Capital Spacing lookup 0 subtable" dx=5 dy=0 dh=10 dv=0
EndChar

StartChar: I
Encoding: 73 73 70
Width: 282
GlyphClass: 2
Flags: MW
HStem: 682 20G<137 145 145 159>
VStem: 97 88<20 680>
AnchorPoint: "Anchor-1" 141 700 basechar 0
AnchorPoint: "Anchor-0" 140 0 basechar 0
LayerCount: 2
Fore
SplineSet
137 702 m 2,0,-1
 145 702 l 2,1,2
 185 702 185 702 185 680 c 2,3,-1
 185 20 l 2,4,5
 185 -2 185 -2 145 -2 c 2,6,-1
 137 -2 l 2,7,8
 97 -2 97 -2 97 20 c 2,9,-1
 97 680 l 2,10,11
 97 702 97 702 137 702 c 2,0,-1
EndSplineSet
Position2: "'cpsp' Capital Spacing lookup 0 subtable" dx=5 dy=0 dh=10 dv=0
EndChar

StartChar: IJ
Encoding: 306 306 71
Width: 684
GlyphClass: 2
Flags: MW
HStem: -6 78<370 422.5 357 466> 682 20G<137 145 145 159 553 561 561 575>
VStem: 97 88<20 680> 513 88<195 205 205 680>
AnchorPoint: "Anchor-1" 553 700 basechar 0
AnchorPoint: "Anchor-0" 140 0 basechar 0
LayerCount: 2
Fore
SplineSet
137 702 m 2,0,-1
 145 702 l 2,1,2
 185 702 185 702 185 680 c 2,3,-1
 185 20 l 2,4,5
 185 -2 185 -2 145 -2 c 2,6,-1
 137 -2 l 2,7,8
 97 -2 97 -2 97 20 c 2,9,-1
 97 680 l 2,10,11
 97 702 97 702 137 702 c 2,0,-1
553 702 m 2,12,-1
 561 702 l 2,13,14
 601 702 601 702 601 680 c 2,15,-1
 601 205 l 2,16,17
 601 -6 601 -6 389 -6 c 0,18,19
 288 -6 288 -6 288 26 c 0,20,21
 288 36 288 36 294 58.5 c 128,-1,22
 300 81 300 81 310 81 c 0,23,24
 311 81 311 81 332.5 76.5 c 128,-1,25
 354 72 354 72 373 72 c 0,26,27
 447 72 447 72 480 101 c 128,-1,28
 513 130 513 130 513 195 c 2,29,-1
 513 680 l 2,30,31
 513 702 513 702 553 702 c 2,12,-1
EndSplineSet
Position2: "'cpsp' Capital Spacing lookup 0 subtable" dx=5 dy=0 dh=10 dv=0
EndChar

StartChar: Iacute
Encoding: 205 205 72
Width: 282
GlyphClass: 2
Flags: MW
HStem: 682 20G<137 145 145 159>
VStem: 97 88<20 680>
AnchorPoint: "Anchor-1" 147 877 basechar 0
AnchorPoint: "Anchor-0" 140 0 basechar 0
LayerCount: 2
Fore
SplineSet
159 883 m 0,0,1
 174 909 174 909 221.5 909 c 128,-1,2
 269 909 269 909 269 896 c 0,3,4
 269 889 269 889 259.5 877 c 128,-1,5
 250 865 250 865 220 831 c 2,6,-1
 175 780 l 2,7,8
 158 762 158 762 129.5 762 c 128,-1,9
 101 762 101 762 101 772 c 128,-1,10
 101 782 101 782 159 883 c 0,0,1
137 702 m 2,11,-1
 145 702 l 2,12,13
 185 702 185 702 185 680 c 2,14,-1
 185 20 l 2,15,16
 185 -2 185 -2 145 -2 c 2,17,-1
 137 -2 l 2,18,19
 97 -2 97 -2 97 20 c 2,20,-1
 97 680 l 2,21,22
 97 702 97 702 137 702 c 2,11,-1
EndSplineSet
Position2: "'cpsp' Capital Spacing lookup 0 subtable" dx=5 dy=0 dh=10 dv=0
EndChar

StartChar: Ibreve
Encoding: 300 300 73
Width: 282
GlyphClass: 2
Flags: MW
HStem: 682 20G<137 145 145 159> 762 66<116.5 165.5 116.5 176.5>
VStem: 97 88<20 680>
AnchorPoint: "Anchor-1" 141 848 basechar 0
AnchorPoint: "Anchor-0" 140 0 basechar 0
LayerCount: 2
Fore
SplineSet
270 892 m 0,0,1
 285 892 285 892 285 877 c 0,2,3
 285 823 285 823 242 792.5 c 128,-1,4
 199 762 199 762 140.5 762 c 128,-1,5
 82 762 82 762 39 792.5 c 128,-1,6
 -4 823 -4 823 -4 877 c 0,7,8
 -4 892 -4 892 11 892 c 0,9,10
 22.4 892 22.4 892 24.2 887.5 c 0,11,12
 30 873 30 873 33 867 c 0,13,14
 54 828 54 828 140.5 828 c 0,15,16
 235.666666667 828 235.666666667 828 251.5 875.5 c 0,17,18
 256 889 256 889 260.5 890.5 c 128,-1,19
 265 892 265 892 270 892 c 0,0,1
137 702 m 2,20,-1
 145 702 l 2,21,22
 185 702 185 702 185 680 c 2,23,-1
 185 20 l 2,24,25
 185 -2 185 -2 145 -2 c 2,26,-1
 137 -2 l 2,27,28
 97 -2 97 -2 97 20 c 2,29,-1
 97 680 l 2,30,31
 97 702 97 702 137 702 c 2,20,-1
EndSplineSet
Position2: "'cpsp' Capital Spacing lookup 0 subtable" dx=5 dy=0 dh=10 dv=0
EndChar

StartChar: Icircumflex
Encoding: 206 206 74
Width: 282
GlyphClass: 2
Flags: MW
HStem: 682 20G<137 145 145 159> 753 142<35.5 153 43 153 128 236 128 238>
VStem: 97 88<20 680>
AnchorPoint: "Anchor-1" 300 793 basechar 0
AnchorPoint: "Anchor-0" 140 0 basechar 0
LayerCount: 2
Fore
SplineSet
128 895 m 2,0,-1
 153 895 l 2,1,2
 184 895 184 895 199 873 c 2,3,-1
 256 785 l 2,4,5
 262 776 262 776 262 768 c 0,6,7
 262 753 262 753 238 753 c 2,8,-1
 236 753 l 2,9,10
 217 753 217 753 203 766 c 1,11,-1
 140 840 l 1,12,-1
 79 766 l 1,13,14
 65 753 65 753 45 753 c 2,15,-1
 43 753 l 2,16,17
 20 753 20 753 20 767 c 0,18,19
 20 774.5 20 774.5 26 785 c 2,20,-1
 82 873 l 2,21,22
 97 895 97 895 128 895 c 2,0,-1
137 702 m 2,23,-1
 145 702 l 2,24,25
 185 702 185 702 185 680 c 2,26,-1
 185 20 l 2,27,28
 185 -2 185 -2 145 -2 c 2,29,-1
 137 -2 l 2,30,31
 97 -2 97 -2 97 20 c 2,32,-1
 97 680 l 2,33,34
 97 702 97 702 137 702 c 2,23,-1
EndSplineSet
Position2: "'cpsp' Capital Spacing lookup 0 subtable" dx=5 dy=0 dh=10 dv=0
EndChar

StartChar: Idieresis
Encoding: 207 207 75
Width: 282
GlyphClass: 2
Flags: MW
HStem: 682 20G<137 145 145 159> 784 95<55 83 199 227>
VStem: 27 84<806 857 799.5 863.5> 97 88<20 680> 171 84<806 857 799.5 863.5>
AnchorPoint: "Anchor-1" 138 877 basechar 0
AnchorPoint: "Anchor-0" 140 0 basechar 0
LayerCount: 2
Fore
SplineSet
27 857 m 2,0,1
 27 879 27 879 69 879 c 128,-1,2
 111 879 111 879 111 857 c 2,3,-1
 111 806 l 2,4,5
 111 784 111 784 69 784 c 128,-1,6
 27 784 27 784 27 806 c 2,7,-1
 27 857 l 2,0,1
171 857 m 2,8,9
 171 879 171 879 213 879 c 128,-1,10
 255 879 255 879 255 857 c 2,11,-1
 255 806 l 2,12,13
 255 784 255 784 213 784 c 128,-1,14
 171 784 171 784 171 806 c 2,15,-1
 171 857 l 2,8,9
137 702 m 2,16,-1
 145 702 l 2,17,18
 185 702 185 702 185 680 c 2,19,-1
 185 20 l 2,20,21
 185 -2 185 -2 145 -2 c 2,22,-1
 137 -2 l 2,23,24
 97 -2 97 -2 97 20 c 2,25,-1
 97 680 l 2,26,27
 97 702 97 702 137 702 c 2,16,-1
EndSplineSet
Position2: "'cpsp' Capital Spacing lookup 0 subtable" dx=5 dy=0 dh=10 dv=0
EndChar

StartChar: Idotaccent
Encoding: 304 304 76
Width: 282
GlyphClass: 2
Flags: MW
HStem: 682 20G<137 145 145 159> 784 95<127 155>
VStem: 97 88<20 680>
AnchorPoint: "Anchor-1" 144 877 basechar 0
AnchorPoint: "Anchor-0" 140 0 basechar 0
LayerCount: 2
Fore
SplineSet
99 857 m 2,0,1
 99 879 99 879 141 879 c 128,-1,2
 183 879 183 879 183 857 c 2,3,-1
 183 806 l 2,4,5
 183 784 183 784 141 784 c 128,-1,6
 99 784 99 784 99 806 c 2,7,-1
 99 857 l 2,0,1
137 702 m 2,8,-1
 145 702 l 2,9,10
 185 702 185 702 185 680 c 2,11,-1
 185 20 l 2,12,13
 185 -2 185 -2 145 -2 c 2,14,-1
 137 -2 l 2,15,16
 97 -2 97 -2 97 20 c 2,17,-1
 97 680 l 2,18,19
 97 702 97 702 137 702 c 2,8,-1
EndSplineSet
Position2: "'cpsp' Capital Spacing lookup 0 subtable" dx=5 dy=0 dh=10 dv=0
EndChar

StartChar: Idotbelow
Encoding: 7882 7882 77
Width: 282
GlyphClass: 2
Flags: MW
HStem: -175 95<128 156> 682 20G<137 145 145 159>
VStem: 97 88<20 680> 100 84<-153 -102 -159.5 -95.5>
AnchorPoint: "Anchor-1" 145 -82 basechar 0
AnchorPoint: "Anchor-0" 140 -203 basechar 0
LayerCount: 2
Fore
SplineSet
137 702 m 2,0,-1
 145 702 l 2,1,2
 185 702 185 702 185 680 c 2,3,-1
 185 20 l 2,4,5
 185 -2 185 -2 145 -2 c 2,6,-1
 137 -2 l 2,7,8
 97 -2 97 -2 97 20 c 2,9,-1
 97 680 l 2,10,11
 97 702 97 702 137 702 c 2,0,-1
100 -102 m 2,12,13
 100 -80 100 -80 142 -80 c 128,-1,14
 184 -80 184 -80 184 -102 c 2,15,-1
 184 -153 l 2,16,17
 184 -175 184 -175 142 -175 c 128,-1,18
 100 -175 100 -175 100 -153 c 2,19,-1
 100 -102 l 2,12,13
EndSplineSet
Position2: "'cpsp' Capital Spacing lookup 0 subtable" dx=5 dy=0 dh=10 dv=0
EndChar

StartChar: Igrave
Encoding: 204 204 78
Width: 282
GlyphClass: 2
Flags: MW
HStem: 682 20G<137 145 145 159>
VStem: 97 88<20 680>
AnchorPoint: "Anchor-1" 136 877 basechar 0
AnchorPoint: "Anchor-0" 140 0 basechar 0
LayerCount: 2
Fore
SplineSet
23 896 m 0,0,1
 23 909 23 909 70.5 909 c 128,-1,2
 118 909 118 909 133 883 c 0,3,4
 191 782 191 782 191 772 c 128,-1,5
 191 762 191 762 162.5 762 c 128,-1,6
 134 762 134 762 117 780 c 0,7,8
 28.9175568126 880.665649357 28.9175568126 880.665649357 25.9587784063 886.46367756 c 128,-1,9
 23 892.261705764 23 892.261705764 23 896 c 0,0,1
137 702 m 2,10,-1
 145 702 l 2,11,12
 185 702 185 702 185 680 c 2,13,-1
 185 20 l 2,14,15
 185 -2 185 -2 145 -2 c 2,16,-1
 137 -2 l 2,17,18
 97 -2 97 -2 97 20 c 2,19,-1
 97 680 l 2,20,21
 97 702 97 702 137 702 c 2,10,-1
EndSplineSet
Position2: "'cpsp' Capital Spacing lookup 0 subtable" dx=5 dy=0 dh=10 dv=0
EndChar

StartChar: Ihookabove
Encoding: 7880 7880 79
Width: 282
GlyphClass: 2
Flags: MW
HStem: 682 20G<137 145 145 159> 876 51<130.5 150>
VStem: 97 88<20 680> 177 62<824 858>
AnchorPoint: "Anchor-1" 142 877 basechar 0
AnchorPoint: "Anchor-0" 140 0 basechar 0
LayerCount: 2
Fore
SplineSet
177 849 m 0,0,1
 177 876 177 876 140 876 c 0,2,3
 115.428571429 876 115.428571429 876 105.214285714 869.5 c 128,-1,4
 95 863 95 863 94 863 c 0,5,6
 88 863 88 863 79 875.5 c 128,-1,7
 70 888 70 888 70 897 c 128,-1,8
 70 906 70 906 96 916.5 c 128,-1,9
 122 927 122 927 151.5 927 c 128,-1,10
 181 927 181 927 210 910 c 128,-1,11
 239 893 239 893 239 853 c 128,-1,12
 239 813 239 813 201.5 776.5 c 128,-1,13
 164 740 164 740 148 740 c 0,14,15
 140 740 140 740 127.5 745.5 c 128,-1,16
 115 751 115 751 115 759.5 c 128,-1,17
 115 768 115 768 130.5 781 c 128,-1,18
 146 794 146 794 161.5 811 c 128,-1,19
 177 828 177 828 177 849 c 0,0,1
137 702 m 2,20,-1
 145 702 l 2,21,22
 185 702 185 702 185 680 c 2,23,-1
 185 20 l 2,24,25
 185 -2 185 -2 145 -2 c 2,26,-1
 137 -2 l 2,27,28
 97 -2 97 -2 97 20 c 2,29,-1
 97 680 l 2,30,31
 97 702 97 702 137 702 c 2,20,-1
EndSplineSet
Position2: "'cpsp' Capital Spacing lookup 0 subtable" dx=5 dy=0 dh=10 dv=0
EndChar

StartChar: Imacron
Encoding: 298 298 80
Width: 282
GlyphClass: 2
Flags: MW
HStem: 682 20G<137 145 145 159> 789 70<22 252 29 252>
VStem: 97 88<20 680>
AnchorPoint: "Anchor-1" 139 877 basechar 0
AnchorPoint: "Anchor-0" 140 0 basechar 0
LayerCount: 2
Fore
SplineSet
29 859 m 2,0,-1
 252 859 l 2,1,2
 272 859 272 859 272 829 c 2,3,-1
 272 819 l 2,4,5
 272 789 272 789 252 789 c 2,6,-1
 29 789 l 2,7,8
 9 789 9 789 9 819 c 2,9,-1
 9 829 l 2,10,11
 9 859 9 859 29 859 c 2,0,-1
137 702 m 2,12,-1
 145 702 l 2,13,14
 185 702 185 702 185 680 c 2,15,-1
 185 20 l 2,16,17
 185 -2 185 -2 145 -2 c 2,18,-1
 137 -2 l 2,19,20
 97 -2 97 -2 97 20 c 2,21,-1
 97 680 l 2,22,23
 97 702 97 702 137 702 c 2,12,-1
EndSplineSet
Position2: "'cpsp' Capital Spacing lookup 0 subtable" dx=5 dy=0 dh=10 dv=0
EndChar

StartChar: Iogonek
Encoding: 302 302 81
Width: 282
GlyphClass: 2
Flags: MW
HStem: -183 70<204.5 223.5 204.5 230> 682 20G<137 145 145 159>
VStem: 97 88<20 680>
AnchorPoint: "Anchor-1" 141 700 basechar 0
AnchorPoint: "Anchor-0" 79 -203 basechar 0
LayerCount: 2
Fore
SplineSet
216 -113 m 1,0,-1
 268 -103 l 1,1,2
 287 -103 287 -103 287 -131.5 c 128,-1,3
 287 -160 287 -160 266.5 -171.5 c 128,-1,4
 246 -183 246 -183 207 -183 c 128,-1,5
 168 -183 168 -183 142 -171.5 c 128,-1,6
 116 -160 116 -160 105.5 -142 c 0,7,8
 87 -110.285714286 87 -110.285714286 87 -81 c 0,9,10
 87 -23 87 -23 113 1 c 1,11,12
 97 7 97 7 97 20 c 2,13,-1
 97 680 l 2,14,15
 97 702 97 702 137 702 c 2,16,-1
 145 702 l 2,17,18
 185 702 185 702 185 680 c 2,19,-1
 185 20 l 2,20,21
 185 4 185 4 166 0 c 1,22,-1
 166 -1 l 2,23,24
 166 -7 166 -7 160 -28 c 128,-1,25
 154 -49 154 -49 154 -62 c 0,26,27
 154 -113 154 -113 216 -113 c 1,0,-1
EndSplineSet
Position2: "'cpsp' Capital Spacing lookup 0 subtable" dx=5 dy=0 dh=10 dv=0
EndChar

StartChar: Itilde
Encoding: 296 296 82
Width: 282
GlyphClass: 2
Flags: MW
HStem: 682 20G<137 145 145 159> 762 64<192 208> 792 64<74.5 91>
VStem: 97 88<20 680>
AnchorPoint: "Anchor-1" 150 877 basechar 0
AnchorPoint: "Anchor-0" 140 0 basechar 0
LayerCount: 2
Fore
SplineSet
253 849 m 0,0,1
 271 862 271 862 286.5 842 c 0,2,3
 302 822 302 822 282 803 c 0,4,5
 232 762 232 762 193.5 762 c 0,6,7
 155 762 155 762 126 777 c 0,8,9
 97 792 97 792 77.5 792 c 0,10,11
 58 792 58 792 34.5 775 c 0,12,13
 11 758 11 758 -3.5 779.5 c 0,14,15
 -18 801 -18 801 0 816 c 0,16,17
 50 856 50 856 93 856 c 0,18,19
 120 856 120 856 148 841 c 0,20,21
 176 826 176 826 199 826 c 0,22,23
 222 826 222 826 253 849 c 0,0,1
137 702 m 2,24,-1
 145 702 l 2,25,26
 185 702 185 702 185 680 c 2,27,-1
 185 20 l 2,28,29
 185 -2 185 -2 145 -2 c 2,30,-1
 137 -2 l 2,31,32
 97 -2 97 -2 97 20 c 2,33,-1
 97 680 l 2,34,35
 97 702 97 702 137 702 c 2,24,-1
EndSplineSet
Position2: "'cpsp' Capital Spacing lookup 0 subtable" dx=5 dy=0 dh=10 dv=0
EndChar

StartChar: J
Encoding: 74 74 83
Width: 402
GlyphClass: 2
Flags: MW
HStem: -6 78<88 140.5 75 184> 682 20G<271 279 279 293>
VStem: 231 88<195 205 205 680>
AnchorPoint: "Anchor-1" 271 700 basechar 0
AnchorPoint: "Anchor-0" 0 0 basechar 0
LayerCount: 2
Fore
SplineSet
271 702 m 2,0,-1
 279 702 l 2,1,2
 319 702 319 702 319 680 c 2,3,-1
 319 205 l 2,4,5
 319 -6 319 -6 107 -6 c 0,6,7
 6 -6 6 -6 6 26 c 0,8,9
 6 36 6 36 12 58.5 c 128,-1,10
 18 81 18 81 28 81 c 0,11,12
 29 81 29 81 50.5 76.5 c 128,-1,13
 72 72 72 72 91 72 c 0,14,15
 165 72 165 72 198 101 c 128,-1,16
 231 130 231 130 231 195 c 2,17,-1
 231 680 l 2,18,19
 231 702 231 702 271 702 c 2,0,-1
EndSplineSet
Position2: "'cpsp' Capital Spacing lookup 0 subtable" dx=5 dy=0 dh=10 dv=0
EndChar

StartChar: Jcircumflex
Encoding: 308 308 84
Width: 402
GlyphClass: 2
Flags: MW
HStem: -6 78<88 140.5 75 184> 682 20G<271 279 279 293> 753 142<165.5 283 173 283 258 366 258 368>
VStem: 231 88<195 205 205 680>
AnchorPoint: "Anchor-1" 430 793 basechar 0
AnchorPoint: "Anchor-0" 0 0 basechar 0
LayerCount: 2
Fore
SplineSet
258 895 m 2,0,-1
 283 895 l 2,1,2
 314 895 314 895 329 873 c 2,3,-1
 386 785 l 2,4,5
 392 776 392 776 392 768 c 0,6,7
 392 753 392 753 368 753 c 2,8,-1
 366 753 l 2,9,10
 347 753 347 753 333 766 c 1,11,-1
 270 840 l 1,12,-1
 209 766 l 1,13,14
 195 753 195 753 175 753 c 2,15,-1
 173 753 l 2,16,17
 150 753 150 753 150 767 c 0,18,19
 150 774.5 150 774.5 156 785 c 2,20,-1
 212 873 l 2,21,22
 227 895 227 895 258 895 c 2,0,-1
271 702 m 2,23,-1
 279 702 l 2,24,25
 319 702 319 702 319 680 c 2,26,-1
 319 205 l 2,27,28
 319 -6 319 -6 107 -6 c 0,29,30
 6 -6 6 -6 6 26 c 0,31,32
 6 36 6 36 12 58.5 c 128,-1,33
 18 81 18 81 28 81 c 0,34,35
 29 81 29 81 50.5 76.5 c 128,-1,36
 72 72 72 72 91 72 c 0,37,38
 165 72 165 72 198 101 c 128,-1,39
 231 130 231 130 231 195 c 2,40,-1
 231 680 l 2,41,42
 231 702 231 702 271 702 c 2,23,-1
EndSplineSet
Position2: "'cpsp' Capital Spacing lookup 0 subtable" dx=5 dy=0 dh=10 dv=0
EndChar

StartChar: K
Encoding: 75 75 85
Width: 576
GlyphClass: 2
Flags: MW
HStem: 333 41<185 189 185 189> 682 20G<137 145 145 159 489 499 499 511>
VStem: 97 88<20 333 374 680>
AnchorPoint: "Anchor-1" 288 700 basechar 0
AnchorPoint: "Anchor-0" 288 0 basechar 0
LayerCount: 2
Fore
SplineSet
489 702 m 2,0,-1
 499 702 l 2,1,2
 534 702 534 702 534 689 c 0,3,4
 534 680 534 680 524 669 c 2,5,-1
 274 357 l 1,6,-1
 577 28 l 2,7,8
 586 18 586 18 586 12 c 0,9,10
 586 -2 586 -2 542 -2 c 2,11,-1
 530 -2 l 2,12,13
 487 -2 487 -2 475 11 c 2,14,-1
 189 333 l 1,15,-1
 185 333 l 1,16,-1
 185 20 l 2,17,18
 185 -2 185 -2 145 -2 c 2,19,-1
 137 -2 l 2,20,21
 97 -2 97 -2 97 20 c 2,22,-1
 97 680 l 2,23,24
 97 702 97 702 137 702 c 2,25,-1
 145 702 l 2,26,27
 185 702 185 702 185 680 c 2,28,-1
 185 374 l 1,29,-1
 189 374 l 1,30,-1
 435 688 l 2,31,32
 446 702 446 702 489 702 c 2,0,-1
EndSplineSet
Position2: "'cpsp' Capital Spacing lookup 0 subtable" dx=5 dy=0 dh=10 dv=0
EndChar

StartChar: Kcommaaccent
Encoding: 310 310 86
Width: 576
GlyphClass: 2
Flags: MW
HStem: 333 41<185 189 185 189> 682 20G<137 145 145 159 489 499 499 511>
VStem: 97 88<20 333 374 680> 243 89<-121 -73.5>
AnchorPoint: "Anchor-1" 288 700 basechar 0
AnchorPoint: "Anchor-0" 284 -203 basechar 0
LayerCount: 2
Fore
SplineSet
489 702 m 2,0,-1
 499 702 l 2,1,2
 534 702 534 702 534 689 c 0,3,4
 534 680 534 680 524 669 c 2,5,-1
 274 357 l 1,6,-1
 577 28 l 2,7,8
 586 18 586 18 586 12 c 0,9,10
 586 -2 586 -2 542 -2 c 2,11,-1
 530 -2 l 2,12,13
 487 -2 487 -2 475 11 c 2,14,-1
 189 333 l 1,15,-1
 185 333 l 1,16,-1
 185 20 l 2,17,18
 185 -2 185 -2 145 -2 c 2,19,-1
 137 -2 l 2,20,21
 97 -2 97 -2 97 20 c 2,22,-1
 97 680 l 2,23,24
 97 702 97 702 137 702 c 2,25,-1
 145 702 l 2,26,27
 185 702 185 702 185 680 c 2,28,-1
 185 374 l 1,29,-1
 189 374 l 1,30,-1
 435 688 l 2,31,32
 446 702 446 702 489 702 c 2,0,-1
283 -51 m 2,33,-1
 292 -51 l 2,34,35
 332 -51 332 -51 332 -79 c 0,36,37
 332 -144 332 -144 295.5 -189.5 c 128,-1,38
 259 -235 259 -235 229.5 -235 c 0,39,40
 200 -235 200 -235 200 -220 c 0,41,42
 200 -215 200 -215 221.5 -171.5 c 128,-1,43
 243 -128 243 -128 243 -83 c 0,44,45
 243 -51 243 -51 283 -51 c 2,33,-1
EndSplineSet
Position2: "'cpsp' Capital Spacing lookup 0 subtable" dx=5 dy=0 dh=10 dv=0
EndChar

StartChar: L
Encoding: 76 76 87
Width: 484
GlyphClass: 2
Flags: MW
HStem: 0 76<116.5 460 185 460 185 460> 682 20G<137 145 145 159>
VStem: 97 88<76 680 76 680 76 687>
AnchorPoint: "Anchor-1" 145 702 basechar 0
AnchorPoint: "Anchor-0" 282 0 basechar 0
LayerCount: 2
Fore
SplineSet
137 702 m 2,0,-1
 145 702 l 2,1,2
 185 702 185 702 185 680 c 2,3,-1
 185 76 l 1,4,-1
 460 76 l 2,5,6
 480 76 480 76 480 46 c 2,7,-1
 480 30 l 2,8,9
 480 0 480 0 460 0 c 2,10,-1
 127 0 l 2,11,12
 97 0 97 0 97 30 c 2,13,-1
 97 680 l 2,14,15
 97 702 97 702 137 702 c 2,0,-1
EndSplineSet
Position2: "'cpsp' Capital Spacing lookup 0 subtable" dx=5 dy=0 dh=10 dv=0
EndChar

StartChar: LJ
Encoding: 455 455 88
Width: 718
GlyphClass: 2
Flags: MW
HStem: -156 78<402 454.5 389 498> 0 76<116.5 390 185 390 185 390> 682 20G<137 145 145 159 585 593 593 607>
VStem: 97 88<76 680 76 680 76 687> 545 88<45 55 55 680>
LayerCount: 2
Fore
SplineSet
137 702 m 2,0,-1
 145 702 l 2,1,2
 185 702 185 702 185 680 c 2,3,-1
 185 76 l 1,4,-1
 390 76 l 2,5,6
 410 76 410 76 410 46 c 2,7,-1
 410 30 l 2,8,9
 410 0 410 0 390 0 c 2,10,-1
 127 0 l 2,11,12
 97 0 97 0 97 30 c 2,13,-1
 97 680 l 2,14,15
 97 702 97 702 137 702 c 2,0,-1
585 702 m 2,16,-1
 593 702 l 2,17,18
 633 702 633 702 633 680 c 2,19,-1
 633 55 l 2,20,21
 633 -156 633 -156 421 -156 c 0,22,23
 320 -156 320 -156 320 -124 c 0,24,25
 320 -114 320 -114 326 -91.5 c 128,-1,26
 332 -69 332 -69 342 -69 c 0,27,28
 343 -69 343 -69 364.5 -73.5 c 128,-1,29
 386 -78 386 -78 405 -78 c 0,30,31
 479 -78 479 -78 512 -49 c 128,-1,32
 545 -20 545 -20 545 45 c 2,33,-1
 545 680 l 2,34,35
 545 702 545 702 585 702 c 2,16,-1
EndSplineSet
Position2: "'cpsp' Capital Spacing lookup 0 subtable" dx=5 dy=0 dh=10 dv=0
EndChar

StartChar: Lacute
Encoding: 313 313 89
Width: 484
GlyphClass: 2
Flags: MW
HStem: 0 76<116.5 460 185 460 185 460> 682 20G<137 145 145 159>
VStem: 97 88<76 680 76 680 76 687>
AnchorPoint: "Anchor-1" 151 879 basechar 0
AnchorPoint: "Anchor-0" 282 0 basechar 0
LayerCount: 2
Fore
SplineSet
163 885 m 0,0,1
 178 911 178 911 225.5 911 c 128,-1,2
 273 911 273 911 273 898 c 0,3,4
 273 891 273 891 263.5 879 c 128,-1,5
 254 867 254 867 224 833 c 2,6,-1
 179 782 l 2,7,8
 162 764 162 764 133.5 764 c 128,-1,9
 105 764 105 764 105 774 c 128,-1,10
 105 784 105 784 163 885 c 0,0,1
137 702 m 2,11,-1
 145 702 l 2,12,13
 185 702 185 702 185 680 c 2,14,-1
 185 76 l 1,15,-1
 460 76 l 2,16,17
 480 76 480 76 480 46 c 2,18,-1
 480 30 l 2,19,20
 480 0 480 0 460 0 c 2,21,-1
 127 0 l 2,22,23
 97 0 97 0 97 30 c 2,24,-1
 97 680 l 2,25,26
 97 702 97 702 137 702 c 2,11,-1
EndSplineSet
Position2: "'cpsp' Capital Spacing lookup 0 subtable" dx=5 dy=0 dh=10 dv=0
EndChar

StartChar: Lcaron
Encoding: 317 317 90
Width: 484
GlyphClass: 2
Flags: MW
HStem: 0 76<116.5 460 185 460 185 460> 680 20G 682 20G<137 145 145 159>
VStem: 97 88<76 680 76 680 76 687> 307 89<632.5 677.5>
AnchorPoint: "Anchor-1" 145 702 basechar 0
AnchorPoint: "Anchor-0" 282 0 basechar 0
LayerCount: 2
Fore
SplineSet
137 702 m 2,0,-1
 145 702 l 2,1,2
 185 702 185 702 185 680 c 2,3,-1
 185 76 l 1,4,-1
 460 76 l 2,5,6
 480 76 480 76 480 46 c 2,7,-1
 480 30 l 2,8,9
 480 0 480 0 460 0 c 2,10,-1
 127 0 l 2,11,12
 97 0 97 0 97 30 c 2,13,-1
 97 680 l 2,14,15
 97 702 97 702 137 702 c 2,0,-1
347 700 m 2,16,-1
 356 700 l 2,17,18
 396 700 396 700 396 672 c 0,19,20
 396 611 396 611 370.5 568.5 c 128,-1,21
 345 526 345 526 319.5 526 c 0,22,23
 294 526 294 526 294 541 c 0,24,25
 294 545 294 545 300.5 585.5 c 128,-1,26
 307 626 307 626 307 668 c 0,27,28
 307 700 307 700 347 700 c 2,16,-1
EndSplineSet
Position2: "'cpsp' Capital Spacing lookup 0 subtable" dx=5 dy=0 dh=10 dv=0
EndChar

StartChar: Lcommaaccent
Encoding: 315 315 91
Width: 484
GlyphClass: 2
Flags: MW
HStem: 0 76<116.5 460 185 460 185 460> 682 20G<137 145 145 159>
VStem: 97 88<76 680 76 680 76 687> 237 89<-121 -73.5>
AnchorPoint: "Anchor-1" 145 702 basechar 0
AnchorPoint: "Anchor-0" 278 -203 basechar 0
LayerCount: 2
Fore
SplineSet
137 702 m 2,0,-1
 145 702 l 2,1,2
 185 702 185 702 185 680 c 2,3,-1
 185 76 l 1,4,-1
 460 76 l 2,5,6
 480 76 480 76 480 46 c 2,7,-1
 480 30 l 2,8,9
 480 0 480 0 460 0 c 2,10,-1
 127 0 l 2,11,12
 97 0 97 0 97 30 c 2,13,-1
 97 680 l 2,14,15
 97 702 97 702 137 702 c 2,0,-1
277 -51 m 2,16,-1
 286 -51 l 2,17,18
 326 -51 326 -51 326 -79 c 0,19,20
 326 -144 326 -144 289.5 -189.5 c 128,-1,21
 253 -235 253 -235 223.5 -235 c 0,22,23
 194 -235 194 -235 194 -220 c 0,24,25
 194 -215 194 -215 215.5 -171.5 c 128,-1,26
 237 -128 237 -128 237 -83 c 0,27,28
 237 -51 237 -51 277 -51 c 2,16,-1
EndSplineSet
Position2: "'cpsp' Capital Spacing lookup 0 subtable" dx=5 dy=0 dh=10 dv=0
EndChar

StartChar: Ldot
Encoding: 319 319 92
Width: 484
GlyphClass: 2
Flags: MW
HStem: 0 76<116.5 460 185 460 185 460> 309 103<286.5 315.5> 682 20G<137 145 145 159>
VStem: 97 88<76 680 76 680 76 687> 250 103<345.5 374.5>
AnchorPoint: "Anchor-1" 145 702 basechar 0
AnchorPoint: "Anchor-0" 282 0 basechar 0
LayerCount: 2
Fore
SplineSet
137 702 m 2,0,-1
 145 702 l 2,1,2
 185 702 185 702 185 680 c 2,3,-1
 185 76 l 1,4,-1
 460 76 l 2,5,6
 480 76 480 76 480 46 c 2,7,-1
 480 30 l 2,8,9
 480 0 480 0 460 0 c 2,10,-1
 127 0 l 2,11,12
 97 0 97 0 97 30 c 2,13,-1
 97 680 l 2,14,15
 97 702 97 702 137 702 c 2,0,-1
301 412 m 128,-1,17
 323 412 323 412 338 397 c 128,-1,18
 353 382 353 382 353 360 c 128,-1,19
 353 338 353 338 338 323.5 c 128,-1,20
 323 309 323 309 301 309 c 128,-1,21
 279 309 279 309 264.5 323.5 c 128,-1,22
 250 338 250 338 250 360 c 128,-1,23
 250 382 250 382 264.5 397 c 128,-1,16
 279 412 279 412 301 412 c 128,-1,17
EndSplineSet
Ligature2: "Ligature Substitution lookup 19 subtable" L periodcentered
Position2: "'cpsp' Capital Spacing lookup 0 subtable" dx=5 dy=0 dh=10 dv=0
EndChar

StartChar: Lj
Encoding: 456 456 93
Width: 760
GlyphClass: 2
Flags: MW
HStem: -212 72<526.5 545.5 516.5 565> 0 76<116.5 460 185 460 185 460> 505 20G<625 629 629 643> 649 103<607 633 621 633> 682 20G<137 145 145 159>
VStem: 97 88<76 680 76 680 76 687> 581 92<671 730 664 737> 585 84<-66 503>
AnchorPoint: "Anchor-1" 145 702 basechar 0
AnchorPoint: "Anchor-0" 282 0 basechar 0
LayerCount: 2
Fore
SplineSet
621 752 m 2,0,-1
 633 752 l 2,1,2
 673 752 673 752 673 730 c 2,3,-1
 673 671 l 2,4,5
 673 649 673 649 633 649 c 2,6,-1
 621 649 l 2,7,8
 581 649 581 649 581 671 c 2,9,-1
 581 730 l 2,10,11
 581 752 581 752 621 752 c 2,0,-1
137 702 m 2,12,-1
 145 702 l 2,13,14
 185 702 185 702 185 680 c 2,15,-1
 185 76 l 1,16,-1
 460 76 l 2,17,18
 480 76 480 76 480 46 c 2,19,-1
 480 30 l 2,20,21
 480 0 480 0 460 0 c 2,22,-1
 127 0 l 2,23,24
 97 0 97 0 97 30 c 2,25,-1
 97 680 l 2,26,27
 97 702 97 702 137 702 c 2,12,-1
625 525 m 2,28,-1
 629 525 l 2,29,30
 669 525 669 525 669 503 c 2,31,-1
 669 -74 l 2,32,33
 669 -151 669 -151 629.5 -181.5 c 128,-1,34
 590 -212 590 -212 540 -212 c 0,35,36
 467 -212 467 -212 467 -182 c 0,37,38
 467 -172 467 -172 473 -153.5 c 128,-1,39
 479 -135 479 -135 488 -135 c 0,40,41
 490 -135 490 -135 502 -137.5 c 128,-1,42
 514 -140 514 -140 531 -140 c 0,43,44
 585 -140 585 -140 585 -66 c 2,45,-1
 585 503 l 2,46,47
 585 525 585 525 625 525 c 2,28,-1
EndSplineSet
Position2: "'cpsp' Capital Spacing lookup 0 subtable" dx=5 dy=0 dh=10 dv=0
EndChar

StartChar: Lslash
Encoding: 321 321 94
Width: 486
GlyphClass: 2
Flags: MW
HStem: 0 76<104.5 464 173 464 173 464> 682 20G<125 133 133 147>
VStem: 85 88<76 348 348 348 394 401 447 680>
LayerCount: 2
Fore
SplineSet
125 702 m 2,0,-1
 133 702 l 2,1,2
 173 702 173 702 173 680 c 2,3,-1
 173 447 l 1,4,-1
 281 511 l 2,5,6
 289 515 289 515 291 515 c 0,7,8
 300 515 300 515 300 501 c 2,9,-1
 300 495 l 2,10,11
 300 476 300 476 281 465 c 2,12,-1
 173 401 l 1,13,-1
 173 76 l 1,14,-1
 464 76 l 2,15,16
 484 76 484 76 484 46 c 2,17,-1
 484 30 l 2,18,19
 484 0 484 0 464 0 c 2,20,-1
 115 0 l 2,21,22
 85 0 85 0 85 30 c 2,23,-1
 85 348 l 1,24,-1
 17 308 l 2,25,26
 12 304 12 304 7 304 c 0,27,28
 -2 304 -2 304 -2 318 c 2,29,-1
 -2 324 l 2,30,31
 -2 343 -2 343 17 354 c 2,32,-1
 85 394 l 1,33,-1
 85 680 l 2,34,35
 85 702 85 702 125 702 c 2,0,-1
EndSplineSet
Position2: "'cpsp' Capital Spacing lookup 0 subtable" dx=5 dy=0 dh=10 dv=0
EndChar

StartChar: M
Encoding: 77 77 95
Width: 843
GlyphClass: 2
Flags: MW
HStem: 682 20G<130 166 166 178 680 713 713 727>
VStem: 90 87<20 564> 666 87<20 558 558 558>
LayerCount: 2
Fore
SplineSet
680 702 m 2,0,-1
 713 702 l 2,1,2
 753 702 753 702 753 680 c 2,3,-1
 753 20 l 2,4,5
 753 -2 753 -2 713 -2 c 2,6,-1
 706 -2 l 2,7,8
 666 -2 666 -2 666 20 c 2,9,-1
 666 558 l 1,10,-1
 465 208 l 2,11,12
 458 195 458 195 443 195 c 2,13,-1
 403 195 l 2,14,15
 388 195 388 195 381 208 c 2,16,-1
 179 560 l 1,17,-1
 177 564 l 1,18,-1
 177 20 l 2,19,20
 177 -2 177 -2 137 -2 c 2,21,-1
 130 -2 l 2,22,23
 90 -2 90 -2 90 20 c 2,24,-1
 90 680 l 2,25,26
 90 702 90 702 130 702 c 2,27,-1
 166 702 l 2,28,29
 198 702 198 702 208 684 c 2,30,-1
 397 356 l 1,31,-1
 423 293 l 1,32,-1
 449 350 l 1,33,-1
 638 684 l 2,34,35
 648 702 648 702 680 702 c 2,0,-1
EndSplineSet
Position2: "'cpsp' Capital Spacing lookup 0 subtable" dx=5 dy=0 dh=10 dv=0
EndChar

StartChar: N
Encoding: 78 78 96
Width: 719
GlyphClass: 2
Flags: MW
HStem: 682 20G<130 151 151 162 582 589 589 603>
VStem: 90 87<20 561> 542 87<145 680>
AnchorPoint: "Anchor-1" 360 700 basechar 0
AnchorPoint: "Anchor-0" 360 0 basechar 0
LayerCount: 2
Fore
SplineSet
582 702 m 2,0,-1
 589 702 l 2,1,2
 629 702 629 702 629 680 c 2,3,-1
 629 20 l 2,4,5
 629 -2 629 -2 589 -2 c 2,6,-1
 569 -2 l 2,7,8
 543 -2 543 -2 534 12 c 2,9,-1
 204 510 l 1,10,-1
 177 561 l 1,11,-1
 177 20 l 2,12,13
 177 -2 177 -2 137 -2 c 2,14,-1
 130 -2 l 2,15,16
 90 -2 90 -2 90 20 c 2,17,-1
 90 680 l 2,18,19
 90 702 90 702 130 702 c 2,20,-1
 151 702 l 2,21,22
 179 702 179 702 193 683 c 1,23,-1
 512 201 l 1,24,-1
 542 145 l 1,25,-1
 542 680 l 2,26,27
 542 702 542 702 582 702 c 2,0,-1
EndSplineSet
Position2: "'cpsp' Capital Spacing lookup 0 subtable" dx=5 dy=0 dh=10 dv=0
EndChar

StartChar: NJ
Encoding: 458 458 97
Width: 1121
GlyphClass: 2
Flags: MW
HStem: -6 78<807 859.5 794 903> 682 20G<130 151 151 162 582 589 589 603 990 998 998 1012>
VStem: 90 87<20 561> 542 87<145 680> 950 88<195 205 205 680>
AnchorPoint: "Anchor-1" 990 700 basechar 0
AnchorPoint: "Anchor-0" 360 0 basechar 0
LayerCount: 2
Fore
SplineSet
582 702 m 2,0,-1
 589 702 l 2,1,2
 629 702 629 702 629 680 c 2,3,-1
 629 20 l 2,4,5
 629 -2 629 -2 589 -2 c 2,6,-1
 569 -2 l 2,7,8
 543 -2 543 -2 534 12 c 2,9,-1
 204 510 l 1,10,-1
 177 561 l 1,11,-1
 177 20 l 2,12,13
 177 -2 177 -2 137 -2 c 2,14,-1
 130 -2 l 2,15,16
 90 -2 90 -2 90 20 c 2,17,-1
 90 680 l 2,18,19
 90 702 90 702 130 702 c 2,20,-1
 151 702 l 2,21,22
 179 702 179 702 193 683 c 1,23,-1
 512 201 l 1,24,-1
 542 145 l 1,25,-1
 542 680 l 2,26,27
 542 702 542 702 582 702 c 2,0,-1
990 702 m 2,28,-1
 998 702 l 2,29,30
 1038 702 1038 702 1038 680 c 2,31,-1
 1038 205 l 2,32,33
 1038 -6 1038 -6 826 -6 c 0,34,35
 725 -6 725 -6 725 26 c 0,36,37
 725 36 725 36 731 58.5 c 128,-1,38
 737 81 737 81 747 81 c 0,39,40
 748 81 748 81 769.5 76.5 c 128,-1,41
 791 72 791 72 810 72 c 0,42,43
 884 72 884 72 917 101 c 128,-1,44
 950 130 950 130 950 195 c 2,45,-1
 950 680 l 2,46,47
 950 702 950 702 990 702 c 2,28,-1
EndSplineSet
Position2: "'cpsp' Capital Spacing lookup 0 subtable" dx=5 dy=0 dh=10 dv=0
EndChar

StartChar: Nacute
Encoding: 323 323 98
Width: 719
GlyphClass: 2
Flags: MW
HStem: 682 20G<130 151 151 162 582 589 589 603>
VStem: 90 87<20 561> 542 87<145 680>
AnchorPoint: "Anchor-1" 366 877 basechar 0
AnchorPoint: "Anchor-0" 360 0 basechar 0
LayerCount: 2
Fore
SplineSet
378 883 m 0,0,1
 393 909 393 909 440.5 909 c 128,-1,2
 488 909 488 909 488 896 c 0,3,4
 488 889 488 889 478.5 877 c 128,-1,5
 469 865 469 865 439 831 c 2,6,-1
 394 780 l 2,7,8
 378 762 378 762 349 762 c 128,-1,9
 320 762 320 762 320 772 c 128,-1,10
 320 782 320 782 378 883 c 0,0,1
582 702 m 2,11,-1
 589 702 l 2,12,13
 629 702 629 702 629 680 c 2,14,-1
 629 20 l 2,15,16
 629 -2 629 -2 589 -2 c 2,17,-1
 569 -2 l 2,18,19
 543 -2 543 -2 534 12 c 2,20,-1
 204 510 l 1,21,-1
 177 561 l 1,22,-1
 177 20 l 2,23,24
 177 -2 177 -2 137 -2 c 2,25,-1
 130 -2 l 2,26,27
 90 -2 90 -2 90 20 c 2,28,-1
 90 680 l 2,29,30
 90 702 90 702 130 702 c 2,31,-1
 151 702 l 2,32,33
 179 702 179 702 193 683 c 1,34,-1
 512 201 l 1,35,-1
 542 145 l 1,36,-1
 542 680 l 2,37,38
 542 702 542 702 582 702 c 2,11,-1
EndSplineSet
Substitution2: "'locl' Localized Forms in Latin lookup 11 subtable" Nacute.loclPLK
Substitution2: "'aalt' Access All Alternates lookup 0 subtable" Nacute.loclPLK
Position2: "'cpsp' Capital Spacing lookup 0 subtable" dx=5 dy=0 dh=10 dv=0
EndChar

StartChar: Ncaron
Encoding: 327 327 99
Width: 719
GlyphClass: 2
Flags: MW
HStem: 682 20G<130 151 151 162 582 589 589 603> 759 142<262 347 262 372>
VStem: 90 87<20 561> 542 87<145 680>
AnchorPoint: "Anchor-1" 361 877 basechar 0
AnchorPoint: "Anchor-0" 360 0 basechar 0
LayerCount: 2
Fore
SplineSet
455 901 m 2,0,-1
 457 901 l 2,1,2
 481 901 481 901 481 886 c 0,3,4
 481 878 481 878 475 869 c 2,5,-1
 418 781 l 2,6,7
 403 759 403 759 372 759 c 2,8,-1
 347 759 l 2,9,10
 316 759 316 759 301 781 c 2,11,-1
 245 869 l 2,12,13
 239 879.5 239 879.5 239 887 c 0,14,15
 239 901 239 901 262 901 c 2,16,-1
 264 901 l 2,17,18
 284 901 284 901 298 888 c 1,19,-1
 359 814 l 1,20,-1
 422 888 l 1,21,22
 436 901 436 901 455 901 c 2,0,-1
582 702 m 2,23,-1
 589 702 l 2,24,25
 629 702 629 702 629 680 c 2,26,-1
 629 20 l 2,27,28
 629 -2 629 -2 589 -2 c 2,29,-1
 569 -2 l 2,30,31
 543 -2 543 -2 534 12 c 2,32,-1
 204 510 l 1,33,-1
 177 561 l 1,34,-1
 177 20 l 2,35,36
 177 -2 177 -2 137 -2 c 2,37,-1
 130 -2 l 2,38,39
 90 -2 90 -2 90 20 c 2,40,-1
 90 680 l 2,41,42
 90 702 90 702 130 702 c 2,43,-1
 151 702 l 2,44,45
 179 702 179 702 193 683 c 1,46,-1
 512 201 l 1,47,-1
 542 145 l 1,48,-1
 542 680 l 2,49,50
 542 702 542 702 582 702 c 2,23,-1
EndSplineSet
Position2: "'cpsp' Capital Spacing lookup 0 subtable" dx=5 dy=0 dh=10 dv=0
EndChar

StartChar: Ncommaaccent
Encoding: 325 325 100
Width: 719
GlyphClass: 2
Flags: MW
HStem: 682 20G<130 151 151 162 582 589 589 603>
VStem: 90 87<20 561> 315 89<-121 -73.5> 542 87<145 680>
AnchorPoint: "Anchor-1" 360 700 basechar 0
AnchorPoint: "Anchor-0" 356 -203 basechar 0
LayerCount: 2
Fore
SplineSet
582 702 m 2,0,-1
 589 702 l 2,1,2
 629 702 629 702 629 680 c 2,3,-1
 629 20 l 2,4,5
 629 -2 629 -2 589 -2 c 2,6,-1
 569 -2 l 2,7,8
 543 -2 543 -2 534 12 c 2,9,-1
 204 510 l 1,10,-1
 177 561 l 1,11,-1
 177 20 l 2,12,13
 177 -2 177 -2 137 -2 c 2,14,-1
 130 -2 l 2,15,16
 90 -2 90 -2 90 20 c 2,17,-1
 90 680 l 2,18,19
 90 702 90 702 130 702 c 2,20,-1
 151 702 l 2,21,22
 179 702 179 702 193 683 c 1,23,-1
 512 201 l 1,24,-1
 542 145 l 1,25,-1
 542 680 l 2,26,27
 542 702 542 702 582 702 c 2,0,-1
355 -51 m 2,28,-1
 364 -51 l 2,29,30
 404 -51 404 -51 404 -79 c 0,31,32
 404 -144 404 -144 367.5 -189.5 c 128,-1,33
 331 -235 331 -235 301.5 -235 c 0,34,35
 272 -235 272 -235 272 -220 c 0,36,37
 272 -215 272 -215 293.5 -171.5 c 128,-1,38
 315 -128 315 -128 315 -83 c 0,39,40
 315 -51 315 -51 355 -51 c 2,28,-1
EndSplineSet
Position2: "'cpsp' Capital Spacing lookup 0 subtable" dx=5 dy=0 dh=10 dv=0
EndChar

StartChar: Ndotaccent
Encoding: 7748 7748 101
Width: 719
GlyphClass: 2
Flags: MW
HStem: 682 20G<130 151 151 162 582 589 589 603> 784 95<346 374>
VStem: 90 87<20 561> 318 84<806 857 799.5 863.5> 542 87<145 680>
AnchorPoint: "Anchor-1" 363 877 basechar 0
AnchorPoint: "Anchor-0" 360 0 basechar 0
LayerCount: 2
Fore
SplineSet
318 857 m 2,0,1
 318 879 318 879 360 879 c 128,-1,2
 402 879 402 879 402 857 c 2,3,-1
 402 806 l 2,4,5
 402 784 402 784 360 784 c 128,-1,6
 318 784 318 784 318 806 c 2,7,-1
 318 857 l 2,0,1
582 702 m 2,8,-1
 589 702 l 2,9,10
 629 702 629 702 629 680 c 2,11,-1
 629 20 l 2,12,13
 629 -2 629 -2 589 -2 c 2,14,-1
 569 -2 l 2,15,16
 543 -2 543 -2 534 12 c 2,17,-1
 204 510 l 1,18,-1
 177 561 l 1,19,-1
 177 20 l 2,20,21
 177 -2 177 -2 137 -2 c 2,22,-1
 130 -2 l 2,23,24
 90 -2 90 -2 90 20 c 2,25,-1
 90 680 l 2,26,27
 90 702 90 702 130 702 c 2,28,-1
 151 702 l 2,29,30
 179 702 179 702 193 683 c 1,31,-1
 512 201 l 1,32,-1
 542 145 l 1,33,-1
 542 680 l 2,34,35
 542 702 542 702 582 702 c 2,8,-1
EndSplineSet
Position2: "'cpsp' Capital Spacing lookup 0 subtable" dx=5 dy=0 dh=10 dv=0
EndChar

StartChar: Eng
Encoding: 330 330 102
Width: 719
GlyphClass: 2
Flags: MW
HStem: -212 72<486.5 505.5 476.5 525> 682 20G<130 151 151 162 582 589 589 603>
VStem: 90 87<20 561> 542 87<145 680>
AnchorPoint: "Anchor-1" 587 523 basechar 0
AnchorPoint: "Anchor-0" 0 0 basechar 0
LayerCount: 2
Fore
SplineSet
582 702 m 2,0,-1
 589 702 l 2,1,2
 629 702 629 702 629 680 c 2,3,-1
 629 -74 l 2,4,5
 629 -151 629 -151 589.5 -181.5 c 128,-1,6
 550 -212 550 -212 500 -212 c 0,7,8
 427 -212 427 -212 427 -182 c 0,9,10
 427 -172 427 -172 433 -153.5 c 128,-1,11
 439 -135 439 -135 448 -135 c 0,12,13
 450 -135 450 -135 462 -137.5 c 128,-1,14
 474 -140 474 -140 491 -140 c 0,15,16
 545 -140 545 -140 545 -66 c 2,17,-1
 545 -4 l 1,18,-1
 204 510 l 1,19,-1
 177 561 l 1,20,-1
 177 20 l 2,21,22
 177 -2 177 -2 137 -2 c 2,23,-1
 130 -2 l 2,24,25
 90 -2 90 -2 90 20 c 2,26,-1
 90 680 l 2,27,28
 90 702 90 702 130 702 c 2,29,-1
 151 702 l 2,30,31
 179 702 179 702 193 683 c 1,32,-1
 512 201 l 1,33,-1
 542 145 l 1,34,-1
 542 680 l 2,35,36
 542 702 542 702 582 702 c 2,0,-1
EndSplineSet
Position2: "'cpsp' Capital Spacing lookup 0 subtable" dx=5 dy=0 dh=10 dv=0
EndChar

StartChar: Nj
Encoding: 459 459 103
Width: 995
GlyphClass: 2
Flags: MW
HStem: -212 72<761.5 780.5 751.5 800> 505 20G<860 864 864 878> 649 103<842 868 856 868> 682 20G<130 151 151 162 582 589 589 603>
VStem: 90 87<20 561> 542 87<145 680> 816 92<671 730 664 737> 820 84<-66 503>
AnchorPoint: "Anchor-1" 360 700 basechar 0
AnchorPoint: "Anchor-0" 360 0 basechar 0
LayerCount: 2
Fore
SplineSet
856 752 m 2,0,-1
 868 752 l 2,1,2
 908 752 908 752 908 730 c 2,3,-1
 908 671 l 2,4,5
 908 649 908 649 868 649 c 2,6,-1
 856 649 l 2,7,8
 816 649 816 649 816 671 c 2,9,-1
 816 730 l 2,10,11
 816 752 816 752 856 752 c 2,0,-1
582 702 m 2,12,-1
 589 702 l 2,13,14
 629 702 629 702 629 680 c 2,15,-1
 629 20 l 2,16,17
 629 -2 629 -2 589 -2 c 2,18,-1
 569 -2 l 2,19,20
 543 -2 543 -2 534 12 c 2,21,-1
 204 510 l 1,22,-1
 177 561 l 1,23,-1
 177 20 l 2,24,25
 177 -2 177 -2 137 -2 c 2,26,-1
 130 -2 l 2,27,28
 90 -2 90 -2 90 20 c 2,29,-1
 90 680 l 2,30,31
 90 702 90 702 130 702 c 2,32,-1
 151 702 l 2,33,34
 179 702 179 702 193 683 c 1,35,-1
 512 201 l 1,36,-1
 542 145 l 1,37,-1
 542 680 l 2,38,39
 542 702 542 702 582 702 c 2,12,-1
860 525 m 2,40,-1
 864 525 l 2,41,42
 904 525 904 525 904 503 c 2,43,-1
 904 -74 l 2,44,45
 904 -151 904 -151 864.5 -181.5 c 128,-1,46
 825 -212 825 -212 775 -212 c 0,47,48
 702 -212 702 -212 702 -182 c 0,49,50
 702 -172 702 -172 708 -153.5 c 128,-1,51
 714 -135 714 -135 723 -135 c 0,52,53
 725 -135 725 -135 737 -137.5 c 128,-1,54
 749 -140 749 -140 766 -140 c 0,55,56
 820 -140 820 -140 820 -66 c 2,57,-1
 820 503 l 2,58,59
 820 525 820 525 860 525 c 2,40,-1
EndSplineSet
Position2: "'cpsp' Capital Spacing lookup 0 subtable" dx=5 dy=0 dh=10 dv=0
EndChar

StartChar: Ntilde
Encoding: 209 209 104
Width: 719
GlyphClass: 2
Flags: MW
HStem: 682 20G<130 151 151 162 582 589 589 603> 762 64<417 434.5> 792 64<286.5 304.5>
VStem: 90 87<20 561> 542 87<145 680>
AnchorPoint: "Anchor-1" 370 877 basechar 0
AnchorPoint: "Anchor-0" 360 0 basechar 0
LayerCount: 2
Fore
SplineSet
485 849 m 0,0,1
 504 862 504 862 521 842 c 0,2,3
 538 822 538 822 517 803 c 0,4,5
 461 762 461 762 418 762 c 0,6,7
 375 762 375 762 343 777 c 0,8,9
 311 792 311 792 289.5 792 c 0,10,11
 268 792 268 792 242 774.5 c 0,12,13
 216 757 216 757 199.5 779.5 c 0,14,15
 183 802 183 802 203 816 c 0,16,17
 261 856 261 856 300 856 c 0,18,19
 339 856 339 856 369 841 c 0,20,21
 399 826 399 826 424.5 826 c 0,22,23
 450 826 450 826 485 849 c 0,0,1
582 702 m 2,24,-1
 589 702 l 2,25,26
 629 702 629 702 629 680 c 2,27,-1
 629 20 l 2,28,29
 629 -2 629 -2 589 -2 c 2,30,-1
 569 -2 l 2,31,32
 543 -2 543 -2 534 12 c 2,33,-1
 204 510 l 1,34,-1
 177 561 l 1,35,-1
 177 20 l 2,36,37
 177 -2 177 -2 137 -2 c 2,38,-1
 130 -2 l 2,39,40
 90 -2 90 -2 90 20 c 2,41,-1
 90 680 l 2,42,43
 90 702 90 702 130 702 c 2,44,-1
 151 702 l 2,45,46
 179 702 179 702 193 683 c 1,47,-1
 512 201 l 1,48,-1
 542 145 l 1,49,-1
 542 680 l 2,50,51
 542 702 542 702 582 702 c 2,24,-1
EndSplineSet
Position2: "'cpsp' Capital Spacing lookup 0 subtable" dx=5 dy=0 dh=10 dv=0
EndChar

StartChar: O
Encoding: 79 79 105
Width: 731
GlyphClass: 2
Flags: MW
HStem: -6 76<294.5 435.5 294.5 465.5> 630 76<294.5 435.5>
VStem: 57 91<260 444 260 469> 583 91<260 444>
AnchorPoint: "Anchor-1" 366 700 basechar 0
AnchorPoint: "Anchor-0" 367 0 basechar 0
LayerCount: 2
Fore
SplineSet
365 706 m 128,-1,1
 516 706 516 706 595 616.5 c 128,-1,2
 674 527 674 527 674 352 c 128,-1,3
 674 177 674 177 595 85.5 c 128,-1,4
 516 -6 516 -6 365.5 -6 c 0,5,6
 215 -6 215 -6 136 85.5 c 128,-1,7
 57 177 57 177 57 352 c 128,-1,8
 57 527 57 527 135.5 616.5 c 128,-1,0
 214 706 214 706 365 706 c 128,-1,1
365 630 m 128,-1,10
 259 630 259 630 203.5 559.5 c 128,-1,11
 148 489 148 489 148 351.5 c 0,12,13
 148 214 148 214 203.5 142 c 128,-1,14
 259 70 259 70 365 70 c 128,-1,15
 471 70 471 70 527 142 c 128,-1,16
 583 214 583 214 583 351.5 c 0,17,18
 583 489 583 489 527 559.5 c 128,-1,9
 471 630 471 630 365 630 c 128,-1,10
EndSplineSet
Substitution2: "Single Substitution lookup 20 subtable" ordmasculine
Substitution2: "'aalt' Access All Alternates lookup 0 subtable" ordmasculine
Position2: "'cpsp' Capital Spacing lookup 0 subtable" dx=5 dy=0 dh=10 dv=0
EndChar

StartChar: Oacute
Encoding: 211 211 106
Width: 731
GlyphClass: 2
Flags: MW
HStem: -6 76<294.5 435.5 294.5 465.5> 630 76<294.5 435.5>
VStem: 57 91<260 444 260 469> 583 91<260 444>
AnchorPoint: "Anchor-1" 372 877 basechar 0
AnchorPoint: "Anchor-0" 367 0 basechar 0
LayerCount: 2
Fore
SplineSet
384 883 m 0,0,1
 399 909 399 909 446.5 909 c 128,-1,2
 494 909 494 909 494 896 c 0,3,4
 494 889 494 889 484.5 877 c 128,-1,5
 475 865 475 865 445 831 c 2,6,-1
 400 780 l 2,7,8
 384 762 384 762 355 762 c 128,-1,9
 326 762 326 762 326 772 c 128,-1,10
 326 782 326 782 384 883 c 0,0,1
365 706 m 128,-1,12
 516 706 516 706 595 616.5 c 128,-1,13
 674 527 674 527 674 352 c 128,-1,14
 674 177 674 177 595 85.5 c 128,-1,15
 516 -6 516 -6 365.5 -6 c 128,-1,16
 215 -6 215 -6 136 85.5 c 128,-1,17
 57 177 57 177 57 352 c 128,-1,18
 57 527 57 527 135.5 616.5 c 128,-1,11
 214 706 214 706 365 706 c 128,-1,12
365 630 m 128,-1,20
 259 630 259 630 203.5 559.5 c 128,-1,21
 148 489 148 489 148 351.5 c 128,-1,22
 148 214 148 214 203.5 142 c 128,-1,23
 259 70 259 70 365 70 c 128,-1,24
 471 70 471 70 527 142 c 128,-1,25
 583 214 583 214 583 351.5 c 128,-1,26
 583 489 583 489 527 559.5 c 128,-1,19
 471 630 471 630 365 630 c 128,-1,20
EndSplineSet
Substitution2: "'locl' Localized Forms in Latin lookup 11 subtable" Oacute.loclPLK
Substitution2: "'aalt' Access All Alternates lookup 0 subtable" Oacute.loclPLK
Position2: "'cpsp' Capital Spacing lookup 0 subtable" dx=5 dy=0 dh=10 dv=0
EndChar

StartChar: Obreve
Encoding: 334 334 107
Width: 731
GlyphClass: 2
Flags: MW
HStem: -6 76<294.5 435.5 294.5 465.5> 630 76<294.5 435.5> 762 66<342.5 391.5 342.5 402.5>
VStem: 57 91<260 444 260 469> 583 91<260 444>
AnchorPoint: "Anchor-1" 367 848 basechar 0
AnchorPoint: "Anchor-0" 367 0 basechar 0
LayerCount: 2
Fore
SplineSet
496 892 m 0,0,1
 511 892 511 892 511 877 c 0,2,3
 511 823 511 823 468 792.5 c 128,-1,4
 425 762 425 762 366.5 762 c 128,-1,5
 308 762 308 762 265 792.5 c 128,-1,6
 222 823 222 823 222 877 c 0,7,8
 222 892 222 892 237 892 c 0,9,10
 248.4 892 248.4 892 250.2 887.5 c 0,11,12
 256 873 256 873 259 867 c 0,13,14
 280 828 280 828 366.5 828 c 0,15,16
 461.666666667 828 461.666666667 828 477.5 875.5 c 0,17,18
 482 889 482 889 486.5 890.5 c 128,-1,19
 491 892 491 892 496 892 c 0,0,1
365 706 m 128,-1,21
 516 706 516 706 595 616.5 c 128,-1,22
 674 527 674 527 674 352 c 128,-1,23
 674 177 674 177 595 85.5 c 128,-1,24
 516 -6 516 -6 365.5 -6 c 128,-1,25
 215 -6 215 -6 136 85.5 c 128,-1,26
 57 177 57 177 57 352 c 128,-1,27
 57 527 57 527 135.5 616.5 c 128,-1,20
 214 706 214 706 365 706 c 128,-1,21
365 630 m 128,-1,29
 259 630 259 630 203.5 559.5 c 128,-1,30
 148 489 148 489 148 351.5 c 128,-1,31
 148 214 148 214 203.5 142 c 128,-1,32
 259 70 259 70 365 70 c 128,-1,33
 471 70 471 70 527 142 c 128,-1,34
 583 214 583 214 583 351.5 c 128,-1,35
 583 489 583 489 527 559.5 c 128,-1,28
 471 630 471 630 365 630 c 128,-1,29
EndSplineSet
Position2: "'cpsp' Capital Spacing lookup 0 subtable" dx=5 dy=0 dh=10 dv=0
EndChar

StartChar: Ocircumflex
Encoding: 212 212 108
Width: 731
GlyphClass: 2
Flags: MW
HStem: -6 76<294.5 435.5 294.5 465.5> 630 76<294.5 435.5> 753 142<260.5 378 268 378 353 461 353 463>
VStem: 57 91<260 444 260 469> 583 91<260 444>
AnchorPoint: "Anchor-1" 525 793 basechar 0
AnchorPoint: "Anchor-0" 367 0 basechar 0
LayerCount: 2
Fore
SplineSet
353 895 m 2,0,-1
 378 895 l 2,1,2
 409 895 409 895 424 873 c 2,3,-1
 481 785 l 2,4,5
 487 776 487 776 487 768 c 0,6,7
 487 753 487 753 463 753 c 2,8,-1
 461 753 l 2,9,10
 442 753 442 753 428 766 c 1,11,-1
 365 840 l 1,12,-1
 304 766 l 1,13,14
 290 753 290 753 270 753 c 2,15,-1
 268 753 l 2,16,17
 245 753 245 753 245 767 c 0,18,19
 245 774.5 245 774.5 251 785 c 2,20,-1
 307 873 l 2,21,22
 322 895 322 895 353 895 c 2,0,-1
365 706 m 128,-1,24
 516 706 516 706 595 616.5 c 128,-1,25
 674 527 674 527 674 352 c 128,-1,26
 674 177 674 177 595 85.5 c 128,-1,27
 516 -6 516 -6 365.5 -6 c 0,28,29
 215 -6 215 -6 136 85.5 c 128,-1,30
 57 177 57 177 57 352 c 128,-1,31
 57 527 57 527 135.5 616.5 c 128,-1,23
 214 706 214 706 365 706 c 128,-1,24
365 630 m 128,-1,33
 259 630 259 630 203.5 559.5 c 128,-1,34
 148 489 148 489 148 351.5 c 0,35,36
 148 214 148 214 203.5 142 c 128,-1,37
 259 70 259 70 365 70 c 128,-1,38
 471 70 471 70 527 142 c 128,-1,39
 583 214 583 214 583 351.5 c 0,40,41
 583 489 583 489 527 559.5 c 128,-1,32
 471 630 471 630 365 630 c 128,-1,33
EndSplineSet
Position2: "'cpsp' Capital Spacing lookup 0 subtable" dx=5 dy=0 dh=10 dv=0
EndChar

StartChar: Ocircumflexacute
Encoding: 7888 7888 109
Width: 731
GlyphClass: 2
Flags: MW
HStem: -6 76<294.5 435.5 294.5 465.5> 630 76<294.5 435.5> 753 142<264.5 382 272 382 357 450 357 452>
VStem: 57 91<260 444 260 469> 583 91<260 444>
AnchorPoint: "Anchor-1" 507 829 basechar 0
AnchorPoint: "Anchor-0" 367 0 basechar 0
LayerCount: 2
Fore
SplineSet
522 935 m 0,0,1
 537 961 537 961 572 961 c 128,-1,2
 607 961 607 961 607 948 c 0,3,4
 607 940 607 940 583.5 909 c 128,-1,5
 560 878 560 878 556.5 873 c 128,-1,6
 553 868 553 868 546 859 c 128,-1,7
 539 850 539 850 533 842 c 0,8,9
 520 824 520 824 497 824 c 128,-1,10
 474 824 474 824 474 833.5 c 128,-1,11
 474 843 474 843 522 935 c 0,0,1
357 895 m 2,12,-1
 382 895 l 2,13,14
 404 895 404 895 418 873 c 2,15,-1
 470 785 l 2,16,17
 476 776 476 776 476 768 c 0,18,19
 476 753 476 753 452 753 c 2,20,-1
 450 753 l 2,21,22
 426 753 426 753 417 766 c 2,23,-1
 369 840 l 1,24,-1
 308 766 l 1,25,26
 294 753 294 753 274 753 c 2,27,-1
 272 753 l 2,28,29
 249 753 249 753 249 767 c 0,30,31
 249 774.5 249 774.5 255 785 c 2,32,-1
 311 873 l 2,33,34
 326 895 326 895 357 895 c 2,12,-1
365 706 m 128,-1,36
 516 706 516 706 595 616.5 c 128,-1,37
 674 527 674 527 674 352 c 128,-1,38
 674 177 674 177 595 85.5 c 128,-1,39
 516 -6 516 -6 365.5 -6 c 128,-1,40
 215 -6 215 -6 136 85.5 c 128,-1,41
 57 177 57 177 57 352 c 128,-1,42
 57 527 57 527 135.5 616.5 c 128,-1,35
 214 706 214 706 365 706 c 128,-1,36
365 630 m 128,-1,44
 259 630 259 630 203.5 559.5 c 128,-1,45
 148 489 148 489 148 351.5 c 128,-1,46
 148 214 148 214 203.5 142 c 128,-1,47
 259 70 259 70 365 70 c 128,-1,48
 471 70 471 70 527 142 c 128,-1,49
 583 214 583 214 583 351.5 c 128,-1,50
 583 489 583 489 527 559.5 c 128,-1,43
 471 630 471 630 365 630 c 128,-1,44
EndSplineSet
Position2: "'cpsp' Capital Spacing lookup 0 subtable" dx=5 dy=0 dh=10 dv=0
EndChar

StartChar: Ocircumflexdotbelow
Encoding: 7896 7896 110
Width: 731
GlyphClass: 2
Flags: MW
HStem: -175 95<355 383> -6 76<294.5 435.5 294.5 465.5> 630 76<294.5 435.5> 753 142<260.5 378 268 378 353 461 353 463>
VStem: 57 91<260 444 260 469> 327 84<-153 -102 -159.5 -95.5> 583 91<260 444>
AnchorPoint: "Anchor-1" 372 -82 basechar 0
AnchorPoint: "Anchor-0" 367 -203 basechar 0
LayerCount: 2
Fore
SplineSet
353 895 m 2,0,-1
 378 895 l 2,1,2
 409 895 409 895 424 873 c 2,3,-1
 481 785 l 2,4,5
 487 776 487 776 487 768 c 0,6,7
 487 753 487 753 463 753 c 2,8,-1
 461 753 l 2,9,10
 442 753 442 753 428 766 c 1,11,-1
 365 840 l 1,12,-1
 304 766 l 1,13,14
 290 753 290 753 270 753 c 2,15,-1
 268 753 l 2,16,17
 245 753 245 753 245 767 c 0,18,19
 245 774.5 245 774.5 251 785 c 2,20,-1
 307 873 l 2,21,22
 322 895 322 895 353 895 c 2,0,-1
365 706 m 128,-1,24
 516 706 516 706 595 616.5 c 128,-1,25
 674 527 674 527 674 352 c 128,-1,26
 674 177 674 177 595 85.5 c 128,-1,27
 516 -6 516 -6 365.5 -6 c 128,-1,28
 215 -6 215 -6 136 85.5 c 128,-1,29
 57 177 57 177 57 352 c 128,-1,30
 57 527 57 527 135.5 616.5 c 128,-1,23
 214 706 214 706 365 706 c 128,-1,24
365 630 m 128,-1,32
 259 630 259 630 203.5 559.5 c 128,-1,33
 148 489 148 489 148 351.5 c 128,-1,34
 148 214 148 214 203.5 142 c 128,-1,35
 259 70 259 70 365 70 c 128,-1,36
 471 70 471 70 527 142 c 128,-1,37
 583 214 583 214 583 351.5 c 128,-1,38
 583 489 583 489 527 559.5 c 128,-1,31
 471 630 471 630 365 630 c 128,-1,32
327 -102 m 2,39,40
 327 -80 327 -80 369 -80 c 128,-1,41
 411 -80 411 -80 411 -102 c 2,42,-1
 411 -153 l 2,43,44
 411 -175 411 -175 369 -175 c 128,-1,45
 327 -175 327 -175 327 -153 c 2,46,-1
 327 -102 l 2,39,40
EndSplineSet
Position2: "'cpsp' Capital Spacing lookup 0 subtable" dx=5 dy=0 dh=10 dv=0
EndChar

StartChar: Ocircumflexgrave
Encoding: 7890 7890 111
Width: 731
GlyphClass: 2
Flags: MW
HStem: -6 76<294.5 435.5 294.5 465.5> 630 76<294.5 435.5> 753 142<264.5 382 272 382 357 450 357 452>
VStem: 57 91<260 444 260 469> 583 91<260 444>
AnchorPoint: "Anchor-1" 507 829 basechar 0
AnchorPoint: "Anchor-0" 367 0 basechar 0
LayerCount: 2
Fore
SplineSet
427 948 m 0,0,1
 427 961 427 961 464 961 c 128,-1,2
 501 961 501 961 512 935 c 0,3,4
 550 846 550 846 550 834 c 0,5,6
 550 824 550 824 526.5 824 c 128,-1,7
 503 824 503 824 492.5 839.5 c 128,-1,8
 482 855 482 855 474 868 c 128,-1,9
 466 881 466 881 460.5 889.5 c 128,-1,10
 455 898 455 898 449.5 906 c 128,-1,11
 444 914 444 914 441 919 c 128,-1,12
 438 924 438 924 435 928.5 c 128,-1,13
 432 933 432 933 431 935.5 c 128,-1,14
 430 938 430 938 429 940.5 c 0,15,16
 427 945.5 427 945.5 427 948 c 0,0,1
357 895 m 2,17,-1
 382 895 l 2,18,19
 404 895 404 895 418 873 c 2,20,-1
 470 785 l 2,21,22
 476 776 476 776 476 768 c 0,23,24
 476 753 476 753 452 753 c 2,25,-1
 450 753 l 2,26,27
 426 753 426 753 417 766 c 2,28,-1
 369 840 l 1,29,-1
 308 766 l 1,30,31
 294 753 294 753 274 753 c 2,32,-1
 272 753 l 2,33,34
 249 753 249 753 249 767 c 0,35,36
 249 774.5 249 774.5 255 785 c 2,37,-1
 311 873 l 2,38,39
 326 895 326 895 357 895 c 2,17,-1
365 706 m 128,-1,41
 516 706 516 706 595 616.5 c 128,-1,42
 674 527 674 527 674 352 c 128,-1,43
 674 177 674 177 595 85.5 c 128,-1,44
 516 -6 516 -6 365.5 -6 c 128,-1,45
 215 -6 215 -6 136 85.5 c 128,-1,46
 57 177 57 177 57 352 c 128,-1,47
 57 527 57 527 135.5 616.5 c 128,-1,40
 214 706 214 706 365 706 c 128,-1,41
365 630 m 128,-1,49
 259 630 259 630 203.5 559.5 c 128,-1,50
 148 489 148 489 148 351.5 c 128,-1,51
 148 214 148 214 203.5 142 c 128,-1,52
 259 70 259 70 365 70 c 128,-1,53
 471 70 471 70 527 142 c 128,-1,54
 583 214 583 214 583 351.5 c 128,-1,55
 583 489 583 489 527 559.5 c 128,-1,48
 471 630 471 630 365 630 c 128,-1,49
EndSplineSet
Position2: "'cpsp' Capital Spacing lookup 0 subtable" dx=5 dy=0 dh=10 dv=0
EndChar

StartChar: Ocircumflexhookabove
Encoding: 7892 7892 112
Width: 731
GlyphClass: 2
Flags: MW
HStem: -6 76<294.5 435.5 294.5 465.5> 630 76<294.5 435.5> 753 142<264.5 382 272 382 357 450 357 452> 931 48<483.5 503>
VStem: 57 91<260 444 260 469> 530 57<897 913> 583 91<260 444>
AnchorPoint: "Anchor-1" 507 829 basechar 0
AnchorPoint: "Anchor-0" 367 0 basechar 0
LayerCount: 2
Fore
SplineSet
530 904 m 0,0,1
 530 931 530 931 493 931 c 0,2,3
 471.833333333 931 471.833333333 931 459.916666667 924.5 c 128,-1,4
 448 918 448 918 447 918 c 0,5,6
 441 918 441 918 432 930.5 c 128,-1,7
 423 943 423 943 423 952 c 128,-1,8
 423 961 423 961 449 970 c 128,-1,9
 475 979 475 979 504 979 c 128,-1,10
 533 979 533 979 560 962.5 c 128,-1,11
 587 946 587 946 587 911 c 128,-1,12
 587 876 587 876 556.5 850.5 c 128,-1,13
 526 825 526 825 511 825 c 128,-1,14
 496 825 496 825 485 831.5 c 128,-1,15
 474 838 474 838 474 845.5 c 128,-1,16
 474 853 474 853 502 868.5 c 128,-1,17
 530 884 530 884 530 904 c 0,0,1
357 895 m 2,18,-1
 382 895 l 2,19,20
 404 895 404 895 418 873 c 2,21,-1
 470 785 l 2,22,23
 476 776 476 776 476 768 c 0,24,25
 476 753 476 753 452 753 c 2,26,-1
 450 753 l 2,27,28
 426 753 426 753 417 766 c 2,29,-1
 369 840 l 1,30,-1
 308 766 l 1,31,32
 294 753 294 753 274 753 c 2,33,-1
 272 753 l 2,34,35
 249 753 249 753 249 767 c 0,36,37
 249 774.5 249 774.5 255 785 c 2,38,-1
 311 873 l 2,39,40
 326 895 326 895 357 895 c 2,18,-1
365 706 m 128,-1,42
 516 706 516 706 595 616.5 c 128,-1,43
 674 527 674 527 674 352 c 128,-1,44
 674 177 674 177 595 85.5 c 128,-1,45
 516 -6 516 -6 365.5 -6 c 128,-1,46
 215 -6 215 -6 136 85.5 c 128,-1,47
 57 177 57 177 57 352 c 128,-1,48
 57 527 57 527 135.5 616.5 c 128,-1,41
 214 706 214 706 365 706 c 128,-1,42
365 630 m 128,-1,50
 259 630 259 630 203.5 559.5 c 128,-1,51
 148 489 148 489 148 351.5 c 128,-1,52
 148 214 148 214 203.5 142 c 128,-1,53
 259 70 259 70 365 70 c 128,-1,54
 471 70 471 70 527 142 c 128,-1,55
 583 214 583 214 583 351.5 c 128,-1,56
 583 489 583 489 527 559.5 c 128,-1,49
 471 630 471 630 365 630 c 128,-1,50
EndSplineSet
Position2: "'cpsp' Capital Spacing lookup 0 subtable" dx=5 dy=0 dh=10 dv=0
EndChar

StartChar: Ocircumflextilde
Encoding: 7894 7894 113
Width: 731
GlyphClass: 2
Flags: MW
HStem: -6 76<294.5 435.5 294.5 465.5> 630 76<294.5 435.5> 753 118<260.5 378 268 378 353 461 353 463> 903 64<414 430.5> 933 64<295.5 312>
VStem: 57 91<260 444 260 469> 583 91<260 444>
AnchorPoint: "Anchor-1" 486 837 basechar 0
AnchorPoint: "Anchor-0" 367 0 basechar 0
LayerCount: 2
Fore
SplineSet
476 990 m 0,0,1
 494 1003 494 1003 509 983.5 c 0,2,3
 524 964 524 964 505 944 c 0,4,5
 455 903 455 903 416 903 c 0,6,7
 377 903 377 903 348 918 c 0,8,9
 319 933 319 933 299 933 c 0,10,11
 279 933 279 933 255 915.5 c 0,12,13
 231 898 231 898 216.5 920 c 0,14,15
 202 942 202 942 220 957 c 0,16,17
 272 997 272 997 307 997 c 0,18,19
 342 997 342 997 370 982 c 0,20,21
 398 967 398 967 421.5 967 c 0,22,23
 445 967 445 967 476 990 c 0,0,1
353 871 m 2,24,-1
 378 871 l 2,25,26
 402 871 402 871 424 849 c 1,27,-1
 481 785 l 1,28,29
 487 776 487 776 487 768 c 0,30,31
 487 753 487 753 463 753 c 2,32,-1
 461 753 l 2,33,34
 448 753 448 753 428 766 c 1,35,-1
 365 816 l 1,36,-1
 304 766 l 1,37,38
 285 753 285 753 270 753 c 2,39,-1
 268 753 l 2,40,41
 245 753 245 753 245 767 c 0,42,43
 245 774.5 245 774.5 251 785 c 1,44,-1
 307 849 l 1,45,46
 331 871 331 871 353 871 c 2,24,-1
365 706 m 128,-1,48
 516 706 516 706 595 616.5 c 128,-1,49
 674 527 674 527 674 352 c 128,-1,50
 674 177 674 177 595 85.5 c 128,-1,51
 516 -6 516 -6 365.5 -6 c 0,52,53
 215 -6 215 -6 136 85.5 c 128,-1,54
 57 177 57 177 57 352 c 128,-1,55
 57 527 57 527 135.5 616.5 c 128,-1,47
 214 706 214 706 365 706 c 128,-1,48
365 630 m 128,-1,57
 259 630 259 630 203.5 559.5 c 128,-1,58
 148 489 148 489 148 351.5 c 0,59,60
 148 214 148 214 203.5 142 c 128,-1,61
 259 70 259 70 365 70 c 128,-1,62
 471 70 471 70 527 142 c 128,-1,63
 583 214 583 214 583 351.5 c 0,64,65
 583 489 583 489 527 559.5 c 128,-1,56
 471 630 471 630 365 630 c 128,-1,57
EndSplineSet
Position2: "'cpsp' Capital Spacing lookup 0 subtable" dx=5 dy=0 dh=10 dv=0
EndChar

StartChar: Odieresis
Encoding: 214 214 114
Width: 731
GlyphClass: 2
Flags: MW
HStem: -6 76<294.5 435.5 294.5 465.5> 630 76<294.5 435.5> 784 95<280 308 424 452>
VStem: 57 91<260 444 260 469> 252 84<806 857 799.5 863.5> 396 84<806 857 799.5 863.5> 583 91<260 444>
AnchorPoint: "Anchor-1" 363 877 basechar 0
AnchorPoint: "Anchor-0" 367 0 basechar 0
LayerCount: 2
Fore
SplineSet
252 857 m 2,0,1
 252 879 252 879 294 879 c 128,-1,2
 336 879 336 879 336 857 c 2,3,-1
 336 806 l 2,4,5
 336 784 336 784 294 784 c 128,-1,6
 252 784 252 784 252 806 c 2,7,-1
 252 857 l 2,0,1
396 857 m 2,8,9
 396 879 396 879 438 879 c 128,-1,10
 480 879 480 879 480 857 c 2,11,-1
 480 806 l 2,12,13
 480 784 480 784 438 784 c 128,-1,14
 396 784 396 784 396 806 c 2,15,-1
 396 857 l 2,8,9
365 706 m 128,-1,17
 516 706 516 706 595 616.5 c 128,-1,18
 674 527 674 527 674 352 c 128,-1,19
 674 177 674 177 595 85.5 c 128,-1,20
 516 -6 516 -6 365.5 -6 c 128,-1,21
 215 -6 215 -6 136 85.5 c 128,-1,22
 57 177 57 177 57 352 c 128,-1,23
 57 527 57 527 135.5 616.5 c 128,-1,16
 214 706 214 706 365 706 c 128,-1,17
365 630 m 128,-1,25
 259 630 259 630 203.5 559.5 c 128,-1,26
 148 489 148 489 148 351.5 c 128,-1,27
 148 214 148 214 203.5 142 c 128,-1,28
 259 70 259 70 365 70 c 128,-1,29
 471 70 471 70 527 142 c 128,-1,30
 583 214 583 214 583 351.5 c 128,-1,31
 583 489 583 489 527 559.5 c 128,-1,24
 471 630 471 630 365 630 c 128,-1,25
EndSplineSet
Position2: "'cpsp' Capital Spacing lookup 0 subtable" dx=5 dy=0 dh=10 dv=0
EndChar

StartChar: Odotbelow
Encoding: 7884 7884 115
Width: 731
GlyphClass: 2
Flags: MW
HStem: -175 95<355 383> -6 76<294.5 435.5 294.5 465.5> 630 76<294.5 435.5>
VStem: 57 91<260 444 260 469> 327 84<-153 -102 -159.5 -95.5> 583 91<260 444>
AnchorPoint: "Anchor-1" 372 -82 basechar 0
AnchorPoint: "Anchor-0" 367 -203 basechar 0
LayerCount: 2
Fore
SplineSet
365 706 m 128,-1,1
 516 706 516 706 595 616.5 c 128,-1,2
 674 527 674 527 674 352 c 128,-1,3
 674 177 674 177 595 85.5 c 128,-1,4
 516 -6 516 -6 365.5 -6 c 128,-1,5
 215 -6 215 -6 136 85.5 c 128,-1,6
 57 177 57 177 57 352 c 128,-1,7
 57 527 57 527 135.5 616.5 c 128,-1,0
 214 706 214 706 365 706 c 128,-1,1
365 630 m 128,-1,9
 259 630 259 630 203.5 559.5 c 128,-1,10
 148 489 148 489 148 351.5 c 128,-1,11
 148 214 148 214 203.5 142 c 128,-1,12
 259 70 259 70 365 70 c 128,-1,13
 471 70 471 70 527 142 c 128,-1,14
 583 214 583 214 583 351.5 c 128,-1,15
 583 489 583 489 527 559.5 c 128,-1,8
 471 630 471 630 365 630 c 128,-1,9
327 -102 m 2,16,17
 327 -80 327 -80 369 -80 c 128,-1,18
 411 -80 411 -80 411 -102 c 2,19,-1
 411 -153 l 2,20,21
 411 -175 411 -175 369 -175 c 128,-1,22
 327 -175 327 -175 327 -153 c 2,23,-1
 327 -102 l 2,16,17
EndSplineSet
Position2: "'cpsp' Capital Spacing lookup 0 subtable" dx=5 dy=0 dh=10 dv=0
EndChar

StartChar: Ograve
Encoding: 210 210 116
Width: 731
GlyphClass: 2
Flags: MW
HStem: -6 76<294.5 435.5 294.5 465.5> 630 76<294.5 435.5>
VStem: 57 91<260 444 260 469> 583 91<260 444>
AnchorPoint: "Anchor-1" 361 877 basechar 0
AnchorPoint: "Anchor-0" 367 0 basechar 0
LayerCount: 2
Fore
SplineSet
248 896 m 0,0,1
 248 909 248 909 295.5 909 c 128,-1,2
 343 909 343 909 358 883 c 0,3,4
 416 782 416 782 416 772 c 128,-1,5
 416 762 416 762 387 762 c 128,-1,6
 358 762 358 762 342 780 c 0,7,8
 253.917556813 880.665649357 253.917556813 880.665649357 250.958778406 886.46367756 c 128,-1,9
 248 892.261705764 248 892.261705764 248 896 c 0,0,1
365 706 m 128,-1,11
 516 706 516 706 595 616.5 c 128,-1,12
 674 527 674 527 674 352 c 128,-1,13
 674 177 674 177 595 85.5 c 128,-1,14
 516 -6 516 -6 365.5 -6 c 128,-1,15
 215 -6 215 -6 136 85.5 c 128,-1,16
 57 177 57 177 57 352 c 128,-1,17
 57 527 57 527 135.5 616.5 c 128,-1,10
 214 706 214 706 365 706 c 128,-1,11
365 630 m 128,-1,19
 259 630 259 630 203.5 559.5 c 128,-1,20
 148 489 148 489 148 351.5 c 128,-1,21
 148 214 148 214 203.5 142 c 128,-1,22
 259 70 259 70 365 70 c 128,-1,23
 471 70 471 70 527 142 c 128,-1,24
 583 214 583 214 583 351.5 c 128,-1,25
 583 489 583 489 527 559.5 c 128,-1,18
 471 630 471 630 365 630 c 128,-1,19
EndSplineSet
Position2: "'cpsp' Capital Spacing lookup 0 subtable" dx=5 dy=0 dh=10 dv=0
EndChar

StartChar: Ohookabove
Encoding: 7886 7886 117
Width: 731
GlyphClass: 2
Flags: MW
HStem: -6 76<294.5 435.5 294.5 465.5> 630 76<294.5 435.5> 876 51<355.5 375>
VStem: 57 91<260 444 260 469> 402 62<824 858> 583 91<260 444>
AnchorPoint: "Anchor-1" 367 877 basechar 0
AnchorPoint: "Anchor-0" 367 0 basechar 0
LayerCount: 2
Fore
SplineSet
402 849 m 0,0,1
 402 876 402 876 365 876 c 0,2,3
 340.428571429 876 340.428571429 876 330.214285714 869.5 c 128,-1,4
 320 863 320 863 319 863 c 0,5,6
 313 863 313 863 304 875.5 c 128,-1,7
 295 888 295 888 295 897 c 128,-1,8
 295 906 295 906 321 916.5 c 128,-1,9
 347 927 347 927 376.5 927 c 128,-1,10
 406 927 406 927 435 910 c 128,-1,11
 464 893 464 893 464 853 c 128,-1,12
 464 813 464 813 426.5 776.5 c 128,-1,13
 389 740 389 740 373 740 c 0,14,15
 365 740 365 740 352.5 745.5 c 128,-1,16
 340 751 340 751 340 759.5 c 128,-1,17
 340 768 340 768 355.5 781 c 128,-1,18
 371 794 371 794 386.5 811 c 128,-1,19
 402 828 402 828 402 849 c 0,0,1
365 706 m 128,-1,21
 516 706 516 706 595 616.5 c 128,-1,22
 674 527 674 527 674 352 c 128,-1,23
 674 177 674 177 595 85.5 c 128,-1,24
 516 -6 516 -6 365.5 -6 c 128,-1,25
 215 -6 215 -6 136 85.5 c 128,-1,26
 57 177 57 177 57 352 c 128,-1,27
 57 527 57 527 135.5 616.5 c 128,-1,20
 214 706 214 706 365 706 c 128,-1,21
365 630 m 128,-1,29
 259 630 259 630 203.5 559.5 c 128,-1,30
 148 489 148 489 148 351.5 c 128,-1,31
 148 214 148 214 203.5 142 c 128,-1,32
 259 70 259 70 365 70 c 128,-1,33
 471 70 471 70 527 142 c 128,-1,34
 583 214 583 214 583 351.5 c 128,-1,35
 583 489 583 489 527 559.5 c 128,-1,28
 471 630 471 630 365 630 c 128,-1,29
EndSplineSet
Position2: "'cpsp' Capital Spacing lookup 0 subtable" dx=5 dy=0 dh=10 dv=0
EndChar

StartChar: Ohorn
Encoding: 416 416 118
Width: 731
GlyphClass: 2
Flags: MW
HStem: -6 76<294.5 435.5 294.5 465.5> 630 52 630 76<294.5 391 265 435.5>
VStem: 57 91<260 444 260 469> 572 61<707 753.5> 583 91<260 423.5 235 444>
AnchorPoint: "Anchor-1" 380 702 basechar 0
AnchorPoint: "Anchor-0" 367 0 basechar 0
LayerCount: 2
Fore
SplineSet
556 652 m 1,0,1
 674 567 674 567 674 352 c 0,2,3
 674 177 674 177 595 85.5 c 128,-1,4
 516 -6 516 -6 365.5 -6 c 0,5,6
 215 -6 215 -6 136 85.5 c 128,-1,7
 57 177 57 177 57 352 c 128,-1,8
 57 527 57 527 135.5 616.5 c 128,-1,9
 214 706 214 706 365 706 c 0,10,11
 443 706 443 706 502 682 c 1,12,-1
 517 682 l 2,13,14
 572 682 572 682 572 715 c 0,15,16
 574 733 574 733 559.5 754.5 c 128,-1,17
 545 776 545 776 545 777 c 0,18,19
 545 787 545 787 554 793 c 2,20,-1
 578 809 l 2,21,22
 583 813 583 813 590 813 c 0,23,24
 606 813 606 813 619.5 788 c 128,-1,25
 633 763 633 763 633 739 c 0,26,27
 633 667 633 667 556 652 c 1,0,1
365 70 m 128,-1,29
 471 70 471 70 527 142 c 128,-1,30
 583 214 583 214 583 351.5 c 0,31,32
 583 489 583 489 527 559.5 c 128,-1,33
 471 630 471 630 365 630 c 128,-1,34
 259 630 259 630 203.5 559.5 c 128,-1,35
 148 489 148 489 148 351.5 c 0,36,37
 148 214 148 214 203.5 142 c 128,-1,28
 259 70 259 70 365 70 c 128,-1,29
EndSplineSet
Position2: "'cpsp' Capital Spacing lookup 0 subtable" dx=5 dy=0 dh=10 dv=0
EndChar

StartChar: Ohornacute
Encoding: 7898 7898 119
Width: 731
GlyphClass: 2
Flags: MW
HStem: -6 76<294.5 435.5 294.5 465.5> 630 52 630 76<294.5 391 265 435.5>
VStem: 57 91<260 444 260 469> 572 61<707 753.5> 583 91<260 423.5 235 444>
AnchorPoint: "Anchor-1" 380 702 basechar 0
AnchorPoint: "Anchor-0" 367 0 basechar 0
LayerCount: 2
Fore
SplineSet
498.5 879 m 128,-1,1
 489 867 489 867 459 833 c 128,-1,2
 429 799 429 799 413.5 781.5 c 128,-1,3
 398 764 398 764 369 764 c 128,-1,4
 340 764 340 764 340 774 c 128,-1,5
 340 784 340 784 398 885 c 0,6,7
 413 911 413 911 460.5 911 c 128,-1,8
 508 911 508 911 508 898 c 0,9,0
 508 891 508 891 498.5 879 c 128,-1,1
556 652 m 1,10,11
 674 567 674 567 674 352 c 0,12,13
 674 177 674 177 595 85.5 c 128,-1,14
 516 -6 516 -6 365.5 -6 c 128,-1,15
 215 -6 215 -6 136 85.5 c 128,-1,16
 57 177 57 177 57 352 c 128,-1,17
 57 527 57 527 135.5 616.5 c 128,-1,18
 214 706 214 706 365 706 c 0,19,20
 443 706 443 706 502 682 c 1,21,-1
 517 682 l 2,22,23
 572 682 572 682 572 715 c 0,24,25
 574 733 574 733 559.5 754.5 c 128,-1,26
 545 776 545 776 545 777 c 0,27,28
 545 787 545 787 554 793 c 2,29,-1
 578 809 l 2,30,31
 583 813 583 813 590 813 c 0,32,33
 606 813 606 813 619.5 788 c 128,-1,34
 633 763 633 763 633 739 c 0,35,36
 633 667 633 667 556 652 c 1,10,11
365 70 m 128,-1,38
 471 70 471 70 527 142 c 128,-1,39
 583 214 583 214 583 351.5 c 128,-1,40
 583 489 583 489 527 559.5 c 128,-1,41
 471 630 471 630 365 630 c 128,-1,42
 259 630 259 630 203.5 559.5 c 128,-1,43
 148 489 148 489 148 351.5 c 128,-1,44
 148 214 148 214 203.5 142 c 128,-1,37
 259 70 259 70 365 70 c 128,-1,38
EndSplineSet
Position2: "'cpsp' Capital Spacing lookup 0 subtable" dx=5 dy=0 dh=10 dv=0
EndChar

StartChar: Ohorndotbelow
Encoding: 7906 7906 120
Width: 731
GlyphClass: 2
Flags: MW
HStem: -175 95<355 383> -6 76<294.5 435.5 294.5 465.5> 630 52 630 76<294.5 391 265 435.5>
VStem: 57 91<260 444 260 469> 327 84<-153 -102 -159.5 -95.5> 572 61<707 753.5> 583 91<260 423.5 235 444>
AnchorPoint: "Anchor-1" 380 702 basechar 0
AnchorPoint: "Anchor-0" 367 -203 basechar 0
LayerCount: 2
Fore
SplineSet
556 652 m 1,0,1
 674 567 674 567 674 352 c 0,2,3
 674 177 674 177 595 85.5 c 128,-1,4
 516 -6 516 -6 365.5 -6 c 128,-1,5
 215 -6 215 -6 136 85.5 c 128,-1,6
 57 177 57 177 57 352 c 128,-1,7
 57 527 57 527 135.5 616.5 c 128,-1,8
 214 706 214 706 365 706 c 0,9,10
 443 706 443 706 502 682 c 1,11,-1
 517 682 l 2,12,13
 572 682 572 682 572 715 c 0,14,15
 574 733 574 733 559.5 754.5 c 128,-1,16
 545 776 545 776 545 777 c 0,17,18
 545 787 545 787 554 793 c 2,19,-1
 578 809 l 2,20,21
 583 813 583 813 590 813 c 0,22,23
 606 813 606 813 619.5 788 c 128,-1,24
 633 763 633 763 633 739 c 0,25,26
 633 667 633 667 556 652 c 1,0,1
365 70 m 128,-1,28
 471 70 471 70 527 142 c 128,-1,29
 583 214 583 214 583 351.5 c 128,-1,30
 583 489 583 489 527 559.5 c 128,-1,31
 471 630 471 630 365 630 c 128,-1,32
 259 630 259 630 203.5 559.5 c 128,-1,33
 148 489 148 489 148 351.5 c 128,-1,34
 148 214 148 214 203.5 142 c 128,-1,27
 259 70 259 70 365 70 c 128,-1,28
327 -102 m 2,35,36
 327 -80 327 -80 369 -80 c 128,-1,37
 411 -80 411 -80 411 -102 c 2,38,-1
 411 -153 l 2,39,40
 411 -175 411 -175 369 -175 c 128,-1,41
 327 -175 327 -175 327 -153 c 2,42,-1
 327 -102 l 2,35,36
EndSplineSet
Position2: "'cpsp' Capital Spacing lookup 0 subtable" dx=5 dy=0 dh=10 dv=0
EndChar

StartChar: Ohorngrave
Encoding: 7900 7900 121
Width: 731
GlyphClass: 2
Flags: MW
HStem: -6 76<294.5 435.5 294.5 465.5> 630 52 630 76<294.5 391 265 435.5>
VStem: 57 91<260 444 260 469> 572 61<707 753.5> 583 91<260 423.5 235 444>
AnchorPoint: "Anchor-1" 380 702 basechar 0
AnchorPoint: "Anchor-0" 367 0 basechar 0
LayerCount: 2
Fore
SplineSet
430 774 m 128,-1,1
 430 764 430 764 401 764 c 128,-1,2
 372 764 372 764 356 782 c 0,3,4
 267.917556813 882.665649357 267.917556813 882.665649357 264.958778406 888.46367756 c 128,-1,5
 262 894.261705764 262 894.261705764 262 898 c 0,6,7
 262 911 262 911 309.5 911 c 128,-1,8
 357 911 357 911 372 885 c 0,9,0
 430 784 430 784 430 774 c 128,-1,1
556 652 m 1,10,11
 674 567 674 567 674 352 c 0,12,13
 674 177 674 177 595 85.5 c 128,-1,14
 516 -6 516 -6 365.5 -6 c 128,-1,15
 215 -6 215 -6 136 85.5 c 128,-1,16
 57 177 57 177 57 352 c 128,-1,17
 57 527 57 527 135.5 616.5 c 128,-1,18
 214 706 214 706 365 706 c 0,19,20
 443 706 443 706 502 682 c 1,21,-1
 517 682 l 2,22,23
 572 682 572 682 572 715 c 0,24,25
 574 733 574 733 559.5 754.5 c 128,-1,26
 545 776 545 776 545 777 c 0,27,28
 545 787 545 787 554 793 c 2,29,-1
 578 809 l 2,30,31
 583 813 583 813 590 813 c 0,32,33
 606 813 606 813 619.5 788 c 128,-1,34
 633 763 633 763 633 739 c 0,35,36
 633 667 633 667 556 652 c 1,10,11
365 70 m 128,-1,38
 471 70 471 70 527 142 c 128,-1,39
 583 214 583 214 583 351.5 c 128,-1,40
 583 489 583 489 527 559.5 c 128,-1,41
 471 630 471 630 365 630 c 128,-1,42
 259 630 259 630 203.5 559.5 c 128,-1,43
 148 489 148 489 148 351.5 c 128,-1,44
 148 214 148 214 203.5 142 c 128,-1,37
 259 70 259 70 365 70 c 128,-1,38
EndSplineSet
Position2: "'cpsp' Capital Spacing lookup 0 subtable" dx=5 dy=0 dh=10 dv=0
EndChar

StartChar: Ohornhookabove
Encoding: 7902 7902 122
Width: 731
GlyphClass: 2
Flags: MW
HStem: -6 76<294.5 435.5 294.5 465.5> 630 52 630 76<294.5 391 265 435.5> 878 51<369.5 389>
VStem: 57 91<260 444 260 469> 416 62<826 860> 572 61<707 753.5> 583 91<260 423.5 235 444>
AnchorPoint: "Anchor-1" 380 702 basechar 0
AnchorPoint: "Anchor-0" 367 0 basechar 0
LayerCount: 2
Fore
SplineSet
333 865 m 0,0,1
 327 865 327 865 318 877.5 c 128,-1,2
 309 890 309 890 309 899 c 128,-1,3
 309 908 309 908 335 918.5 c 128,-1,4
 361 929 361 929 390.5 929 c 128,-1,5
 420 929 420 929 449 912 c 128,-1,6
 478 895 478 895 478 855 c 128,-1,7
 478 815 478 815 440.5 778.5 c 128,-1,8
 403 742 403 742 387 742 c 0,9,10
 379 742 379 742 366.5 747.5 c 128,-1,11
 354 753 354 753 354 762 c 128,-1,12
 354 771 354 771 369.5 783.5 c 128,-1,13
 385 796 385 796 400.5 813 c 128,-1,14
 416 830 416 830 416 851 c 0,15,16
 416 878 416 878 379 878 c 0,17,18
 354.428571429 878 354.428571429 878 344.214285714 871.5 c 128,-1,19
 334 865 334 865 333 865 c 0,0,1
556 652 m 1,20,21
 674 567 674 567 674 352 c 0,22,23
 674 177 674 177 595 85.5 c 128,-1,24
 516 -6 516 -6 365.5 -6 c 128,-1,25
 215 -6 215 -6 136 85.5 c 128,-1,26
 57 177 57 177 57 352 c 128,-1,27
 57 527 57 527 135.5 616.5 c 128,-1,28
 214 706 214 706 365 706 c 0,29,30
 443 706 443 706 502 682 c 1,31,-1
 517 682 l 2,32,33
 572 682 572 682 572 715 c 0,34,35
 574 733 574 733 559.5 754.5 c 128,-1,36
 545 776 545 776 545 777 c 0,37,38
 545 787 545 787 554 793 c 2,39,-1
 578 809 l 2,40,41
 583 813 583 813 590 813 c 0,42,43
 606 813 606 813 619.5 788 c 128,-1,44
 633 763 633 763 633 739 c 0,45,46
 633 667 633 667 556 652 c 1,20,21
365 70 m 128,-1,48
 471 70 471 70 527 142 c 128,-1,49
 583 214 583 214 583 351.5 c 128,-1,50
 583 489 583 489 527 559.5 c 128,-1,51
 471 630 471 630 365 630 c 128,-1,52
 259 630 259 630 203.5 559.5 c 128,-1,53
 148 489 148 489 148 351.5 c 128,-1,54
 148 214 148 214 203.5 142 c 128,-1,47
 259 70 259 70 365 70 c 128,-1,48
EndSplineSet
Position2: "'cpsp' Capital Spacing lookup 0 subtable" dx=5 dy=0 dh=10 dv=0
EndChar

StartChar: Ohorntilde
Encoding: 7904 7904 123
Width: 731
GlyphClass: 2
Flags: MW
HStem: -6 76<294.5 435.5 294.5 465.5> 630 52 630 76<294.5 391 265 435.5> 764 64<431 447> 794 64<313.5 330>
VStem: 57 91<260 444 260 469> 572 61<707 753.5> 583 91<260 423.5 235 444>
AnchorPoint: "Anchor-1" 380 702 basechar 0
AnchorPoint: "Anchor-0" 367 0 basechar 0
LayerCount: 2
Fore
SplineSet
521 805 m 0,0,1
 471 764 471 764 432.5 764 c 128,-1,2
 394 764 394 764 365 779 c 128,-1,3
 336 794 336 794 316.5 794 c 128,-1,4
 297 794 297 794 273.5 777 c 128,-1,5
 250 760 250 760 235.5 781.5 c 128,-1,6
 221 803 221 803 239 818 c 0,7,8
 289 858 289 858 332 858 c 0,9,10
 359 858 359 858 387 843 c 128,-1,11
 415 828 415 828 438 828 c 128,-1,12
 461 828 461 828 492 851 c 0,13,14
 510 864 510 864 525.5 844.5 c 128,-1,15
 541 825 541 825 521 805 c 0,0,1
556 652 m 1,16,17
 674 567 674 567 674 352 c 0,18,19
 674 177 674 177 595 85.5 c 128,-1,20
 516 -6 516 -6 365.5 -6 c 128,-1,21
 215 -6 215 -6 136 85.5 c 128,-1,22
 57 177 57 177 57 352 c 128,-1,23
 57 527 57 527 135.5 616.5 c 128,-1,24
 214 706 214 706 365 706 c 0,25,26
 443 706 443 706 502 682 c 1,27,-1
 517 682 l 2,28,29
 572 682 572 682 572 715 c 0,30,31
 574 733 574 733 559.5 754.5 c 128,-1,32
 545 776 545 776 545 777 c 0,33,34
 545 787 545 787 554 793 c 2,35,-1
 578 809 l 2,36,37
 583 813 583 813 590 813 c 0,38,39
 606 813 606 813 619.5 788 c 128,-1,40
 633 763 633 763 633 739 c 0,41,42
 633 667 633 667 556 652 c 1,16,17
365 70 m 128,-1,44
 471 70 471 70 527 142 c 128,-1,45
 583 214 583 214 583 351.5 c 128,-1,46
 583 489 583 489 527 559.5 c 128,-1,47
 471 630 471 630 365 630 c 128,-1,48
 259 630 259 630 203.5 559.5 c 128,-1,49
 148 489 148 489 148 351.5 c 128,-1,50
 148 214 148 214 203.5 142 c 128,-1,43
 259 70 259 70 365 70 c 128,-1,44
EndSplineSet
Position2: "'cpsp' Capital Spacing lookup 0 subtable" dx=5 dy=0 dh=10 dv=0
EndChar

StartChar: Ohungarumlaut
Encoding: 336 336 124
Width: 731
GlyphClass: 2
Flags: MW
HStem: -6 76<294.5 435.5 294.5 465.5> 630 76<294.5 435.5> 762 147<269 390 358 434.5>
VStem: 57 91<260 444 260 469> 583 91<260 444>
AnchorPoint: "Anchor-1" 375 877 basechar 0
AnchorPoint: "Anchor-0" 367 0 basechar 0
LayerCount: 2
Fore
SplineSet
312 883 m 0,0,1
 327 909 327 909 374.5 909 c 128,-1,2
 422 909 422 909 422 896 c 0,3,4
 422 889 422 889 412.5 877 c 128,-1,5
 403 865 403 865 373 831 c 2,6,-1
 328 780 l 2,7,8
 312 762 312 762 283 762 c 128,-1,9
 254 762 254 762 254 772 c 128,-1,10
 254 782 254 782 312 883 c 0,0,1
459 883 m 0,11,12
 474 909 474 909 521.5 909 c 128,-1,13
 569 909 569 909 569 896 c 0,14,15
 569 889 569 889 559.5 877 c 128,-1,16
 550 865 550 865 520 831 c 2,17,-1
 475 780 l 2,18,19
 458 762 458 762 429.5 762 c 128,-1,20
 401 762 401 762 401 772 c 128,-1,21
 401 782 401 782 459 883 c 0,11,12
365 706 m 128,-1,23
 516 706 516 706 595 616.5 c 128,-1,24
 674 527 674 527 674 352 c 128,-1,25
 674 177 674 177 595 85.5 c 128,-1,26
 516 -6 516 -6 365.5 -6 c 128,-1,27
 215 -6 215 -6 136 85.5 c 128,-1,28
 57 177 57 177 57 352 c 128,-1,29
 57 527 57 527 135.5 616.5 c 128,-1,22
 214 706 214 706 365 706 c 128,-1,23
365 630 m 128,-1,31
 259 630 259 630 203.5 559.5 c 128,-1,32
 148 489 148 489 148 351.5 c 128,-1,33
 148 214 148 214 203.5 142 c 128,-1,34
 259 70 259 70 365 70 c 128,-1,35
 471 70 471 70 527 142 c 128,-1,36
 583 214 583 214 583 351.5 c 128,-1,37
 583 489 583 489 527 559.5 c 128,-1,30
 471 630 471 630 365 630 c 128,-1,31
EndSplineSet
Position2: "'cpsp' Capital Spacing lookup 0 subtable" dx=5 dy=0 dh=10 dv=0
EndChar

StartChar: Omacron
Encoding: 332 332 125
Width: 731
GlyphClass: 2
Flags: MW
HStem: -6 76<294.5 435.5 294.5 465.5> 630 76<294.5 435.5> 789 70<248 478 255 478>
VStem: 57 91<260 444 260 469> 583 91<260 444>
AnchorPoint: "Anchor-1" 365 877 basechar 0
AnchorPoint: "Anchor-0" 367 0 basechar 0
LayerCount: 2
Fore
SplineSet
255 859 m 2,0,-1
 478 859 l 2,1,2
 498 859 498 859 498 829 c 2,3,-1
 498 819 l 2,4,5
 498 789 498 789 478 789 c 2,6,-1
 255 789 l 2,7,8
 235 789 235 789 235 819 c 2,9,-1
 235 829 l 2,10,11
 235 859 235 859 255 859 c 2,0,-1
365 706 m 128,-1,13
 516 706 516 706 595 616.5 c 128,-1,14
 674 527 674 527 674 352 c 128,-1,15
 674 177 674 177 595 85.5 c 128,-1,16
 516 -6 516 -6 365.5 -6 c 0,17,18
 215 -6 215 -6 136 85.5 c 128,-1,19
 57 177 57 177 57 352 c 128,-1,20
 57 527 57 527 135.5 616.5 c 128,-1,12
 214 706 214 706 365 706 c 128,-1,13
365 630 m 128,-1,22
 259 630 259 630 203.5 559.5 c 128,-1,23
 148 489 148 489 148 351.5 c 0,24,25
 148 214 148 214 203.5 142 c 128,-1,26
 259 70 259 70 365 70 c 128,-1,27
 471 70 471 70 527 142 c 128,-1,28
 583 214 583 214 583 351.5 c 0,29,30
 583 489 583 489 527 559.5 c 128,-1,21
 471 630 471 630 365 630 c 128,-1,22
EndSplineSet
Position2: "'cpsp' Capital Spacing lookup 0 subtable" dx=5 dy=0 dh=10 dv=0
EndChar

StartChar: Oogonek
Encoding: 490 490 126
Width: 731
GlyphClass: 2
Flags: MW
HStem: -183 70<481.5 500.5 481.5 507> -6 76<294.5 365 365 384> 630 76<294.5 435.5>
VStem: 57 91<260 444 260 469> 364 67<-86 -72> 583 91<260 444>
AnchorPoint: "Anchor-1" 366 700 basechar 0
AnchorPoint: "Anchor-0" 356 -203 basechar 0
LayerCount: 2
Fore
SplineSet
493 -113 m 1,0,-1
 545 -103 l 1,1,2
 564 -103 564 -103 564 -131.5 c 128,-1,3
 564 -160 564 -160 543.5 -171.5 c 128,-1,4
 523 -183 523 -183 484 -183 c 128,-1,5
 445 -183 445 -183 419 -171.5 c 128,-1,6
 393 -160 393 -160 382.5 -142 c 0,7,8
 364 -110.285714286 364 -110.285714286 364 -71.1428571429 c 128,-1,9
 364 -32 364 -32 384 -6 c 1,10,-1
 365 -6 l 2,11,12
 215 -6 215 -6 136 85.5 c 128,-1,13
 57 177 57 177 57 352 c 128,-1,14
 57 527 57 527 135.5 616.5 c 128,-1,15
 214 706 214 706 365 706 c 128,-1,16
 516 706 516 706 595 616.5 c 128,-1,17
 674 527 674 527 674 364 c 0,18,19
 674 45.9734513274 674 45.9734513274 443 1 c 1,20,-1
 443 -1 l 2,21,22
 443 -7 443 -7 437 -28 c 128,-1,23
 431 -49 431 -49 431 -62 c 0,24,25
 431 -113 431 -113 493 -113 c 1,0,-1
365 70 m 128,-1,27
 471 70 471 70 527 142 c 128,-1,28
 583 214 583 214 583 351.5 c 128,-1,29
 583 489 583 489 527 559.5 c 128,-1,30
 471 630 471 630 365 630 c 128,-1,31
 259 630 259 630 203.5 559.5 c 128,-1,32
 148 489 148 489 148 351.5 c 128,-1,33
 148 214 148 214 203.5 142 c 128,-1,26
 259 70 259 70 365 70 c 128,-1,27
EndSplineSet
Position2: "'cpsp' Capital Spacing lookup 0 subtable" dx=5 dy=0 dh=10 dv=0
EndChar

StartChar: Oslash
Encoding: 216 216 127
Width: 731
GlyphClass: 2
Flags: MW
HStem: -6 76<327.5 435.5 327.5 465.5> 630 76<294.5 398> 682 20G<644.5 651.5>
VStem: 57 91<319 444 319 469> 583 91<260 390.5>
AnchorPoint: "Anchor-1" 366 700 basechar 0
AnchorPoint: "Anchor-0" 0 0 basechar 0
LayerCount: 2
Fore
SplineSet
135.5 616.5 m 128,-1,1
 214 706 214 706 356.5 706 c 128,-1,2
 499 706 499 706 578 633 c 1,3,-1
 633 694 l 2,4,5
 640 702 640 702 647 702 c 128,-1,6
 654 702 654 702 661.5 695 c 128,-1,7
 669 688 669 688 669 681.5 c 128,-1,8
 669 675 669 675 663 668 c 2,9,-1
 605 604 l 1,10,11
 674 514 674 514 674 345.5 c 128,-1,12
 674 177 674 177 595 85.5 c 128,-1,13
 516 -6 516 -6 365.5 -6 c 128,-1,14
 215 -6 215 -6 137 84 c 1,15,-1
 70 10 l 2,16,17
 62 1 62 1 55.5 1 c 128,-1,18
 49 1 49 1 41.5 8 c 128,-1,19
 34 15 34 15 34 21.5 c 128,-1,20
 34 28 34 28 40 36 c 2,21,-1
 113 116 l 1,22,23
 57 205 57 205 57 352 c 0,24,0
 57 527 57 527 135.5 616.5 c 128,-1,1
519 568 m 1,25,26
 465 630 465 630 362 630 c 128,-1,27
 259 630 259 630 203.5 559.5 c 128,-1,28
 148 489 148 489 148 352 c 0,29,30
 148 254 148 254 177 187 c 1,31,-1
 519 568 l 1,25,26
543 536 m 1,32,-1
 197 151 l 1,33,34
 251 70 251 70 361 70 c 128,-1,35
 471 70 471 70 527 142 c 128,-1,36
 583 214 583 214 583 340.5 c 128,-1,37
 583 467 583 467 543 536 c 1,32,-1
EndSplineSet
Position2: "'cpsp' Capital Spacing lookup 0 subtable" dx=5 dy=0 dh=10 dv=0
EndChar

StartChar: Oslashacute
Encoding: 510 510 128
Width: 731
GlyphClass: 2
Flags: MW
HStem: -6 76<327.5 435.5 327.5 465.5> 630 76<294.5 398> 682 20G<644.5 651.5>
VStem: 57 91<319 444 319 469> 583 91<260 390.5>
AnchorPoint: "Anchor-1" 372 877 basechar 0
AnchorPoint: "Anchor-0" 0 0 basechar 0
LayerCount: 2
Fore
SplineSet
384 883 m 0,0,1
 399 909 399 909 446.5 909 c 128,-1,2
 494 909 494 909 494 896 c 0,3,4
 494 889 494 889 484.5 877 c 128,-1,5
 475 865 475 865 445 831 c 2,6,-1
 400 780 l 2,7,8
 384 762 384 762 355 762 c 128,-1,9
 326 762 326 762 326 772 c 128,-1,10
 326 782 326 782 384 883 c 0,0,1
135.5 616.5 m 128,-1,12
 214 706 214 706 356.5 706 c 128,-1,13
 499 706 499 706 578 633 c 1,14,-1
 633 694 l 2,15,16
 640 702 640 702 647 702 c 128,-1,17
 654 702 654 702 661.5 695 c 128,-1,18
 669 688 669 688 669 681.5 c 128,-1,19
 669 675 669 675 663 668 c 2,20,-1
 605 604 l 1,21,22
 674 514 674 514 674 345.5 c 128,-1,23
 674 177 674 177 595 85.5 c 128,-1,24
 516 -6 516 -6 365.5 -6 c 128,-1,25
 215 -6 215 -6 137 84 c 1,26,-1
 70 10 l 2,27,28
 62 1 62 1 55.5 1 c 128,-1,29
 49 1 49 1 41.5 8 c 128,-1,30
 34 15 34 15 34 21.5 c 128,-1,31
 34 28 34 28 40 36 c 2,32,-1
 113 116 l 1,33,34
 57 205 57 205 57 352 c 0,35,11
 57 527 57 527 135.5 616.5 c 128,-1,12
519 568 m 1,36,37
 465 630 465 630 362 630 c 128,-1,38
 259 630 259 630 203.5 559.5 c 128,-1,39
 148 489 148 489 148 352 c 0,40,41
 148 254 148 254 177 187 c 1,42,-1
 519 568 l 1,36,37
543 536 m 1,43,-1
 197 151 l 1,44,45
 251 70 251 70 361 70 c 128,-1,46
 471 70 471 70 527 142 c 128,-1,47
 583 214 583 214 583 340.5 c 128,-1,48
 583 467 583 467 543 536 c 1,43,-1
EndSplineSet
Position2: "'cpsp' Capital Spacing lookup 0 subtable" dx=5 dy=0 dh=10 dv=0
EndChar

StartChar: Otilde
Encoding: 213 213 129
Width: 731
GlyphClass: 2
Flags: MW
HStem: -6 76<294.5 435.5 294.5 465.5> 630 76<294.5 435.5> 762 64<423 440.5> 792 64<292.5 310.5>
VStem: 57 91<260 444 260 469> 583 91<260 444>
AnchorPoint: "Anchor-1" 376 877 basechar 0
AnchorPoint: "Anchor-0" 367 0 basechar 0
LayerCount: 2
Fore
SplineSet
491 849 m 0,0,1
 510 862 510 862 527 842 c 0,2,3
 544 822 544 822 523 803 c 0,4,5
 467 762 467 762 424 762 c 0,6,7
 381 762 381 762 349 777 c 0,8,9
 317 792 317 792 295.5 792 c 0,10,11
 274 792 274 792 248 774.5 c 0,12,13
 222 757 222 757 205.5 779.5 c 0,14,15
 189 802 189 802 209 816 c 0,16,17
 267 856 267 856 306 856 c 0,18,19
 345 856 345 856 375 841 c 0,20,21
 405 826 405 826 430.5 826 c 0,22,23
 456 826 456 826 491 849 c 0,0,1
365 706 m 128,-1,25
 516 706 516 706 595 616.5 c 128,-1,26
 674 527 674 527 674 352 c 128,-1,27
 674 177 674 177 595 85.5 c 128,-1,28
 516 -6 516 -6 365.5 -6 c 0,29,30
 215 -6 215 -6 136 85.5 c 128,-1,31
 57 177 57 177 57 352 c 128,-1,32
 57 527 57 527 135.5 616.5 c 128,-1,24
 214 706 214 706 365 706 c 128,-1,25
365 630 m 128,-1,34
 259 630 259 630 203.5 559.5 c 128,-1,35
 148 489 148 489 148 351.5 c 0,36,37
 148 214 148 214 203.5 142 c 128,-1,38
 259 70 259 70 365 70 c 128,-1,39
 471 70 471 70 527 142 c 128,-1,40
 583 214 583 214 583 351.5 c 0,41,42
 583 489 583 489 527 559.5 c 128,-1,33
 471 630 471 630 365 630 c 128,-1,34
EndSplineSet
Position2: "'cpsp' Capital Spacing lookup 0 subtable" dx=5 dy=0 dh=10 dv=0
EndChar

StartChar: OE
Encoding: 338 338 130
Width: 1021
GlyphClass: 2
Flags: MW
HStem: -6 76<294.5 413> 0 76<604.5 968 673 968 673 968> 320 76<673 937 673 937> 624 76<585 967 673 673 673 967> 630 76<294.5 413 265 435.5>
VStem: 57 91<260 444 260 469> 585 88<76 76 76 78 78 78>
AnchorPoint: "Anchor-1" 511 700 basechar 0
AnchorPoint: "Anchor-0" 0 0 basechar 0
LayerCount: 2
Fore
SplineSet
673 76 m 1,0,-1
 968 76 l 2,1,2
 988 76 988 76 988 46 c 2,3,-1
 988 30 l 2,4,5
 988 0 988 0 968 0 c 2,6,-1
 615 0 l 2,7,8
 585 0 585 0 585 30 c 2,9,-1
 585 78 l 1,10,11
 508 -6 508 -6 361.5 -6 c 0,12,13
 215 -6 215 -6 136 85.5 c 128,-1,14
 57 177 57 177 57 352 c 128,-1,15
 57 527 57 527 135.5 616.5 c 128,-1,16
 214 706 214 706 361 706 c 0,17,18
 508 706 508 706 585 624 c 1,19,-1
 585 670 l 2,20,21
 585 700 585 700 615 700 c 2,22,-1
 967 700 l 2,23,24
 987 700 987 700 987 670 c 2,25,-1
 987 654 l 2,26,27
 987 624 987 624 967 624 c 2,28,-1
 673 624 l 1,29,-1
 673 396 l 1,30,-1
 937 396 l 2,31,32
 957 396 957 396 957 366 c 2,33,-1
 957 350 l 2,34,35
 957 320 957 320 937 320 c 2,36,-1
 673 320 l 1,37,-1
 673 76 l 1,0,-1
365 70 m 128,-1,39
 471 70 471 70 527 142 c 128,-1,40
 583 214 583 214 583 351.5 c 0,41,42
 583 489 583 489 527 559.5 c 128,-1,43
 471 630 471 630 365 630 c 128,-1,44
 259 630 259 630 203.5 559.5 c 128,-1,45
 148 489 148 489 148 351.5 c 0,46,47
 148 214 148 214 203.5 142 c 128,-1,38
 259 70 259 70 365 70 c 128,-1,39
EndSplineSet
Position2: "'cpsp' Capital Spacing lookup 0 subtable" dx=5 dy=0 dh=10 dv=0
EndChar

StartChar: P
Encoding: 80 80 131
Width: 570
GlyphClass: 2
Flags: MW
HStem: 298 76<173 328 173 329> 624 76<173 173 173 315>
VStem: 85 88<20 298 374 624> 450 91<449.5 553.5>
LayerCount: 2
Fore
SplineSet
115 700 m 2,0,-1
 318 700 l 2,1,2
 395.184210526 700 395.184210526 700 460.5 666 c 0,3,4
 497 647 497 647 519 605.5 c 128,-1,5
 541 564 541 564 541 508 c 128,-1,6
 541 452 541 452 523.5 412.5 c 128,-1,7
 506 373 506 373 481.5 352 c 128,-1,8
 457 331 457 331 425 318 c 0,9,10
 375.769230769 298 375.769230769 298 328 298 c 2,11,-1
 173 298 l 1,12,-1
 173 20 l 2,13,14
 173 -2 173 -2 133 -2 c 2,15,-1
 125 -2 l 2,16,17
 85 -2 85 -2 85 20 c 2,18,-1
 85 670 l 2,19,20
 85 700 85 700 115 700 c 2,0,-1
173 624 m 1,21,-1
 173 374 l 1,22,-1
 329 374 l 2,23,24
 367.076923077 374 367.076923077 374 404 398 c 0,25,26
 424 411 424 411 437 438.5 c 128,-1,27
 450 466 450 466 450 504 c 0,28,29
 450 571 450 571 410 597.5 c 128,-1,30
 370 624 370 624 315 624 c 2,31,-1
 173 624 l 1,21,-1
EndSplineSet
Position2: "'cpsp' Capital Spacing lookup 0 subtable" dx=5 dy=0 dh=10 dv=0
EndChar

StartChar: Thorn
Encoding: 222 222 132
Width: 567
GlyphClass: 2
Flags: MW
HStem: 176 76<173 328 173 329> 502 76<173 318 173 315> 682 20G<125 133 133 147>
VStem: 85 88<20 176 252 502 578 680> 450 91<327.5 431.5>
LayerCount: 2
Fore
SplineSet
125 702 m 2,0,-1
 133 702 l 2,1,2
 173 702 173 702 173 680 c 2,3,-1
 173 578 l 1,4,-1
 318 578 l 2,5,6
 395.184210526 578 395.184210526 578 460.5 544 c 0,7,8
 497 525 497 525 519 483.5 c 128,-1,9
 541 442 541 442 541 386 c 128,-1,10
 541 330 541 330 523.5 290.5 c 128,-1,11
 506 251 506 251 481.5 230 c 128,-1,12
 457 209 457 209 425 196 c 0,13,14
 375.769230769 176 375.769230769 176 328 176 c 2,15,-1
 173 176 l 1,16,-1
 173 20 l 2,17,18
 173 -2 173 -2 133 -2 c 2,19,-1
 125 -2 l 2,20,21
 85 -2 85 -2 85 20 c 2,22,-1
 85 680 l 2,23,24
 85 702 85 702 125 702 c 2,0,-1
173 502 m 1,25,-1
 173 252 l 1,26,-1
 329 252 l 2,27,28
 367.076923077 252 367.076923077 252 404 276 c 0,29,30
 424 289 424 289 437 316.5 c 128,-1,31
 450 344 450 344 450 382 c 0,32,33
 450 449 450 449 410 475.5 c 128,-1,34
 370 502 370 502 315 502 c 2,35,-1
 173 502 l 1,25,-1
EndSplineSet
Position2: "'cpsp' Capital Spacing lookup 0 subtable" dx=5 dy=0 dh=10 dv=0
EndChar

StartChar: Q
Encoding: 81 81 133
Width: 731
GlyphClass: 2
Flags: MW
HStem: -19 20G<473 473> 630 76<296 434.5>
VStem: 57 91<257.5 438.5 256 464.5> 583 91<256.5 438>
LayerCount: 2
Fore
SplineSet
136 614.5 m 128,-1,1
 215 706 215 706 365.5 706 c 128,-1,2
 516 706 516 706 595 614 c 128,-1,3
 674 522 674 522 674 347 c 0,4,5
 674 205 674 205 622.5 118 c 128,-1,6
 571 31 571 31 473 5 c 1,7,-1
 473 1 l 1,8,-1
 670 -61 l 2,9,10
 684 -66 684 -66 684 -78 c 128,-1,11
 684 -90 684 -90 670.5 -119 c 128,-1,12
 657 -148 657 -148 642 -148 c 0,13,14
 634 -148 634 -148 464 -81 c 128,-1,15
 294 -14 294 -14 246 6 c 0,16,17
 57 81 57 81 57 347 c 0,18,0
 57 523 57 523 136 614.5 c 128,-1,1
365 630 m 128,-1,20
 261 630 261 630 204.5 557 c 128,-1,21
 148 484 148 484 148 347.5 c 128,-1,22
 148 211 148 211 204.5 139 c 128,-1,23
 261 67 261 67 365.5 67 c 128,-1,24
 470 67 470 67 526.5 139.5 c 128,-1,25
 583 212 583 212 583 347.5 c 128,-1,26
 583 483 583 483 526 556.5 c 128,-1,19
 469 630 469 630 365 630 c 128,-1,20
EndSplineSet
Position2: "'cpsp' Capital Spacing lookup 0 subtable" dx=5 dy=0 dh=10 dv=0
EndChar

StartChar: R
Encoding: 82 82 134
Width: 610
GlyphClass: 2
Flags: MW
HStem: 308 76<185 275 185 317> 624 76<185 185 185 295 295 310>
VStem: 97 88<20 308 384 624> 445 91<480 547.5>
AnchorPoint: "Anchor-1" 305 700 basechar 0
AnchorPoint: "Anchor-0" 305 0 basechar 0
LayerCount: 2
Fore
SplineSet
127 700 m 2,0,-1
 295 700 l 2,1,2
 415 700 415 700 475.5 657.5 c 128,-1,3
 536 615 536 615 536 523 c 0,4,5
 536 400 536 400 421 354 c 1,6,-1
 421 350 l 1,7,8
 450 340 450 340 469.5 311 c 128,-1,9
 489 282 489 282 511 225 c 2,10,-1
 589 28 l 2,11,12
 592 19 592 19 592 14 c 0,13,14
 592 -2 592 -2 550 -2 c 2,15,-1
 540 -2 l 2,16,17
 506 -2 506 -2 500 14 c 2,18,-1
 424 210 l 2,19,20
 402 267 402 267 369 287.5 c 128,-1,21
 336 308 336 308 275 308 c 2,22,-1
 185 308 l 1,23,-1
 185 20 l 2,24,25
 185 -2 185 -2 145 -2 c 2,26,-1
 137 -2 l 2,27,28
 97 -2 97 -2 97 20 c 2,29,-1
 97 670 l 2,30,31
 97 700 97 700 127 700 c 2,0,-1
185 624 m 1,32,-1
 185 384 l 1,33,-1
 317 384 l 2,34,35
 370 384 370 384 407.5 420.5 c 128,-1,36
 445 457 445 457 445 511.5 c 0,37,38
 445 566 445 566 409 595 c 128,-1,39
 373 624 373 624 310 624 c 2,40,-1
 185 624 l 1,32,-1
EndSplineSet
Position2: "'cpsp' Capital Spacing lookup 0 subtable" dx=5 dy=0 dh=10 dv=0
EndChar

StartChar: Racute
Encoding: 340 340 135
Width: 610
GlyphClass: 2
Flags: MW
HStem: 308 76<185 275 185 317> 624 76<185 185 185 295 295 310>
VStem: 97 88<20 308 384 624> 445 91<480 547.5>
AnchorPoint: "Anchor-1" 311 877 basechar 0
AnchorPoint: "Anchor-0" 305 0 basechar 0
LayerCount: 2
Fore
SplineSet
323 883 m 0,0,1
 338 909 338 909 385.5 909 c 128,-1,2
 433 909 433 909 433 896 c 0,3,4
 433 889 433 889 423.5 877 c 128,-1,5
 414 865 414 865 384 831 c 2,6,-1
 339 780 l 2,7,8
 322 762 322 762 293.5 762 c 128,-1,9
 265 762 265 762 265 772 c 128,-1,10
 265 782 265 782 323 883 c 0,0,1
127 700 m 2,11,-1
 295 700 l 2,12,13
 415 700 415 700 475.5 657.5 c 128,-1,14
 536 615 536 615 536 523 c 0,15,16
 536 400 536 400 421 354 c 1,17,-1
 421 350 l 1,18,19
 450 340 450 340 469.5 311 c 128,-1,20
 489 282 489 282 511 225 c 2,21,-1
 589 28 l 2,22,23
 592 19 592 19 592 14 c 0,24,25
 592 -2 592 -2 550 -2 c 2,26,-1
 540 -2 l 2,27,28
 506 -2 506 -2 500 14 c 2,29,-1
 424 210 l 2,30,31
 402 267 402 267 369 287.5 c 128,-1,32
 336 308 336 308 275 308 c 2,33,-1
 185 308 l 1,34,-1
 185 20 l 2,35,36
 185 -2 185 -2 145 -2 c 2,37,-1
 137 -2 l 2,38,39
 97 -2 97 -2 97 20 c 2,40,-1
 97 670 l 2,41,42
 97 700 97 700 127 700 c 2,11,-1
185 624 m 1,43,-1
 185 384 l 1,44,-1
 317 384 l 2,45,46
 370 384 370 384 407.5 420.5 c 128,-1,47
 445 457 445 457 445 511.5 c 128,-1,48
 445 566 445 566 409 595 c 128,-1,49
 373 624 373 624 310 624 c 2,50,-1
 185 624 l 1,43,-1
EndSplineSet
Position2: "'cpsp' Capital Spacing lookup 0 subtable" dx=5 dy=0 dh=10 dv=0
EndChar

StartChar: Rcaron
Encoding: 344 344 136
Width: 610
GlyphClass: 2
Flags: MW
HStem: 308 76<185 275 185 317> 624 76<185 185 185 295 295 310> 759 142<207 292 207 317>
VStem: 97 88<20 308 384 624> 445 91<480 547.5>
AnchorPoint: "Anchor-1" 306 877 basechar 0
AnchorPoint: "Anchor-0" 305 0 basechar 0
LayerCount: 2
Fore
SplineSet
400 901 m 2,0,-1
 402 901 l 2,1,2
 426 901 426 901 426 886 c 0,3,4
 426 878 426 878 420 869 c 2,5,-1
 363 781 l 2,6,7
 348 759 348 759 317 759 c 2,8,-1
 292 759 l 2,9,10
 261 759 261 759 246 781 c 2,11,-1
 190 869 l 2,12,13
 184 879.5 184 879.5 184 887 c 0,14,15
 184 901 184 901 207 901 c 2,16,-1
 209 901 l 2,17,18
 229 901 229 901 243 888 c 1,19,-1
 304 814 l 1,20,-1
 367 888 l 1,21,22
 381 901 381 901 400 901 c 2,0,-1
127 700 m 2,23,-1
 295 700 l 2,24,25
 415 700 415 700 475.5 657.5 c 128,-1,26
 536 615 536 615 536 523 c 0,27,28
 536 400 536 400 421 354 c 1,29,-1
 421 350 l 1,30,31
 450 340 450 340 469.5 311 c 128,-1,32
 489 282 489 282 511 225 c 2,33,-1
 589 28 l 2,34,35
 592 19 592 19 592 14 c 0,36,37
 592 -2 592 -2 550 -2 c 2,38,-1
 540 -2 l 2,39,40
 506 -2 506 -2 500 14 c 2,41,-1
 424 210 l 2,42,43
 402 267 402 267 369 287.5 c 128,-1,44
 336 308 336 308 275 308 c 2,45,-1
 185 308 l 1,46,-1
 185 20 l 2,47,48
 185 -2 185 -2 145 -2 c 2,49,-1
 137 -2 l 2,50,51
 97 -2 97 -2 97 20 c 2,52,-1
 97 670 l 2,53,54
 97 700 97 700 127 700 c 2,23,-1
185 624 m 1,55,-1
 185 384 l 1,56,-1
 317 384 l 2,57,58
 370 384 370 384 407.5 420.5 c 128,-1,59
 445 457 445 457 445 511.5 c 0,60,61
 445 566 445 566 409 595 c 128,-1,62
 373 624 373 624 310 624 c 2,63,-1
 185 624 l 1,55,-1
EndSplineSet
Position2: "'cpsp' Capital Spacing lookup 0 subtable" dx=5 dy=0 dh=10 dv=0
EndChar

StartChar: Rcommaaccent
Encoding: 342 342 137
Width: 610
GlyphClass: 2
Flags: MW
HStem: 308 76<185 275 185 317> 624 76<185 185 185 295 295 310>
VStem: 97 88<20 308 384 624> 260 89<-121 -73.5> 445 91<480 547.5>
AnchorPoint: "Anchor-1" 305 700 basechar 0
AnchorPoint: "Anchor-0" 301 -203 basechar 0
LayerCount: 2
Fore
SplineSet
127 700 m 2,0,-1
 295 700 l 2,1,2
 415 700 415 700 475.5 657.5 c 128,-1,3
 536 615 536 615 536 523 c 0,4,5
 536 400 536 400 421 354 c 1,6,-1
 421 350 l 1,7,8
 450 340 450 340 469.5 311 c 128,-1,9
 489 282 489 282 511 225 c 2,10,-1
 589 28 l 2,11,12
 592 19 592 19 592 14 c 0,13,14
 592 -2 592 -2 550 -2 c 2,15,-1
 540 -2 l 2,16,17
 506 -2 506 -2 500 14 c 2,18,-1
 424 210 l 2,19,20
 402 267 402 267 369 287.5 c 128,-1,21
 336 308 336 308 275 308 c 2,22,-1
 185 308 l 1,23,-1
 185 20 l 2,24,25
 185 -2 185 -2 145 -2 c 2,26,-1
 137 -2 l 2,27,28
 97 -2 97 -2 97 20 c 2,29,-1
 97 670 l 2,30,31
 97 700 97 700 127 700 c 2,0,-1
185 624 m 1,32,-1
 185 384 l 1,33,-1
 317 384 l 2,34,35
 370 384 370 384 407.5 420.5 c 128,-1,36
 445 457 445 457 445 511.5 c 0,37,38
 445 566 445 566 409 595 c 128,-1,39
 373 624 373 624 310 624 c 2,40,-1
 185 624 l 1,32,-1
300 -51 m 2,41,-1
 309 -51 l 2,42,43
 349 -51 349 -51 349 -79 c 0,44,45
 349 -144 349 -144 312.5 -189.5 c 128,-1,46
 276 -235 276 -235 246.5 -235 c 0,47,48
 217 -235 217 -235 217 -220 c 0,49,50
 217 -215 217 -215 238.5 -171.5 c 128,-1,51
 260 -128 260 -128 260 -83 c 0,52,53
 260 -51 260 -51 300 -51 c 2,41,-1
EndSplineSet
Position2: "'cpsp' Capital Spacing lookup 0 subtable" dx=5 dy=0 dh=10 dv=0
EndChar

StartChar: Rdotbelow
Encoding: 7770 7770 138
Width: 610
GlyphClass: 2
Flags: MW
HStem: -175 95<293 321> 308 76<185 275 185 317> 624 76<185 185 185 295 295 310>
VStem: 97 88<20 308 384 624> 265 84<-153 -102 -159.5 -95.5> 445 91<480 547.5>
AnchorPoint: "Anchor-1" 310 -82 basechar 0
AnchorPoint: "Anchor-0" 305 -203 basechar 0
LayerCount: 2
Fore
SplineSet
127 700 m 2,0,-1
 295 700 l 2,1,2
 415 700 415 700 475.5 657.5 c 128,-1,3
 536 615 536 615 536 523 c 0,4,5
 536 400 536 400 421 354 c 1,6,-1
 421 350 l 1,7,8
 450 340 450 340 469.5 311 c 128,-1,9
 489 282 489 282 511 225 c 2,10,-1
 589 28 l 2,11,12
 592 19 592 19 592 14 c 0,13,14
 592 -2 592 -2 550 -2 c 2,15,-1
 540 -2 l 2,16,17
 506 -2 506 -2 500 14 c 2,18,-1
 424 210 l 2,19,20
 402 267 402 267 369 287.5 c 128,-1,21
 336 308 336 308 275 308 c 2,22,-1
 185 308 l 1,23,-1
 185 20 l 2,24,25
 185 -2 185 -2 145 -2 c 2,26,-1
 137 -2 l 2,27,28
 97 -2 97 -2 97 20 c 2,29,-1
 97 670 l 2,30,31
 97 700 97 700 127 700 c 2,0,-1
185 624 m 1,32,-1
 185 384 l 1,33,-1
 317 384 l 2,34,35
 370 384 370 384 407.5 420.5 c 128,-1,36
 445 457 445 457 445 511.5 c 128,-1,37
 445 566 445 566 409 595 c 128,-1,38
 373 624 373 624 310 624 c 2,39,-1
 185 624 l 1,32,-1
265 -102 m 2,40,41
 265 -80 265 -80 307 -80 c 128,-1,42
 349 -80 349 -80 349 -102 c 2,43,-1
 349 -153 l 2,44,45
 349 -175 349 -175 307 -175 c 128,-1,46
 265 -175 265 -175 265 -153 c 2,47,-1
 265 -102 l 2,40,41
EndSplineSet
Position2: "'cpsp' Capital Spacing lookup 0 subtable" dx=5 dy=0 dh=10 dv=0
EndChar

StartChar: S
Encoding: 83 83 139
Width: 500
GlyphClass: 2
Flags: MW
HStem: -6 76<192.5 282 192.5 311.5> 630 76<232.5 300.5 205 309.5>
VStem: 50 91<480.5 553.5 480.5 575> 375 91<152.5 228>
AnchorPoint: "Anchor-1" 250 700 basechar 0
AnchorPoint: "Anchor-0" 250 0 basechar 0
LayerCount: 2
Fore
SplineSet
272 706 m 0,0,1
 321 706 321 706 377 688 c 128,-1,2
 433 670 433 670 433 645 c 0,3,4
 433 634 433 634 420.5 613 c 128,-1,5
 408 592 408 592 401 592 c 0,6,7
 397 592 397 592 380 601.5 c 0,8,9
 329 630 329 630 270.5 630 c 128,-1,10
 212 630 212 630 176.5 600 c 128,-1,11
 141 570 141 570 141 517 c 0,12,13
 141 481.8125 141 481.8125 164 454.5 c 0,14,15
 181.727801087 433.448236209 181.727801087 433.448236209 263.963110869 402.852015605 c 0,16,17
 326.970579858 382.967043884 326.970579858 382.967043884 368.485289929 356.483521942 c 128,-1,18
 410 330 410 330 426 310.5 c 0,19,20
 466 261.75 466 261.75 466 179.875 c 128,-1,21
 466 98 466 98 406 46 c 128,-1,22
 346 -6 346 -6 254 -6 c 128,-1,23
 162 -6 162 -6 99.5 19 c 128,-1,24
 37 44 37 44 37 67 c 0,25,26
 37 79 37 79 50.5 100 c 128,-1,27
 64 121 64 121 72 121 c 0,28,29
 75 121 75 121 97 108.5 c 128,-1,30
 119 96 119 96 159 83 c 128,-1,31
 199 70 199 70 250.5 70 c 128,-1,32
 302 70 302 70 338.5 102.5 c 128,-1,33
 375 135 375 135 375 188 c 0,34,35
 375 229.19047619 375 229.19047619 345.5 261.5 c 0,36,37
 322.99410609 286.149312377 322.99410609 286.149312377 224 324 c 0,38,39
 189 338 189 338 172 345 c 128,-1,40
 155 352 155 352 127 369.5 c 128,-1,41
 99 387 99 387 85.5 405 c 0,42,43
 50 452.333333333 50 452.333333333 50 527.666666667 c 128,-1,44
 50 603 50 603 111 654.5 c 128,-1,45
 172 706 172 706 272 706 c 0,0,1
EndSplineSet
Position2: "'cpsp' Capital Spacing lookup 0 subtable" dx=5 dy=0 dh=10 dv=0
EndChar

StartChar: Sacute
Encoding: 346 346 140
Width: 500
GlyphClass: 2
Flags: MW
HStem: -6 76<192.5 282 192.5 311.5> 630 76<232.5 300.5 205 309.5>
VStem: 50 91<480.5 553.5 480.5 575> 375 91<152.5 228>
AnchorPoint: "Anchor-1" 256 877 basechar 0
AnchorPoint: "Anchor-0" 250 0 basechar 0
LayerCount: 2
Fore
SplineSet
268 883 m 0,0,1
 283 909 283 909 330.5 909 c 128,-1,2
 378 909 378 909 378 896 c 0,3,4
 378 889 378 889 368.5 877 c 128,-1,5
 359 865 359 865 329 831 c 2,6,-1
 284 780 l 2,7,8
 268 762 268 762 239 762 c 128,-1,9
 210 762 210 762 210 772 c 128,-1,10
 210 782 210 782 268 883 c 0,0,1
272 706 m 0,11,12
 321 706 321 706 377 688 c 128,-1,13
 433 670 433 670 433 645 c 0,14,15
 433 634 433 634 420.5 613 c 128,-1,16
 408 592 408 592 401 592 c 0,17,18
 397 592 397 592 380 601.5 c 0,19,20
 329 630 329 630 270.5 630 c 128,-1,21
 212 630 212 630 176.5 600 c 128,-1,22
 141 570 141 570 141 517 c 0,23,24
 141 481.8125 141 481.8125 164 454.5 c 0,25,26
 181.727801087 433.448236209 181.727801087 433.448236209 263.963110869 402.852015605 c 0,27,28
 326.970579858 382.967043884 326.970579858 382.967043884 368.485289929 356.483521942 c 128,-1,29
 410 330 410 330 426 310.5 c 0,30,31
 466 261.75 466 261.75 466 179.875 c 128,-1,32
 466 98 466 98 406 46 c 128,-1,33
 346 -6 346 -6 254 -6 c 128,-1,34
 162 -6 162 -6 99.5 19 c 128,-1,35
 37 44 37 44 37 67 c 0,36,37
 37 79 37 79 50.5 100 c 128,-1,38
 64 121 64 121 72 121 c 0,39,40
 75 121 75 121 97 108.5 c 128,-1,41
 119 96 119 96 159 83 c 128,-1,42
 199 70 199 70 250.5 70 c 128,-1,43
 302 70 302 70 338.5 102.5 c 128,-1,44
 375 135 375 135 375 188 c 0,45,46
 375 229.19047619 375 229.19047619 345.5 261.5 c 0,47,48
 322.99410609 286.149312377 322.99410609 286.149312377 224 324 c 0,49,50
 189 338 189 338 172 345 c 128,-1,51
 155 352 155 352 127 369.5 c 128,-1,52
 99 387 99 387 85.5 405 c 0,53,54
 50 452.333333333 50 452.333333333 50 527.666666667 c 128,-1,55
 50 603 50 603 111 654.5 c 128,-1,56
 172 706 172 706 272 706 c 0,11,12
EndSplineSet
Substitution2: "'locl' Localized Forms in Latin lookup 11 subtable" Sacute.loclPLK
Substitution2: "'aalt' Access All Alternates lookup 0 subtable" Sacute.loclPLK
Position2: "'cpsp' Capital Spacing lookup 0 subtable" dx=5 dy=0 dh=10 dv=0
EndChar

